SplineFontDB: 3.2
FontName: tigger-bolditalic
FullName: tigger-bolditalic
FamilyName: tigger
Weight: BoldItalic
Copyright: (c) 2025 Tadhg O'Brien
Version: 2025.12
ItalicAngle: 0
UnderlinePosition: -150
UnderlineWidth: 50
Ascent: 800
Descent: 200
InvalidEm: 0
LayerCount: 2
Layer: 0 1 "Back" 1
Layer: 1 1 "Fore" 0
XUID: [1021 796 -163880829 1938445]
StyleMap: 0x0021
FSType: 0
OS2Version: 1
OS2_WeightWidthSlopeOnly: 0
OS2_UseTypoMetrics: 0
CreationTime: 1280473793
ModificationTime: 1736638409
PfmFamily: 65
TTFWeight: 700
TTFWidth: 5
LineGap: 90
VLineGap: 0
Panose: 2 0 6 3 0 0 0 0 0 0
OS2TypoAscent: 800
OS2TypoAOffset: 0
OS2TypoDescent: -200
OS2TypoDOffset: 0
OS2TypoLinegap: 90
OS2WinAscent: 843
OS2WinAOffset: 0
OS2WinDescent: 347
OS2WinDOffset: 0
HheadAscent: 843
HheadAOffset: 0
HheadDescent: -347
HheadDOffset: 0
OS2SubXSize: 650
OS2SubYSize: 700
OS2SubXOff: 0
OS2SubYOff: 140
OS2SupXSize: 650
OS2SupYSize: 700
OS2SupXOff: 0
OS2SupYOff: 480
OS2StrikeYSize: 49
OS2StrikeYPos: 258
OS2Vendor: '2ttf'
OS2CodePages: 00000001.00000000
OS2UnicodeRanges: a00000af.00010042.00000000.00000000
Lookup: 1 0 0 "'rtla' Right to Left Alternates lookup 0" { "'rtla' Right to Left Alternates lookup 0 subtable"  } ['rtla' ('DFLT' <'dflt' > ) ]
Lookup: 260 0 0 "'mark' Mark Positioning lookup 2" { "'mark' Mark Positioning lookup 2-1"  } ['mark' ('DFLT' <'dflt' > 'arab' <'dflt' > 'armn' <'dflt' > 'cher' <'dflt' > 'cyrl' <'dflt' > 'grek' <'dflt' > 'hang' <'dflt' > 'hebr' <'dflt' > 'khmr' <'dflt' > 'latn' <'dflt' > 'mong' <'dflt' > ) ]
Lookup: 258 0 0 "'kern' Horizontal Kerning in Latin lookup 0" { "'kern' Horizontal Kerning in Latin lookup 0 subtable" [150,15,0] } ['kern' ('DFLT' <'dflt' > 'latn' <'dflt' > ) ]
MarkAttachClasses: 1
DEI: 91125
TtTable: prep
PUSHW_1
 511
SCANCTRL
PUSHB_1
 1
SCANTYPE
SVTCA[y-axis]
MPPEM
PUSHB_1
 8
LT
IF
PUSHB_2
 1
 1
INSTCTRL
EIF
PUSHB_2
 70
 6
CALL
IF
POP
PUSHB_1
 16
EIF
MPPEM
PUSHB_1
 20
GT
IF
POP
PUSHB_1
 128
EIF
SCVTCI
PUSHB_1
 6
CALL
NOT
IF
EIF
PUSHB_1
 20
CALL

StartChar: .notdef
Encoding: 65536 -1 0
Width: 463
GlyphClass: 1
Flags: W
LayerCount: 2
UndoRedoHistory
Layer: 1
Undoes
UndoOperation
Index: 0
Type: 3
WasModified: 0
WasOrder2: 1
Layer: 2
EndUndoOperation
EndUndoes
Redoes
EndRedoes
EndUndoRedoHistory
Fore
SplineSet
104 50 m 1,0,-1
 383 50 l 1,1,-1
 483 483 l 1,2,-1
 204 483 l 1,3,-1
 104 50 l 1,0,-1
46 0 m 1,4,-1
 169 533 l 1,5,-1
 541 533 l 1,6,7
 542 533 542 533 418 0 c 1,8,-1
 46 0 l 1,4,-1
EndSplineSet
EndChar

StartChar: exclam
Encoding: 33 33 4
AltUni2: 00ff01.ffffffff.0 00fe57.ffffffff.0 00fe15.ffffffff.0 002762.ffffffff.0 00ff01.ffffffff.0 00fe57.ffffffff.0 00fe15.ffffffff.0 002762.ffffffff.0
Width: 162
GlyphClass: 1
Flags: W
LayerCount: 2
UndoRedoHistory
Layer: 1
Undoes
UndoOperation
Index: 0
Type: 1
WasModified: 0
WasOrder2: 1
Layer: 2
Width: 162
VWidth: 1000
LBearingChange: 0
UnicodeEnc: 0
InstructionsLength: 0
SplineSet
112 115 m 4,0,1
 121 115 121 115 126 113 c 4,2,3
 144 102 144 102 154 89 c 4,4,5
 164 69 164 69 159 50 c 4,6,7
 148 12 148 12 109 -2 c 4,8,9
 92 -9 92 -9 79 -6 c 4,10,11
 59 -3 59 -3 52 14 c 4,12,13
 45 32 45 32 53 55 c 4,14,15
 58 73 58 73 76 98 c 4,16,17
 92 120 92 120 112 115 c 4,0,1
300 637 m 4,18,19
 218 383 218 383 177 207 c 4,20,21
 174 194 174 194 163 184.5 c 132,-1,22
 152 175 152 175 139 175 c 4,23,24
 127 175 127 175 120.5 184.5 c 132,-1,25
 114 194 114 194 117 207 c 4,26,27
 159 390 159 390 242 644 c 4,28,29
 246 657 246 657 257 666 c 132,-1,30
 268 675 268 675 281 673 c 132,-1,31
 294 671 294 671 299 660.5 c 132,-1,32
 304 650 304 650 300 637 c 4,18,19
EndSplineSet
EndUndoOperation
EndUndoes
Redoes
EndRedoes
EndUndoRedoHistory
Fore
SplineSet
96 115 m 4,0,1
 107.25 115 107.25 115 113.5 113 c 4,2,3
 136 102 136 102 148.5 89 c 4,4,5
 161 69 161 69 154.75 50 c 4,6,7
 141 12 141 12 92.25 -2 c 4,8,9
 71 -9 71 -9 54.75 -6 c 4,10,11
 29.75 -3 29.75 -3 21 14 c 4,12,13
 12.25 32 12.25 32 22.25 55 c 4,14,15
 28.5 73 28.5 73 51 98 c 4,16,17
 71 120 71 120 96 115 c 4,0,1
331 637 m 4,18,19
 228.5 383 228.5 383 177.25 207 c 4,20,21
 173.5 194 173.5 194 159.75 184.5 c 132,-1,22
 146 175 146 175 129.75 175 c 4,23,24
 114.75 175 114.75 175 106.625 184.5 c 132,-1,25
 98.5 194 98.5 194 102.25 207 c 4,26,27
 154.75 390 154.75 390 258.5 644 c 4,28,29
 263.5 657 263.5 657 277.25 666 c 132,-1,30
 291 675 291 675 307.25 673 c 132,-1,31
 323.5 671 323.5 671 329.75 660.5 c 132,-1,32
 336 650 336 650 331 637 c 4,18,19
EndSplineSet
EndChar

StartChar: quotedbl
Encoding: 34 34 5
AltUni2: 00ff02.ffffffff.0 00201d.ffffffff.0 00201c.ffffffff.0 00030e.ffffffff.0 00030b.ffffffff.0 0002ba.ffffffff.0 00ff02.ffffffff.0 00201d.ffffffff.0 00201c.ffffffff.0 00030e.ffffffff.0 00030b.ffffffff.0 0002ba.ffffffff.0
Width: 270
GlyphClass: 1
InSpiro: 1
Flags: W
LayerCount: 2
UndoRedoHistory
Layer: 1
Undoes
UndoOperation
Index: 0
Type: 3
WasModified: 0
WasOrder2: 1
Layer: 2
EndUndoOperation
EndUndoes
Redoes
EndRedoes
EndUndoRedoHistory
Fore
SplineSet
285.635742188 747 m 0,0,1
 282.59375 742.344726562 282.59375 742.344726562 276.040039062 734.268554688 c 128,-1,2
 269.487304688 726.19140625 269.487304688 726.19140625 267.454101562 723.439453125 c 0,3,4
 258.526367188 711.349609375 258.526367188 711.349609375 253.00390625 698.328125 c 0,5,6
 249.422851562 689.884765625 249.422851562 689.884765625 243.879882812 671.926757812 c 128,-1,7
 238.3359375 653.969726562 238.3359375 653.969726562 234.385742188 645 c 0,8,9
 231.486328125 638.41796875 231.486328125 638.41796875 222.37109375 621.596679688 c 128,-1,10
 213.256835938 604.775390625 213.256835938 604.775390625 209.84765625 595.185546875 c 0,11,12
 205.366210938 582.579101562 205.366210938 582.579101562 204.772460938 568.77734375 c 0,13,14
 204.634765625 565.571289062 204.634765625 565.571289062 204.803710938 555.377929688 c 128,-1,15
 204.971679688 545.184570312 204.971679688 545.184570312 204.385742188 542 c 0,16,17
 203.135742188 533 203.135742188 533 199.385742188 527 c 128,-1,18
 195.635742188 521 195.635742188 521 186.885742188 514 c 128,-1,19
 178.135742188 507 178.135742188 507 170.635742188 504 c 128,-1,20
 163.135742188 501 163.135742188 501 153.135742188 500 c 128,-1,21
 143.135742188 499 143.135742188 499 135.635742188 501 c 128,-1,22
 128.135742188 503 128.135742188 503 123.135742188 508 c 128,-1,23
 118.135742188 513 118.135742188 513 115.635742188 520 c 0,24,25
 113.135742188 526 113.135742188 526 114.385742188 534 c 0,26,27
 115.296875 543.33984375 115.296875 543.33984375 122.717773438 562.686523438 c 0,28,29
 129.626953125 580.69921875 129.626953125 580.69921875 132.713867188 591.086914062 c 0,30,31
 135.64453125 600.946289062 135.64453125 600.946289062 139.932617188 620.344726562 c 128,-1,32
 144.220703125 639.743164062 144.220703125 639.743164062 146.885742188 649 c 0,33,34
 153.958007812 673.569335938 153.958007812 673.569335938 172.75 709.58203125 c 0,35,36
 197.106445312 756.259765625 197.106445312 756.259765625 205.635742188 768 c 0,37,38
 211.885742188 776 211.885742188 776 218.135742188 782 c 0,39,40
 225.635742188 789 225.635742188 789 234.385742188 792 c 0,41,42
 241.885742188 795 241.885742188 795 251.885742188 796 c 128,-1,43
 261.885742188 797 261.885742188 797 269.385742188 795 c 0,44,45
 278.135742188 793 278.135742188 793 283.135742188 788 c 128,-1,46
 288.135742188 783 288.135742188 783 290.635742188 776 c 128,-1,47
 293.135742188 769 293.135742188 769 291.885742188 762 c 128,-1,48
 290.635742188 755 290.635742188 755 285.635742188 747 c 0,0,1
  Spiro
    285.635 747 o
    234.385 645 o
    204.385 542 o
    199.385 527 o
    186.885 514 o
    170.635 504 o
    153.135 500 o
    135.635 501 o
    123.135 508 o
    115.635 520 o
    114.385 534 o
    146.885 649 o
    205.635 768 o
    218.135 782 o
    234.385 792 o
    251.885 796 o
    269.385 795 o
    283.135 788 o
    290.635 776 o
    291.885 762 o
    0 0 z
  EndSpiro
454.385742188 751 m 0,49,50
 451.512695312 746.89453125 451.512695312 746.89453125 447.584960938 742.607421875 c 128,-1,51
 443.65625 738.319335938 443.65625 738.319335938 438.618164062 733.2890625 c 128,-1,52
 433.580078125 728.2578125 433.580078125 728.2578125 430.932617188 725.348632812 c 0,53,54
 418.440429688 711.620117188 418.440429688 711.620117188 412.033203125 697.491210938 c 0,55,56
 407.604492188 687.724609375 407.604492188 687.724609375 398.135742188 635 c 0,57,58
 396.364257812 625.138671875 396.364257812 625.138671875 391.94921875 607.11328125 c 128,-1,59
 387.533203125 589.088867188 387.533203125 589.088867188 386.456054688 584.20703125 c 0,60,61
 384.546875 575.553710938 384.546875 575.553710938 382.2265625 558.423828125 c 128,-1,62
 379.90625 541.293945312 379.90625 541.293945312 378.135742188 533 c 0,63,64
 376.885742188 524 376.885742188 524 373.135742188 518 c 0,65,66
 369.385742188 510 369.385742188 510 363.135742188 504 c 0,67,68
 356.885742188 497 356.885742188 497 348.135742188 493 c 128,-1,69
 339.385742188 489 339.385742188 489 329.385742188 487 c 128,-1,70
 319.385742188 485 319.385742188 485 311.885742188 487 c 128,-1,71
 304.385742188 489 304.385742188 489 298.135742188 493 c 0,72,73
 291.885742188 498 291.885742188 498 288.135742188 504 c 0,74,75
 285.635742188 510 285.635742188 510 285.635742188 517 c 0,76,77
 286.102539062 524.602539062 286.102539062 524.602539062 295.001953125 546.24609375 c 0,78,79
 301.647460938 562.405273438 301.647460938 562.405273438 303.999023438 575.620117188 c 0,80,81
 305.720703125 585.302734375 305.720703125 585.302734375 306.551757812 605.525390625 c 128,-1,82
 307.3828125 625.748046875 307.3828125 625.748046875 309.385742188 636 c 0,83,84
 312.671875 652.8203125 312.671875 652.8203125 322.020507812 670.399414062 c 0,85,86
 323.0546875 672.34375 323.0546875 672.34375 341.495117188 702.791015625 c 0,87,88
 351.848632812 719.887695312 351.848632812 719.887695312 358.599609375 736.004882812 c 0,89,90
 372.02734375 768.06640625 372.02734375 768.06640625 373.135742188 770 c 0,91,92
 378.135742188 778 378.135742188 778 384.385742188 784 c 128,-1,93
 390.635742188 790 390.635742188 790 400.635742188 794 c 0,94,95
 409.385742188 798 409.385742188 798 418.135742188 799 c 128,-1,96
 426.885742188 800 426.885742188 800 435.635742188 798 c 0,97,98
 443.135742188 796 443.135742188 796 449.385742188 791 c 128,-1,99
 455.635742188 786 455.635742188 786 458.135742188 780 c 0,100,101
 461.885742188 773 461.885742188 773 460.635742188 766 c 128,-1,102
 459.385742188 759 459.385742188 759 454.385742188 751 c 0,49,50
  Spiro
    454.385 751 o
    398.135 635 o
    378.135 533 o
    373.135 518 o
    363.135 504 o
    348.135 493 o
    329.385 487 o
    311.885 487 o
    298.135 493 o
    288.135 504 o
    285.635 517 o
    309.385 636 o
    373.135 770 o
    384.385 784 o
    400.635 794 o
    418.135 799 o
    435.635 798 o
    449.385 791 o
    458.135 780 o
    460.635 766 o
    0 0 z
  EndSpiro
EndSplineSet
EndChar

StartChar: numbersign
Encoding: 35 35 6
AltUni2: 00ff03.ffffffff.0 00fe5f.ffffffff.0 00ff03.ffffffff.0 00fe5f.ffffffff.0
Width: 679
GlyphClass: 1
Flags: W
LayerCount: 2
UndoRedoHistory
Layer: 1
Undoes
UndoOperation
Index: 0
Type: 3
WasModified: 0
WasOrder2: 1
Layer: 2
EndUndoOperation
EndUndoes
Redoes
EndRedoes
EndUndoRedoHistory
Fore
SplineSet
550.059570312 420 m 1,0,1
 435.059570312 414 435.059570312 414 396.309570312 413 c 0,2,3
 385.059570312 412 385.059570312 412 366.309570312 412 c 1,4,5
 365.059570312 406 365.059570312 406 362.559570312 400 c 128,-1,6
 360.059570312 394 360.059570312 394 356.309570312 387 c 128,-1,7
 352.559570312 380 352.559570312 380 352.559570312 376 c 0,8,9
 332.559570312 326 332.559570312 326 313.809570312 266 c 1,10,-1
 316.309570312 266 l 2,11,12
 386.309570312 266 386.309570312 266 511.309570312 270 c 1,13,14
 518.809570312 305 518.809570312 305 536.309570312 374 c 2,15,-1
 550.059570312 420 l 1,0,1
25.0595703125 264 m 0,16,17
 70.0595703125 265 70.0595703125 265 177.559570312 265 c 2,18,-1
 238.809570312 265 l 1,19,20
 257.559570312 328 257.559570312 328 277.559570312 382 c 2,21,-1
 288.809570312 409 l 1,22,23
 188.809570312 407 188.809570312 407 76.3095703125 406 c 0,24,25
 61.3095703125 405 61.3095703125 405 52.5595703125 414.5 c 128,-1,26
 43.8095703125 424 43.8095703125 424 46.3095703125 438 c 0,27,28
 50.0595703125 451 50.0595703125 451 63.1845703125 460.5 c 128,-1,29
 76.3095703125 470 76.3095703125 470 93.8095703125 471 c 0,30,31
 246.309570312 472 246.309570312 472 316.309570312 475 c 1,32,33
 320.059570312 483 320.059570312 483 327.559570312 501 c 0,34,35
 363.809570312 586 363.809570312 586 372.559570312 607 c 0,36,37
 395.059570312 661 395.059570312 661 405.059570312 696 c 0,38,39
 408.809570312 710 408.809570312 710 421.934570312 719 c 128,-1,40
 435.059570312 728 435.059570312 728 451.309570312 728 c 128,-1,41
 467.559570312 728 467.559570312 728 475.684570312 718.5 c 128,-1,42
 483.809570312 709 483.809570312 709 480.059570312 696 c 0,43,44
 468.809570312 657 468.809570312 657 445.059570312 600 c 0,45,46
 442.559570312 594 442.559570312 594 435.684570312 576.5 c 128,-1,47
 428.809570312 559 428.809570312 559 423.809570312 548 c 0,48,49
 416.309570312 532 416.309570312 532 412.559570312 521 c 0,50,51
 411.309570312 517 411.309570312 517 400.059570312 493 c 0,52,53
 400.059570312 491 400.059570312 491 397.559570312 485.5 c 128,-1,54
 395.059570312 480 395.059570312 480 393.809570312 477 c 1,55,56
 405.059570312 477 405.059570312 477 412.559570312 478 c 0,57,58
 448.809570312 479 448.809570312 479 568.809570312 485 c 1,59,60
 572.559570312 495 572.559570312 495 580.059570312 517 c 128,-1,61
 587.559570312 539 587.559570312 539 590.059570312 550 c 0,62,63
 630.059570312 676 630.059570312 676 635.059570312 697 c 0,64,65
 638.809570312 711 638.809570312 711 652.559570312 720.5 c 128,-1,66
 666.309570312 730 666.309570312 730 682.559570312 730 c 0,67,68
 698.809570312 731 698.809570312 731 706.934570312 721.5 c 128,-1,69
 715.059570312 712 715.059570312 712 711.309570312 699 c 0,70,71
 706.309570312 677 706.309570312 677 665.059570312 548 c 0,72,73
 662.559570312 538 662.559570312 538 656.309570312 518 c 128,-1,74
 650.059570312 498 650.059570312 498 646.309570312 489 c 1,75,76
 722.559570312 493 722.559570312 493 830.059570312 501 c 0,77,78
 845.059570312 502 845.059570312 502 854.434570312 493.5 c 128,-1,79
 863.809570312 485 863.809570312 485 861.309570312 471 c 0,80,81
 858.809570312 457 858.809570312 457 845.684570312 447 c 128,-1,82
 832.559570312 437 832.559570312 437 816.309570312 436 c 0,83,84
 706.309570312 428 706.309570312 428 626.309570312 424 c 1,85,-1
 611.309570312 374 l 2,86,87
 593.809570312 306 593.809570312 306 587.559570312 273 c 1,88,89
 708.809570312 281 708.809570312 281 773.809570312 287 c 0,90,91
 790.059570312 289 790.059570312 289 799.434570312 280 c 128,-1,92
 808.809570312 271 808.809570312 271 806.309570312 258 c 128,-1,93
 803.809570312 245 803.809570312 245 791.309570312 234.5 c 128,-1,94
 778.809570312 224 778.809570312 224 763.809570312 222 c 0,95,96
 675.059570312 214 675.059570312 214 575.059570312 209 c 1,97,98
 575.059570312 203 575.059570312 203 573.184570312 192 c 128,-1,99
 571.309570312 181 571.309570312 181 570.059570312 175 c 0,100,101
 560.059570312 81 560.059570312 81 583.809570312 41 c 0,102,103
 590.059570312 31 590.059570312 31 584.434570312 17.5 c 128,-1,104
 578.809570312 4 578.809570312 4 563.184570312 -4 c 128,-1,105
 547.559570312 -12 547.559570312 -12 533.184570312 -10.5 c 128,-1,106
 518.809570312 -9 518.809570312 -9 512.559570312 2 c 0,107,108
 481.309570312 55 481.309570312 55 493.809570312 165 c 0,109,110
 496.309570312 191 496.309570312 191 497.559570312 205 c 1,111,112
 371.309570312 201 371.309570312 201 298.809570312 201 c 1,113,114
 297.559570312 198 297.559570312 198 296.934570312 193.5 c 128,-1,115
 296.309570312 189 296.309570312 189 296.309570312 187 c 0,116,117
 283.809570312 96 283.809570312 96 316.309570312 46 c 0,118,119
 322.559570312 36 322.559570312 36 316.934570312 22 c 128,-1,120
 311.309570312 8 311.309570312 8 296.934570312 0 c 128,-1,121
 282.559570312 -8 282.559570312 -8 266.934570312 -6.5 c 128,-1,122
 251.309570312 -5 251.309570312 -5 245.059570312 5 c 0,123,124
 203.809570312 69 203.809570312 69 220.059570312 179 c 0,125,126
 221.309570312 193 221.309570312 193 223.809570312 200 c 1,127,-1
 158.809570312 200 l 2,128,129
 51.3095703125 200 51.3095703125 200 7.5595703125 199 c 0,130,131
 -7.4404296875 199 -7.4404296875 199 -16.1904296875 208.5 c 128,-1,132
 -24.9404296875 218 -24.9404296875 218 -21.1904296875 231 c 0,133,134
 -17.4404296875 245 -17.4404296875 245 -3.6904296875 254.5 c 128,-1,135
 10.0595703125 264 10.0595703125 264 25.0595703125 264 c 0,16,17
EndSplineSet
EndChar

StartChar: dollar
Encoding: 36 36 7
AltUni2: 00ff04.ffffffff.0 00fe69.ffffffff.0 00ff04.ffffffff.0 00fe69.ffffffff.0
Width: 536
GlyphClass: 1
Flags: W
LayerCount: 2
UndoRedoHistory
Layer: 1
Undoes
UndoOperation
Index: 0
Type: 3
WasModified: 1
WasOrder2: 1
Layer: 2
EndUndoOperation
EndUndoes
Redoes
EndRedoes
EndUndoRedoHistory
Fore
SplineSet
504.940429688 341.452148438 m 0,0,1
 529.768554688 329.634765625 529.768554688 329.634765625 539.983398438 307.453125 c 0,2,3
 545.456054688 294.4921875 545.456054688 294.4921875 545.456054688 276.953125 c 128,-1,4
 545.456054688 259.4140625 545.456054688 259.4140625 539.168945312 238.70703125 c 0,5,6
 523.071289062 182.013671875 523.071289062 182.013671875 428.678710938 131.8828125 c 0,7,8
 385.670898438 107.821289062 385.670898438 107.821289062 348.813476562 95.779296875 c 2,9,-1
 323.081054688 87.779296875 l 1,10,-1
 298.75 80.21484375 l 1,11,-1
 343.90625 226.232421875 l 2,12,13
 346.6484375 234.116210938 346.6484375 234.116210938 387.228515625 360.626953125 c 1,14,-1
 398.791992188 359.970703125 l 1,15,-1
 416.28125 358.9765625 l 2,16,17
 478.385742188 355.811523438 478.385742188 355.811523438 504.940429688 341.452148438 c 0,0,1
198.028320312 415 m 2,18,-1
 189.171875 415 l 1,19,-1
 175.62890625 415 l 1,20,-1
 175.62890625 425 l 1,21,-1
 175.62890625 430 l 1,22,-1
 175.62890625 431 l 2,23,24
 175.62890625 442.276367188 175.62890625 442.276367188 180.34765625 450.252929688 c 0,25,26
 190.065429688 480.797851562 190.065429688 480.797851562 227 508.069335938 c 0,27,28
 270.215820312 539.979492188 270.215820312 539.979492188 339.23046875 566.56640625 c 0,29,30
 351.309570312 572.767578125 351.309570312 572.767578125 364.083007812 574.829101562 c 2,31,-1
 385.752929688 577.829101562 l 1,32,-1
 406.842773438 580.748046875 l 1,33,34
 378.828125 502.6015625 378.828125 502.6015625 376.071289062 495.534179688 c 1,35,-1
 376.071289062 494.592773438 l 1,36,37
 372.944335938 486.512695312 372.944335938 486.512695312 366.130859375 464.375976562 c 128,-1,38
 359.31640625 442.239257812 359.31640625 442.239257812 345.259765625 412.397460938 c 1,39,40
 288.431640625 410 288.431640625 410 263.333984375 410 c 128,-1,41
 238.236328125 410 238.236328125 410 220.6171875 412.000976562 c 128,-1,42
 202.999023438 414.002929688 202.999023438 414.002929688 198.028320312 415 c 2,18,-1
439.659179688 519.46875 m 128,-1,44
 455.079101562 560.583007812 455.079101562 560.583007812 469.41796875 601.794921875 c 1,45,46
 515.955078125 608 515.955078125 608 536.048828125 608 c 128,-1,47
 556.142578125 608 556.142578125 608 570.3046875 604.6484375 c 2,48,-1
 578.37109375 603.03515625 l 1,49,50
 585.09765625 603.37890625 585.09765625 603.37890625 594.836914062 607.810546875 c 0,51,52
 607.298828125 613.1796875 607.298828125 613.1796875 614.266601562 624.966796875 c 0,53,54
 619.25 635.088867188 619.25 635.088867188 619.25 639.307617188 c 0,55,56
 619.25 654.497070312 619.25 654.497070312 605.21875 656.100585938 c 2,57,-1
 604.423828125 656.19140625 l 1,58,59
 582.639648438 661.032226562 582.639648438 661.032226562 550.51953125 662 c 0,60,61
 538.434570312 661.979492188 538.434570312 661.979492188 490.651367188 658.920898438 c 1,62,63
 523.771484375 764.90625 523.771484375 764.90625 523.837890625 777.75390625 c 0,64,65
 523.837890625 785.142578125 523.837890625 785.142578125 519.623046875 790.071289062 c 128,-1,66
 515.408203125 795 515.408203125 795 505.122070312 795 c 128,-1,67
 494.837890625 795 494.837890625 795 484.362304688 786.239257812 c 128,-1,68
 473.88671875 777.477539062 473.88671875 777.477539062 470.702148438 767.6328125 c 0,69,70
 469.563476562 751.907226562 469.563476562 751.907226562 432.092773438 645.422851562 c 1,71,72
 378.944335938 630.96484375 378.944335938 630.96484375 338.352539062 616.900390625 c 0,73,74
 245.98046875 585.720703125 245.98046875 585.720703125 188.225585938 540.168945312 c 1,75,-1
 187.912109375 539.930664062 l 1,76,77
 129.66796875 495.99609375 129.66796875 495.99609375 115.452148438 446.821289062 c 0,78,79
 110.688476562 429.001953125 110.688476562 429.001953125 110.690429688 416.888671875 c 0,80,81
 110.690429688 390.385742188 110.690429688 390.385742188 130.60546875 375.25 c 0,82,83
 158.809570312 355 158.809570312 355 244.700195312 355 c 0,84,85
 246.979492188 355 246.979492188 355 329.579101562 358.811523438 c 1,86,-1
 287.712890625 220.807617188 l 2,87,88
 260.551757812 133.5703125 260.551757812 133.5703125 238.831054688 74 c 1,89,-1
 228.448242188 74 l 1,90,-1
 205.424804688 74 l 2,91,92
 140.643554688 74 140.643554688 74 41.1796875 91.3427734375 c 0,93,94
 38.7138671875 92 38.7138671875 92 32.8740234375 92 c 128,-1,95
 27.033203125 92 27.033203125 92 18.8349609375 87.626953125 c 0,96,97
 4.4423828125 80.2255859375 4.4423828125 80.2255859375 -2.7666015625 68.033203125 c 0,98,99
 -3.884765625 65.7607421875 -3.884765625 65.7607421875 -4.25 64.5576171875 c 2,100,-1
 -4.25 64.08984375 l 2,101,102
 -5.25 59.6904296875 -5.25 59.6904296875 -5.25 55.6767578125 c 0,103,104
 -5.25 40.626953125 -5.25 40.626953125 8.9130859375 38.8837890625 c 2,105,-1
 9.837890625 38.740234375 l 1,106,107
 115.944335938 19 115.944335938 19 185.109375 19 c 2,108,-1
 202.715820312 19 l 1,109,-1
 220.397460938 19 l 1,110,111
 183.1875 -82.8857421875 183.1875 -82.8857421875 155.9765625 -143.16015625 c 0,112,113
 153.790039062 -148.00390625 153.790039062 -148.00390625 153.790039062 -153.1953125 c 0,114,115
 153.790039062 -157.833007812 153.790039062 -157.833007812 157.124023438 -163.415039062 c 0,116,117
 160.719726562 -170.314453125 160.719726562 -170.314453125 174.607421875 -170.995117188 c 0,118,119
 181.955078125 -170.8046875 181.955078125 -170.8046875 193.24609375 -163.983398438 c 128,-1,120
 204.395507812 -157.248046875 204.395507812 -157.248046875 210.14453125 -143.916015625 c 0,121,122
 242.548828125 -70.1435546875 242.548828125 -70.1435546875 278.467773438 27.453125 c 1,123,-1
 286.447265625 28.7626953125 l 1,124,-1
 298.092773438 30.6728515625 l 1,125,126
 374.161132812 48.18359375 374.161132812 48.18359375 446.541015625 88.0224609375 c 1,127,-1
 446.963867188 88.24609375 l 1,128,129
 505.182617188 119.322265625 505.182617188 119.322265625 546.256835938 158.502929688 c 0,130,131
 587.986328125 197.450195312 587.986328125 197.450195312 601.122070312 242.4296875 c 0,132,133
 609.686523438 269.834960938 609.686523438 269.834960938 609.686523438 295.40625 c 0,134,135
 609.686523438 360.93359375 609.686523438 360.93359375 546.711914062 391.477539062 c 0,136,137
 516.540039062 406.331054688 516.540039062 406.331054688 474.306640625 411.063476562 c 0,138,139
 442.362304688 412.985351562 442.362304688 412.985351562 438.37109375 413 c 2,140,-1
 422.119140625 413 l 1,141,-1
 405.596679688 413 l 1,142,-1
 408.838867188 424.96875 l 1,143,-1
 412.901367188 439.96875 l 2,144,43
 424.2421875 478.361328125 424.2421875 478.361328125 439.659179688 519.46875 c 128,-1,44
EndSplineSet
EndChar

StartChar: percent
Encoding: 37 37 8
AltUni2: 00ff05.ffffffff.0 00fe6a.ffffffff.0 00066a.ffffffff.0 00ff05.ffffffff.0 00fe6a.ffffffff.0 00066a.ffffffff.0
Width: 663
GlyphClass: 1
Flags: W
LayerCount: 2
UndoRedoHistory
Layer: 1
Undoes
UndoOperation
Index: 0
Type: 3
WasModified: 1
WasOrder2: 1
Layer: 2
EndUndoOperation
EndUndoes
Redoes
EndRedoes
EndUndoRedoHistory
Fore
SplineSet
369.965820312 352.4296875 m 0,0,1
 116.041015625 130.295898438 116.041015625 130.295898438 8.7705078125 -32.3564453125 c 0,2,3
 4.0029296875 -37.4423828125 4.0029296875 -37.4423828125 4.0029296875 -45.4228515625 c 128,-1,4
 4.0029296875 -53.404296875 4.0029296875 -53.404296875 4.3369140625 -56.7900390625 c 0,5,6
 7.052734375 -70.0791015625 7.052734375 -70.0791015625 14.951171875 -74.90625 c 0,7,8
 21.408203125 -75.9609375 21.408203125 -75.9609375 24.2333984375 -75.98046875 c 128,-1,9
 27.0595703125 -76 27.0595703125 -76 36.3154296875 -71.6259765625 c 0,10,11
 49.8017578125 -63.771484375 49.8017578125 -63.771484375 60.7763671875 -45.466796875 c 0,12,13
 157.908203125 106.63671875 157.908203125 106.63671875 402.62109375 320.572265625 c 0,14,15
 632.670898438 522.288085938 632.670898438 522.288085938 832.71875 645.500976562 c 0,16,17
 846.142578125 650.87109375 846.142578125 650.87109375 848.521484375 658.368164062 c 0,18,19
 852.66796875 672.529296875 852.66796875 672.529296875 848.724609375 684.264648438 c 128,-1,20
 844.780273438 696 844.780273438 696 831.918945312 696 c 0,21,22
 822.09375 696 822.09375 696 810.755859375 686.930664062 c 2,23,-1
 809.649414062 686.143554688 l 1,24,25
 611.491210938 563.723632812 611.491210938 563.723632812 369.965820312 352.4296875 c 0,0,1
374.643554688 569.469726562 m 0,26,27
 378.923828125 591.616210938 378.923828125 591.616210938 378.923828125 610.375 c 0,28,29
 378.923828125 639.146484375 378.923828125 639.146484375 367.350585938 662.751953125 c 0,30,31
 355.982421875 688 355.982421875 688 331.276367188 688 c 0,32,33
 315.056640625 688 315.056640625 688 295.1171875 675.314453125 c 2,34,-1
 285.780273438 669.375 l 1,35,-1
 285.666992188 669.302734375 l 1,36,-1
 279.08984375 665.119140625 l 1,37,-1
 277.076171875 671.270507812 l 1,38,39
 265.639648438 673.889648438 265.639648438 673.889648438 258.751953125 674.904296875 c 0,40,41
 254.634765625 673.9765625 254.634765625 673.9765625 247.418945312 670.303710938 c 0,42,43
 187.889648438 648.064453125 187.889648438 648.064453125 142.041015625 601.131835938 c 0,44,45
 97.7412109375 554.198242188 97.7412109375 554.198242188 83.1689453125 504.840820312 c 1,46,-1
 83.1689453125 503 l 1,47,-1
 83.1689453125 501.866210938 l 1,48,49
 78.0166015625 483.79296875 78.0166015625 483.79296875 78.0166015625 469.467773438 c 0,50,51
 78.0166015625 440.015625 78.0166015625 440.015625 98.6962890625 421.69921875 c 0,52,53
 124.965820312 398.931640625 124.965820312 398.931640625 174.243164062 398 c 0,54,55
 269.102539062 398.053710938 269.102539062 398.053710938 326.731445312 466.317382812 c 0,56,57
 356.223632812 502.931640625 356.223632812 502.931640625 369.653320312 545.4296875 c 0,58,59
 372.302734375 553.520507812 372.302734375 553.520507812 374.643554688 569.469726562 c 0,26,27
309.953125 539.6484375 m 0,60,61
 286.1328125 464.3125 286.1328125 464.3125 222.615234375 454.209960938 c 0,62,63
 208.565429688 452.200195312 208.565429688 452.200195312 196.489257812 452.200195312 c 0,64,65
 178.108398438 452.200195312 178.108398438 452.200195312 173.16015625 453.7109375 c 0,66,67
 160.6796875 457.521484375 160.6796875 457.521484375 151.284179688 466.577148438 c 0,68,69
 142.178710938 475.73828125 142.178710938 475.73828125 142.178710938 489.051757812 c 0,70,71
 142.178710938 496.787109375 142.178710938 496.787109375 144.418945312 505.1015625 c 2,72,-1
 144.418945312 507 l 1,73,-1
 144.418945312 508.197265625 l 1,74,75
 154.08203125 540.2109375 154.08203125 540.2109375 183.60546875 571.971679688 c 128,-1,76
 213.130859375 603.731445312 213.130859375 603.731445312 247.3515625 618.940429688 c 1,77,78
 250.806640625 625.704101562 250.806640625 625.704101562 254.360351562 629.008789062 c 128,-1,79
 257.912109375 632.314453125 257.912109375 632.314453125 264.14453125 632.314453125 c 128,-1,80
 270.376953125 632.314453125 270.376953125 632.314453125 273.6875 629.506835938 c 0,81,82
 277.423828125 626.337890625 277.423828125 626.337890625 278.020507812 622.494140625 c 0,83,84
 280.205078125 622.275390625 280.205078125 622.275390625 322.93359375 628.032226562 c 1,85,86
 319.375976562 575.078125 319.375976562 575.078125 316.015625 562.002929688 c 0,87,88
 312.028320312 546.485351562 312.028320312 546.485351562 309.953125 539.6484375 c 0,60,61
542.875 231.673828125 m 1,89,-1
 537.922851562 229.153320312 l 1,90,91
 519.448242188 233 519.448242188 233 515.520507812 233 c 0,92,93
 512.157226562 233 512.157226562 233 504.57421875 229.969726562 c 0,94,95
 449.862304688 210.03515625 449.862304688 210.03515625 407.271484375 166.522460938 c 0,96,97
 398.668945312 157.733398438 398.668945312 157.733398438 391.2890625 148.899414062 c 1,98,99
 117.280273438 70.4658203125 117.280273438 70.4658203125 391.145507812 148.728515625 c 1,100,101
 362.234375 114.05859375 362.234375 114.05859375 352.16796875 78.6923828125 c 0,102,103
 351.845703125 75.5537109375 351.845703125 75.5537109375 350.059570312 72.9931640625 c 0,104,105
 343.556640625 51.1181640625 343.556640625 51.1181640625 343.556640625 32.9375 c 0,106,107
 343.556640625 2.6298828125 343.556640625 2.6298828125 361.69140625 -17.3056640625 c 0,108,109
 385.250976562 -43 385.250976562 -43 430.829101562 -43 c 0,110,111
 444.154296875 -43 444.154296875 -43 465.340820312 -40.13671875 c 0,112,113
 538.11328125 -30.876953125 538.11328125 -30.876953125 591.301757812 34.2783203125 c 0,114,115
 621.87109375 71.6181640625 621.87109375 71.6181640625 636.875 119.4296875 c 0,116,117
 644.829101562 143.719726562 644.829101562 143.719726562 644.829101562 174.094726562 c 0,118,119
 644.829101562 203.25 644.829101562 203.25 628.690429688 226.537109375 c 0,120,121
 615.918945312 246.037109375 615.918945312 246.037109375 590.612304688 246.037109375 c 0,122,123
 589.580078125 246.037109375 589.580078125 246.037109375 588.510742188 246.006835938 c 2,124,-1
 588.017578125 246 l 2,125,126
 571.0234375 246 571.0234375 246 550.734375 235.673828125 c 2,127,-1
 542.875 231.673828125 l 1,89,-1
541.71875 53.9892578125 m 0,128,129
 515.229492188 19.1630859375 515.229492188 19.1630859375 479.466796875 13.2275390625 c 0,130,131
 450.31640625 8.583984375 450.31640625 8.583984375 432.251953125 13.5986328125 c 0,132,133
 421.818359375 16.4951171875 421.818359375 16.4951171875 410.657226562 26.435546875 c 0,134,135
 403.975585938 36.6376953125 403.975585938 36.6376953125 403.975585938 50.5673828125 c 0,136,137
 403.975585938 65.8134765625 403.975585938 65.8134765625 408.895507812 83.25390625 c 0,138,139
 417.364257812 111.271484375 417.364257812 111.271484375 445.3125 140.07421875 c 0,140,141
 472.564453125 168.161132812 472.564453125 168.161132812 505.809570312 181.291015625 c 0,142,143
 511.37890625 182.872070312 511.37890625 182.872070312 517.073242188 184.489257812 c 2,144,-1
 521.469726562 185.608398438 l 1,145,146
 534.07421875 182 534.07421875 182 537.543945312 182 c 128,-1,147
 541.013671875 182 541.013671875 182 577.5390625 186.920898438 c 1,148,-1
 577.5390625 175 l 1,149,-1
 577.5390625 162 l 2,150,151
 577.5390625 137.853515625 577.5390625 137.853515625 568.653320312 108.109375 c 0,152,153
 559.60546875 77.82421875 559.60546875 77.82421875 541.71875 53.9892578125 c 0,128,129
EndSplineSet
EndChar

StartChar: ampersand
Encoding: 38 38 9
AltUni2: 00ff06.ffffffff.0 00fe60.ffffffff.0 00ff06.ffffffff.0 00fe60.ffffffff.0
Width: 601
GlyphClass: 1
Flags: W
LayerCount: 2
UndoRedoHistory
Layer: 1
Undoes
UndoOperation
Index: 0
Type: 3
WasModified: 0
WasOrder2: 1
Layer: 2
EndUndoOperation
EndUndoes
Redoes
EndRedoes
EndUndoRedoHistory
Fore
SplineSet
217.590820312 366.689453125 m 0,0,1
 217.0859375 353.48046875 217.0859375 353.48046875 217.0859375 334.353515625 c 128,-1,3
 217.0859375 315.2265625 217.0859375 315.2265625 220.904296875 303.772460938 c 128,-1,5
 224.72265625 292.317382812 224.72265625 292.317382812 224.72265625 287 c 128,-1,7
 224.72265625 281.681640625 224.72265625 281.681640625 223.892578125 277.038085938 c 1,8,-1
 171.955078125 221.984375 l 1,9,-1
 171.3125 221.357421875 l 1,10,11
 32.1455078125 96.2294921875 32.1455078125 96.2294921875 7.875 15.65234375 c 0,12,13
 1.4169921875 -6.4912109375 1.4169921875 -6.4912109375 1.4169921875 -15.0556640625 c 0,14,15
 1.4169921875 -16.216796875 1.4169921875 -16.216796875 1.5595703125 -16.9404296875 c 0,16,17
 3.6767578125 -21.927734375 3.6767578125 -21.927734375 21.486328125 -34.5 c 0,18,19
 69.6455078125 -67.8408203125 69.6455078125 -67.8408203125 152.444335938 -67.8408203125 c 0,20,21
 174.045898438 -67.8408203125 174.045898438 -67.8408203125 197.987304688 -65.5703125 c 0,22,23
 316.033203125 -54.3740234375 316.033203125 -54.3740234375 417.16015625 4.109375 c 1,24,-1
 417.55078125 4.326171875 l 1,25,-1
 458.80078125 26.326171875 l 1,26,-1
 467.122070312 30.7646484375 l 1,27,-1
 474.359375 25.2265625 l 1,28,-1
 503.109375 3.2265625 l 1,29,-1
 504.0078125 2.5390625 l 1,30,31
 527.229492188 -24 527.229492188 -24 555.72265625 -24 c 2,32,-1
 580.708984375 -24 l 1,33,-1
 595.873046875 30.185546875 l 1,34,35
 593.94921875 31 593.94921875 31 590.09765625 31 c 0,36,37
 570.206054688 31 570.206054688 31 555.448242188 50.2685546875 c 1,38,-1
 540.95703125 64.759765625 l 1,39,-1
 533.975585938 71.7412109375 l 1,40,-1
 541.884765625 78.0693359375 l 1,41,-1
 580.729492188 109.145507812 l 1,42,-1
 548.489257812 146.08984375 l 1,43,-1
 537.736328125 138.5 l 1,44,-1
 536.874023438 137.890625 l 1,45,46
 509.971679688 124.977539062 509.971679688 124.977539062 503.807617188 122.989257812 c 128,-1,48
 497.64453125 121 497.64453125 121 493.876953125 121 c 0,49,50
 488.728515625 121 488.728515625 121 483.51953125 124.975585938 c 0,51,52
 470.0859375 135.23046875 470.0859375 135.23046875 417.350585938 186.038085938 c 128,-1,54
 364.615234375 236.845703125 364.615234375 236.845703125 344.280273438 260.211914062 c 2,55,-1
 324.356445312 282.126953125 l 1,56,-1
 318.995117188 288.024414062 l 1,57,-1
 324.385742188 293.905273438 l 1,58,-1
 351.885742188 323.905273438 l 1,59,-1
 352.963867188 324.9296875 l 1,60,61
 478.567382812 429.392578125 478.567382812 429.392578125 554.4609375 514.788085938 c 128,-1,63
 630.354492188 600.18359375 630.354492188 600.18359375 642.923828125 643.278320312 c 0,64,65
 652.805664062 677.159179688 652.805664062 677.159179688 652.805664062 694.96875 c 0,66,67
 652.805664062 699.575195312 652.805664062 699.575195312 652.133789062 702.889648438 c 0,68,69
 649.27734375 716.983398438 649.27734375 716.983398438 630.673828125 726.4921875 c 128,-1,71
 612.071289062 736 612.071289062 736 597.220703125 736 c 128,-1,73
 582.369140625 736 582.369140625 736 545.8515625 728.209960938 c 1,74,75
 494.743164062 721.553710938 494.743164062 721.553710938 415.5 670.350585938 c 128,-1,77
 336.256835938 619.147460938 336.256835938 619.147460938 286.049804688 560.368164062 c 0,78,79
 261.713867188 531.1640625 261.713867188 531.1640625 251.513671875 512.924804688 c 128,-1,81
 241.409179688 494.854492188 241.409179688 494.854492188 230.431640625 454.849609375 c 128,-1,83
 219.430664062 414.755859375 219.430664062 414.755859375 217.590820312 366.689453125 c 0,0,1
491.926757812 649.639648438 m 0,84,85
 542.771484375 673 542.771484375 673 561.438476562 673 c 0,86,87
 570.772460938 673 570.772460938 673 575.985351562 666.744140625 c 0,88,89
 579.272460938 662.799804688 579.272460938 662.799804688 579.272460938 655.194335938 c 128,-1,91
 579.272460938 647.588867188 579.272460938 647.588867188 568.34765625 628.850585938 c 0,92,93
 530.11328125 560.586914062 530.11328125 560.586914062 410.294921875 446.5703125 c 1,94,-1
 337.24609375 379.063476562 l 1,95,96
 325.045898438 369.913085938 325.045898438 369.913085938 317.247070312 365.456054688 c 128,-1,98
 309.448242188 361 309.448242188 361 303.676757812 361 c 0,99,100
 292.2421875 361 292.2421875 361 287.2734375 371.931640625 c 0,101,102
 281.947265625 383.6484375 281.947265625 383.6484375 281.947265625 396.279296875 c 0,103,104
 281.947265625 480.692382812 281.947265625 480.692382812 345.233398438 545.640625 c 128,-1,106
 408.594726562 610.665039062 408.594726562 610.665039062 491.926757812 649.639648438 c 0,84,85
309.990234375 8.58203125 m 128,-1,108
 264.54296875 -7 264.54296875 -7 205.510742188 -7 c 128,-1,110
 146.478515625 -7 146.478515625 -7 111.690429688 0.876953125 c 0,111,112
 88.36328125 6.158203125 88.36328125 6.158203125 80.6025390625 13.11328125 c 128,-1,114
 72.8408203125 20.0693359375 72.8408203125 20.0693359375 72.8408203125 27.2021484375 c 0,115,116
 72.8408203125 29.62109375 72.8408203125 29.62109375 73.6259765625 32.0283203125 c 0,117,118
 77.89453125 45.119140625 77.89453125 45.119140625 118.735351562 94.6376953125 c 128,-1,120
 159.575195312 144.157226562 159.575195312 144.157226562 206.51171875 182.763671875 c 1,121,-1
 265.141601562 236.883789062 l 1,122,-1
 366.743164062 129.240234375 l 1,123,-1
 419.543945312 79.3203125 l 1,124,125
 426.197265625 76.4775390625 426.197265625 76.4775390625 426.197265625 71.2646484375 c 128,-1,127
 426.197265625 66.05078125 426.197265625 66.05078125 423.126953125 63.1015625 c 0,128,129
 416.487304688 56.7236328125 416.487304688 56.7236328125 385.962890625 40.4443359375 c 128,-1,131
 355.438476562 24.1640625 355.438476562 24.1640625 309.990234375 8.58203125 c 128,-1,108
EndSplineSet
EndChar

StartChar: quotesingle
Encoding: 39 39 10
AltUni2: 00ff07.ffffffff.0 002032.ffffffff.0 002019.ffffffff.0 0002c8.ffffffff.0 0002bc.ffffffff.0 0002b9.ffffffff.0 00ff07.ffffffff.0 002032.ffffffff.0 002019.ffffffff.0 0002c8.ffffffff.0 0002bc.ffffffff.0 0002b9.ffffffff.0 000374.ffffffff.0
Width: 152
GlyphClass: 1
Flags: W
LayerCount: 2
UndoRedoHistory
Layer: 1
Undoes
UndoOperation
Index: 0
Type: 3
WasModified: 0
WasOrder2: 1
Layer: 2
EndUndoOperation
EndUndoes
Redoes
EndRedoes
EndUndoRedoHistory
Fore
SplineSet
299.981445312 766.798828125 m 0,0,1
 293.719726562 774 293.719726562 774 279.975585938 774 c 0,2,3
 266.232421875 774 266.232421875 774 253.247070312 764.810546875 c 0,4,5
 240.26171875 755.62109375 240.26171875 755.62109375 236.16796875 741.704101562 c 0,6,7
 215.418945312 671.155273438 215.418945312 671.155273438 206.314453125 629.27734375 c 0,8,9
 199.129882812 599.650390625 199.129882812 599.650390625 174.916015625 517.694335938 c 0,10,11
 173.583007812 513.165039062 173.583007812 513.165039062 173.583007812 507.733398438 c 0,12,13
 173.583007812 502.301757812 173.583007812 502.301757812 178.931640625 496.150390625 c 0,14,15
 184.280273438 490 184.280273438 490 198.024414062 490 c 0,16,17
 211.767578125 490 211.767578125 490 224.752929688 499.189453125 c 0,18,19
 237.73828125 508.37890625 237.73828125 508.37890625 241.83203125 522.295898438 c 0,20,21
 258.015625 579.065429688 258.015625 579.065429688 272.986328125 633.954101562 c 0,22,23
 279.322265625 662.263671875 279.322265625 662.263671875 303.057617188 746.211914062 c 0,24,25
 304.416992188 750.833984375 304.416992188 750.833984375 304.416992188 756.265625 c 0,26,27
 304.416992188 761.698242188 304.416992188 761.698242188 299.981445312 766.798828125 c 0,0,1
EndSplineSet
EndChar

StartChar: parenleft
Encoding: 40 40 11
AltUni2: 00ff08.ffffffff.0 00fe59.ffffffff.0 00fe35.ffffffff.0 00208d.ffffffff.0 00207d.ffffffff.0 00ff08.ffffffff.0 00fe59.ffffffff.0 00fe35.ffffffff.0 00208d.ffffffff.0 00207d.ffffffff.0
Width: 332
GlyphClass: 1
Flags: W
LayerCount: 2
UndoRedoHistory
Layer: 1
Undoes
UndoOperation
Index: 0
Type: 3
WasModified: 0
WasOrder2: 1
Layer: 2
EndUndoOperation
EndUndoes
Redoes
EndRedoes
EndUndoRedoHistory
Fore
SplineSet
483.1015625 694.255859375 m 0,0,1
 499.623046875 700.107421875 499.623046875 700.107421875 510.194335938 712.579101562 c 0,2,3
 520.765625 725.05078125 520.765625 725.05078125 520.765625 734.259765625 c 0,4,5
 520.765625 748.65234375 520.765625 748.65234375 506.9609375 754.173828125 c 0,6,7
 501.750976562 756.555664062 501.750976562 756.555664062 498.681640625 756.555664062 c 0,8,9
 488.634765625 756.555664062 488.634765625 756.555664062 479.38671875 754.518554688 c 0,10,11
 374.548828125 720.540039062 374.548828125 720.540039062 281.978515625 610.428710938 c 0,12,13
 209.091796875 523.459960938 209.091796875 523.459960938 149.610351562 391.608398438 c 0,14,15
 108.620117188 301.181640625 108.620117188 301.181640625 82.5419921875 208.791015625 c 0,16,17
 46.447265625 82.109375 46.447265625 82.109375 46.447265625 11.9619140625 c 0,18,19
 46.447265625 7.498046875 46.447265625 7.498046875 46.59375 3.2822265625 c 0,20,21
 52.662109375 -129.743164062 52.662109375 -129.743164062 157.986328125 -214.970703125 c 0,22,23
 165.051757812 -221 165.051757812 -221 175.348632812 -221 c 0,24,25
 194.44921875 -221 194.44921875 -221 211.51171875 -206.930664062 c 0,26,27
 225.936523438 -195.389648438 225.936523438 -195.389648438 225.936523438 -177.923828125 c 0,28,29
 225.936523438 -168.729492188 225.936523438 -168.729492188 218.82421875 -162.916992188 c 0,30,31
 132.459960938 -90.8212890625 132.459960938 -90.8212890625 122.8671875 25.43359375 c 0,32,33
 122.848632812 32 122.848632812 32 122.359375 38.6748046875 c 0,34,35
 122.359375 94.8447265625 122.359375 94.8447265625 154.395507812 210.17578125 c 0,36,37
 179.586914062 297.842773438 179.586914062 297.842773438 219.846679688 386.4140625 c 0,38,39
 275.354492188 507.522460938 275.354492188 507.522460938 343.047851562 589.775390625 c 0,40,41
 410.741210938 672.029296875 410.741210938 672.029296875 483.1015625 694.255859375 c 0,0,1
EndSplineSet
Substitution2: "'rtla' Right to Left Alternates lookup 0 subtable" parenright
EndChar

StartChar: parenright
Encoding: 41 41 12
AltUni2: 00ff09.ffffffff.0 00fe5a.ffffffff.0 00fe36.ffffffff.0 00208e.ffffffff.0 00207e.ffffffff.0 00ff09.ffffffff.0 00fe5a.ffffffff.0 00fe36.ffffffff.0 00208e.ffffffff.0 00207e.ffffffff.0
Width: 299
GlyphClass: 1
Flags: W
LayerCount: 2
UndoRedoHistory
Layer: 1
Undoes
UndoOperation
Index: 0
Type: 3
WasModified: 0
WasOrder2: 1
Layer: 2
EndUndoOperation
EndUndoes
Redoes
EndRedoes
EndUndoRedoHistory
Fore
SplineSet
299.791992188 758 m 0,0,1
 289.450195312 758 289.450195312 758 277.393554688 752.38671875 c 0,2,3
 256.90625 742.528320312 256.90625 742.528320312 250.669921875 722.5703125 c 0,4,5
 249.635742188 719.26171875 249.635742188 719.26171875 249.635742188 715.436523438 c 0,6,7
 249.635742188 712.108398438 249.635742188 712.108398438 252.670898438 706.670898438 c 0,8,9
 295.536132812 619.932617188 295.536132812 619.932617188 312.9453125 556.791015625 c 0,10,11
 330.354492188 493.6484375 330.354492188 493.6484375 330.354492188 428.544921875 c 0,12,13
 330.354492188 417.081054688 330.354492188 417.081054688 329.78515625 405.663085938 c 0,14,15
 328.489257812 366.666015625 328.489257812 366.666015625 311.96875 309.733398438 c 0,16,17
 279.23828125 194.924804688 279.23828125 194.924804688 225.063476562 96.115234375 c 0,18,19
 112.473632812 -125.465820312 112.473632812 -125.465820312 -30.513671875 -204.177734375 c 0,20,21
 -49.1357421875 -214.9765625 -49.1357421875 -214.9765625 -54.2978515625 -232.321289062 c 0,22,23
 -55.2080078125 -235.479492188 -55.2080078125 -235.479492188 -55.2080078125 -240.306640625 c 0,24,25
 -55.2080078125 -245.133789062 -55.2080078125 -245.133789062 -51.3525390625 -251.818359375 c 0,26,27
 -45.8603515625 -261.233398438 -45.8603515625 -261.233398438 -27.4228515625 -261.999023438 c 0,28,29
 -17.2333984375 -261.915039062 -17.2333984375 -261.915039062 -4.783203125 -254.756835938 c 0,30,31
 89.3984375 -202.895507812 89.3984375 -202.895507812 168.036132812 -105.581054688 c 0,32,33
 236.185546875 -23.306640625 236.185546875 -23.306640625 293.223632812 87.79296875 c 0,34,35
 351.588867188 200.052734375 351.588867188 200.052734375 383.854492188 313.229492188 c 0,36,37
 402.361328125 379.362304688 402.361328125 379.362304688 406.060546875 423.567382812 c 0,38,39
 406.870117188 444.953125 406.870117188 444.953125 406.875 452.27734375 c 0,40,41
 406.875 524.177734375 406.875 524.177734375 386.366210938 594.729492188 c 0,42,43
 365.372070312 663.884765625 365.372070312 663.884765625 323.239257812 745.176757812 c 0,44,45
 316.965820312 758 316.965820312 758 299.791992188 758 c 0,0,1
EndSplineSet
Substitution2: "'rtla' Right to Left Alternates lookup 0 subtable" parenleft
EndChar

StartChar: asterisk
Encoding: 42 42 13
AltUni2: 00ff0a.ffffffff.0 00fe61.ffffffff.0 002731.ffffffff.0 002217.ffffffff.0 00ff0a.ffffffff.0 00fe61.ffffffff.0 002731.ffffffff.0 002217.ffffffff.0
Width: 466
GlyphClass: 1
Flags: W
LayerCount: 2
UndoRedoHistory
Layer: 1
Undoes
UndoOperation
Index: 0
Type: 3
WasModified: 0
WasOrder2: 1
Layer: 2
EndUndoOperation
EndUndoes
Redoes
EndRedoes
EndUndoRedoHistory
Fore
SplineSet
447.27734375 350.581054688 m 0,0,1
 454.586914062 347 454.586914062 347 460.939453125 347 c 0,2,3
 483.575195312 347 483.575195312 347 501.890625 367.7578125 c 0,4,5
 509.298828125 375.751953125 509.298828125 375.751953125 510.661132812 381.202148438 c 0,6,7
 512.0234375 386.651367188 512.0234375 386.651367188 512.10546875 392.362304688 c 0,8,9
 510.194335938 403.2734375 510.194335938 403.2734375 500.344726562 408.58984375 c 0,10,11
 472.217773438 422.588867188 472.217773438 422.588867188 433.446289062 462.911132812 c 2,12,-1
 414.793945312 481.810546875 l 1,13,-1
 397.119140625 499.721679688 l 1,14,15
 458.080078125 495.970703125 458.080078125 495.970703125 458.080078125 495.970703125 c 0,16,17
 512.362304688 492.79296875 512.362304688 492.79296875 538.875 478.412109375 c 0,18,19
 550.071289062 472.999023438 550.071289062 472.999023438 565.919921875 477.225585938 c 0,20,21
 580.928710938 481.228515625 580.928710938 481.228515625 594.73828125 496.131835938 c 0,22,23
 601.677734375 503.270507812 601.677734375 503.270507812 602.768554688 507.633789062 c 0,24,25
 603.860351562 511.998046875 603.860351562 511.998046875 603.860351562 514.740234375 c 0,26,27
 603.860351562 529.935546875 603.860351562 529.935546875 590.572265625 536.477539062 c 0,28,29
 557.797851562 552.396484375 557.797851562 552.396484375 500.293945312 559.10546875 c 2,30,-1
 500.16796875 559.120117188 l 1,31,-1
 477.54296875 562.13671875 l 1,32,-1
 451.153320312 565.655273438 l 1,33,34
 514.865234375 609.342773438 514.865234375 609.342773438 554.522460938 641.069335938 c 0,35,36
 572.495117188 655.447265625 572.495117188 655.447265625 572.813476562 671.71875 c 0,37,38
 572.813476562 679.86328125 572.813476562 679.86328125 565.323242188 686.431640625 c 0,39,40
 557.833984375 693 557.833984375 693 543.720703125 693 c 0,41,42
 529.608398438 693 529.608398438 693 514.53125 681.798828125 c 0,43,44
 510.44140625 678.54296875 510.44140625 678.54296875 489.422851562 662.717773438 c 0,45,46
 468.3125 646.822265625 468.3125 646.822265625 440.36328125 624.9609375 c 0,47,48
 399.0390625 592.637695312 399.0390625 592.637695312 352.641601562 559.231445312 c 1,49,50
 295.673828125 639.86328125 295.673828125 639.86328125 277.807617188 680.69921875 c 0,51,52
 273.805664062 689.6640625 273.805664062 689.6640625 261.481445312 692.31640625 c 0,53,54
 258.017578125 693 258.017578125 693 254.610351562 693 c 0,55,56
 245.489257812 693 245.489257812 693 233.39453125 687.35546875 c 0,57,58
 211.795898438 677.482421875 211.795898438 677.482421875 205.420898438 658.366210938 c 0,59,60
 204.252929688 654.939453125 204.252929688 654.939453125 204.252929688 650.99609375 c 0,61,62
 204.252929688 647.255859375 204.252929688 647.255859375 206.471679688 642.16015625 c 0,63,64
 213.749023438 624.6953125 213.749023438 624.6953125 262.3671875 541.012695312 c 1,65,66
 189.734375 537.051757812 189.734375 537.051757812 180.0234375 537.000976562 c 0,67,68
 163.163085938 536.125 163.163085938 536.125 149.171875 526.53125 c 0,69,70
 135.180664062 516.9375 135.180664062 516.9375 132.052734375 505.733398438 c 0,71,72
 131.815429688 503.182617188 131.815429688 503.182617188 130.2578125 500.661132812 c 0,73,74
 129.284179688 495.0703125 129.284179688 495.0703125 129.259765625 493.145507812 c 0,75,76
 129.259765625 485.612304688 129.259765625 485.612304688 134.04296875 480.435546875 c 0,77,78
 140.913085938 473 140.913085938 473 153.360351562 473 c 2,79,-1
 155.860351562 473 l 1,80,-1
 157.110351562 473 l 2,81,82
 167.821289062 473 167.821289062 473 258.5078125 479.174804688 c 1,83,84
 198.751953125 428.182617188 198.751953125 428.182617188 167.533203125 401.208984375 c 0,85,86
 151.877929688 387.43359375 151.877929688 387.43359375 151.624023438 371.549804688 c 0,87,88
 151.624023438 362.275390625 151.624023438 362.275390625 158.829101562 356.637695312 c 0,89,90
 166.034179688 351 166.034179688 351 175.860351562 351 c 0,91,92
 196.705078125 351 196.705078125 351 212.374023438 364.34375 c 2,93,-1
 262.381835938 406.850585938 l 2,94,95
 292.791015625 432.666992188 292.791015625 432.666992188 324.569335938 462.576171875 c 1,96,-1
 341.268554688 442.537109375 l 2,97,98
 399.663085938 373.436523438 399.663085938 373.436523438 447.27734375 350.581054688 c 0,0,1
EndSplineSet
EndChar

StartChar: plus
Encoding: 43 43 14
AltUni2: 00ff0b.ffffffff.0 00fe62.ffffffff.0 00fb29.ffffffff.0 00208a.ffffffff.0 00207a.ffffffff.0 00ff0b.ffffffff.0 00fe62.ffffffff.0 00fb29.ffffffff.0 00208a.ffffffff.0 00207a.ffffffff.0
Width: 591
GlyphClass: 1
Flags: W
LayerCount: 2
UndoRedoHistory
Layer: 1
Undoes
UndoOperation
Index: 0
Type: 3
WasModified: 0
WasOrder2: 1
Layer: 2
EndUndoOperation
EndUndoes
Redoes
EndRedoes
EndUndoRedoHistory
Fore
SplineSet
128.46484375 244 m 0,0,1
 157.4609375 244 157.4609375 244 185.828125 244.983398438 c 0,2,3
 234.287109375 247.971679688 234.287109375 247.971679688 335.352539062 257.625 c 1,4,-1
 331.2578125 243.704101562 l 1,5,-1
 326.2578125 226.704101562 l 2,6,7
 319.676757812 204.767578125 319.676757812 204.767578125 315.221679688 176.623046875 c 0,8,9
 306.768554688 127.591796875 306.768554688 127.591796875 306.768554688 90.7822265625 c 0,10,11
 306.768554688 53.9716796875 306.768554688 53.9716796875 311.474609375 26.361328125 c 0,12,13
 313.087890625 17.3271484375 313.087890625 17.3271484375 322.517578125 12.8125 c 0,14,15
 327.83984375 11 327.83984375 11 333.4296875 11 c 0,16,17
 339.01953125 11 339.01953125 11 345.424804688 13.1962890625 c 0,18,19
 358.573242188 17.7041015625 358.573242188 17.7041015625 367.231445312 29.2890625 c 0,20,21
 375.755859375 40.201171875 375.755859375 40.201171875 375.755859375 48.3330078125 c 0,22,23
 375.755859375 49.91015625 375.755859375 49.91015625 375.479492188 51.498046875 c 0,24,25
 363.943359375 109.048828125 363.943359375 109.048828125 379.243164062 186.569335938 c 2,26,-1
 394.551757812 262.278320312 l 1,27,28
 447.28125 266 447.28125 266 490.33984375 266 c 2,29,-1
 491.58984375 266 l 2,30,31
 492.009765625 266 492.009765625 266 492.1484375 265.990234375 c 0,32,33
 581.391601562 262.840820312 581.391601562 262.840820312 624.643554688 233.645507812 c 0,34,35
 630.291015625 229.7734375 630.291015625 229.7734375 638.4765625 229.00390625 c 0,36,37
 656.19140625 229.216796875 656.19140625 229.216796875 670.96484375 242.611328125 c 0,38,39
 678.204101562 249.126953125 678.204101562 249.126953125 680.711914062 258.4296875 c 0,40,41
 681.984375 262.501953125 681.984375 262.501953125 681.984375 265.97265625 c 0,42,43
 681.984375 274.560546875 681.984375 274.560546875 673.461914062 280.405273438 c 0,44,45
 620.599609375 316.116210938 620.599609375 316.116210938 516.296875 320 c 0,46,47
 471.809570312 319.993164062 471.809570312 319.993164062 411.58984375 317.240234375 c 1,48,49
 434.405273438 390.249023438 434.405273438 390.249023438 449.293945312 446.333007812 c 0,50,51
 464.18359375 502.416992188 464.18359375 502.416992188 469.123046875 547.749023438 c 0,52,53
 469.220703125 549.651367188 469.220703125 549.651367188 469.220703125 550.28515625 c 0,54,55
 469.220703125 559.755859375 469.220703125 559.755859375 462.818359375 564.877929688 c 0,56,57
 456.415039062 570 456.415039062 570 447.83984375 570 c 0,58,59
 432.045898438 570 432.045898438 570 417.047851562 557.239257812 c 0,60,61
 408.314453125 549.442382812 408.314453125 549.442382812 406.418945312 540.346679688 c 0,62,63
 405.33984375 536.868164062 405.33984375 536.868164062 405.33984375 536 c 2,64,-1
 405.295898438 535.16015625 l 1,65,66
 400.227539062 486.506835938 400.227539062 486.506835938 387.5546875 439.869140625 c 0,67,68
 382.51171875 421.715820312 382.51171875 421.715820312 375.015625 397.225585938 c 2,69,-1
 356.168945312 331.419921875 l 1,70,-1
 351.168945312 316.419921875 l 1,71,-1
 348.6953125 309 l 1,72,-1
 339.08984375 309 l 1,73,-1
 330.513671875 309 l 1,74,-1
 329.263671875 308 l 1,75,-1
 324.08984375 308 l 1,76,-1
 316.58984375 308 l 1,77,78
 253.765625 302.02734375 253.765625 302.02734375 203.786132812 299.028320312 c 2,79,-1
 203.443359375 299.01171875 l 2,80,81
 140.694335938 296.62109375 140.694335938 296.62109375 110.333007812 299.049804688 c 0,82,83
 99.9482421875 299.880859375 99.9482421875 299.880859375 97.6328125 299.999023438 c 0,84,85
 87.18359375 299.9375 87.18359375 299.9375 74.2421875 292.456054688 c 0,86,87
 61.30078125 284.975585938 61.30078125 284.975585938 56.2109375 270.538085938 c 0,88,89
 53.6162109375 261.262695312 53.6162109375 261.262695312 58.4052734375 253.919921875 c 0,90,91
 63.193359375 246.577148438 63.193359375 246.577148438 73.7412109375 245.974609375 c 2,92,-1
 74.037109375 245.955078125 l 2,93,94
 99.69140625 244 99.69140625 244 128.46484375 244 c 0,0,1
EndSplineSet
EndChar

StartChar: comma
Encoding: 44 44 15
AltUni2: 00ff0c.ffffffff.0 00fe50.ffffffff.0 00fe10.ffffffff.0 003001.ffffffff.0 00066c.ffffffff.0 00ff0c.ffffffff.0 00fe50.ffffffff.0 00fe10.ffffffff.0 003001.ffffffff.0 00066c.ffffffff.0 00fe11.ffffffff.0 00fe51.ffffffff.0 00ff64.ffffffff.0
Width: 212
GlyphClass: 1
Flags: W
LayerCount: 2
UndoRedoHistory
Layer: 1
Undoes
UndoOperation
Index: 0
Type: 3
WasModified: 0
WasOrder2: 1
Layer: 2
EndUndoOperation
EndUndoes
Redoes
EndRedoes
EndUndoRedoHistory
Fore
SplineSet
41.8466796875 -103.66015625 m 0,0,1
 22.2138671875 -117.122070312 22.2138671875 -117.122070312 22.2138671875 -138.265625 c 0,2,3
 22.2138671875 -143.923828125 22.2138671875 -143.923828125 28.1962890625 -150.961914062 c 0,4,5
 34.1787109375 -158 34.1787109375 -158 47.9169921875 -158 c 0,6,7
 61.654296875 -158 61.654296875 -158 76.9892578125 -147.368164062 c 0,8,9
 120.083007812 -118.802734375 120.083007812 -118.802734375 147.000976562 -94.33203125 c 0,10,11
 183.616210938 -62.205078125 183.616210938 -62.205078125 194.133789062 -25.74609375 c 0,12,13
 197.275390625 -14.4345703125 197.275390625 -14.4345703125 197.275390625 -1.6240234375 c 0,14,15
 197.275390625 11.1875 197.275390625 11.1875 192.912109375 25.6484375 c 0,16,17
 184.641601562 53.05859375 184.641601562 53.05859375 155.58984375 89.857421875 c 0,18,19
 149.059570312 99 149.059570312 99 134.846679688 99 c 0,20,21
 120.96484375 99 120.96484375 99 105.473632812 89.6015625 c 0,22,23
 84.49609375 76.8740234375 84.49609375 76.8740234375 84.49609375 56.5 c 0,24,25
 84.49609375 49.3818359375 84.49609375 49.3818359375 88.3212890625 44.09375 c 0,26,27
 114.241210938 9.87109375 114.241210938 9.87109375 118.232421875 -2.8994140625 c 0,28,29
 122.22265625 -15.669921875 122.22265625 -15.669921875 122.22265625 -22 c 0,30,31
 122.22265625 -28.330078125 122.22265625 -28.330078125 120.94140625 -32.4296875 c 0,32,33
 117.771484375 -42.57421875 117.771484375 -42.57421875 99.45703125 -60.6064453125 c 1,34,35
 73.6328125 -82.2998046875 73.6328125 -82.2998046875 41.8466796875 -103.66015625 c 0,0,1
EndSplineSet
EndChar

StartChar: hyphen
Encoding: 45 45 16
AltUni2: 00ff0d.ffffffff.0 00fe63.ffffffff.0 002212.ffffffff.0 002015.ffffffff.0 002014.ffffffff.0 002013.ffffffff.0 002012.ffffffff.0 002010.ffffffff.0 00ff0d.ffffffff.0 00fe63.ffffffff.0 002212.ffffffff.0 002015.ffffffff.0 002014.ffffffff.0 002013.ffffffff.0 002012.ffffffff.0 002010.ffffffff.0 002011.ffffffff.0 00207b.ffffffff.0 00208b.ffffffff.0 002500.ffffffff.0 00fe31.ffffffff.0 00fe32.ffffffff.0 00fe58.ffffffff.0
Width: 353
GlyphClass: 1
Flags: W
LayerCount: 2
UndoRedoHistory
Layer: 1
Undoes
UndoOperation
Index: 0
Type: 3
WasModified: 0
WasOrder2: 1
Layer: 2
EndUndoOperation
EndUndoes
Redoes
EndRedoes
EndUndoRedoHistory
Fore
SplineSet
199.125 332.985351562 m 2,0,1
 215.141601562 332 215.141601562 332 260.109375 332 c 0,2,3
 310.365234375 332 310.365234375 332 324.877929688 330.930664062 c 0,4,5
 368.126953125 326.860351562 368.126953125 326.860351562 389.21484375 321.650390625 c 0,6,7
 412.901367188 317.010742188 412.901367188 317.010742188 418.786132812 293.46875 c 0,8,9
 420.487304688 286.665039062 420.487304688 286.665039062 420.487304688 275.88671875 c 0,10,11
 420.487304688 265.107421875 420.487304688 265.107421875 413.962890625 248.704101562 c 0,12,13
 402.798828125 225.259765625 402.798828125 225.259765625 385.094726562 212.14453125 c 0,14,15
 367.389648438 199.030273438 367.389648438 199.030273438 350.787109375 199.030273438 c 0,16,17
 345.333984375 199.030273438 345.333984375 199.030273438 327.13671875 202.552734375 c 0,18,19
 308.938476562 206.075195312 308.938476562 206.075195312 288.91015625 207.017578125 c 2,20,-1
 288.604492188 207.03515625 l 2,21,22
 274.126953125 208 274.126953125 208 227.9140625 208 c 0,23,24
 181.702148438 208 181.702148438 208 163.751953125 209.025390625 c 2,25,-1
 163.474609375 209.043945312 l 2,26,27
 119.340820312 212.354492188 119.340820312 212.354492188 90.703125 219.510742188 c 0,28,29
 68.560546875 225.415039062 68.560546875 225.415039062 63.57421875 249.346679688 c 0,30,31
 62.279296875 255.564453125 62.279296875 255.564453125 62.279296875 266.247070312 c 0,32,33
 62.279296875 276.928710938 62.279296875 276.928710938 69.0419921875 293.16015625 c 0,34,35
 78.8427734375 316.680664062 78.8427734375 316.680664062 97.2451171875 329.825195312 c 0,36,37
 115.646484375 342.969726562 115.646484375 342.969726562 132.234375 342.969726562 c 0,38,39
 138.553710938 342.969726562 138.553710938 342.969726562 144.2890625 341.2890625 c 0,40,41
 167.2890625 333.928710938 167.2890625 333.928710938 198.874023438 332.993164062 c 2,42,-1
 199.125 332.985351562 l 2,0,1
EndSplineSet
EndChar

StartChar: period
Encoding: 46 46 17
AltUni2: 00ff0e.ffffffff.0 00fe52.ffffffff.0 002024.ffffffff.0 00ff0e.ffffffff.0 00fe52.ffffffff.0 002024.ffffffff.0
Width: 182
GlyphClass: 1
Flags: W
LayerCount: 2
UndoRedoHistory
Layer: 1
Undoes
UndoOperation
Index: 0
Type: 3
WasModified: 0
WasOrder2: 1
Layer: 2
EndUndoOperation
EndUndoes
Redoes
EndRedoes
EndUndoRedoHistory
Fore
SplineSet
175.444335938 53.25390625 m 0,0,1
 177.625 60.8134765625 177.625 60.8134765625 177.625 69.859375 c 0,2,3
 177.625 78.9052734375 177.625 78.9052734375 174.172851562 91.8212890625 c 0,4,5
 167.590820312 114.569335938 167.590820312 114.569335938 152.879882812 124.657226562 c 0,6,7
 145.54296875 130.526367188 145.54296875 130.526367188 132.206054688 130.526367188 c 0,8,9
 115.62109375 130.526367188 115.62109375 130.526367188 98.4609375 118.549804688 c 0,10,11
 85.943359375 109.334960938 85.943359375 109.334960938 80.736328125 96.83984375 c 0,12,13
 78.439453125 91.3271484375 78.439453125 91.3271484375 74.9609375 81.169921875 c 0,14,15
 73.734375 71.0830078125 73.734375 71.0830078125 71.375 45.625 c 1,16,-1
 71.375 33.3369140625 l 1,17,-1
 72.61328125 26.44140625 l 1,18,19
 73.4775390625 10.5263671875 73.4775390625 10.5263671875 89.556640625 5.71484375 c 0,20,21
 102.512695312 3.982421875 102.512695312 3.982421875 108.78125 3.0107421875 c 0,22,23
 119.143554688 3.2109375 119.143554688 3.2109375 132.799804688 8.2265625 c 0,24,25
 165.6328125 19.2412109375 165.6328125 19.2412109375 175.444335938 53.25390625 c 0,0,1
EndSplineSet
EndChar

StartChar: slash
Encoding: 47 47 18
AltUni2: 00ff0f.ffffffff.0 002215.ffffffff.0 00ff0f.ffffffff.0 002215.ffffffff.0
Width: 418
GlyphClass: 1
Flags: W
LayerCount: 2
UndoRedoHistory
Layer: 1
Undoes
UndoOperation
Index: 0
Type: 3
WasModified: 0
WasOrder2: 1
Layer: 2
EndUndoOperation
EndUndoes
Redoes
EndRedoes
EndUndoRedoHistory
Fore
SplineSet
-36.103515625 -116.514648438 m 0,0,1
 -31.78515625 -124 -31.78515625 -124 -19.6748046875 -124 c 0,2,3
 -7.564453125 -124 -7.564453125 -124 4.4345703125 -117.088867188 c 0,4,5
 16.43359375 -110.176757812 16.43359375 -110.176757812 21.46484375 -100.16796875 c 1,6,-1
 21.46484375 -99.37109375 l 1,7,8
 106.258789062 104.134765625 106.258789062 104.134765625 258.782226562 313.524414062 c 0,9,10
 411.163085938 522.71875 411.163085938 522.71875 606.826171875 705.3671875 c 0,11,12
 618.201171875 716.814453125 618.201171875 716.814453125 618.201171875 730.416992188 c 0,13,14
 618.201171875 738.302734375 618.201171875 738.302734375 611.17578125 743.172851562 c 0,15,16
 602.282226562 746.688476562 602.282226562 746.688476562 597.71484375 747 c 0,17,18
 580.18359375 747 580.18359375 747 567.250976562 734.537109375 c 0,19,20
 365.453125 544.19921875 365.453125 544.19921875 207.254882812 328.451171875 c 0,21,22
 49.173828125 112.864257812 49.173828125 112.864257812 -36.9443359375 -95.8173828125 c 0,23,24
 -43.291015625 -105.97265625 -43.291015625 -105.97265625 -36.103515625 -116.514648438 c 0,0,1
EndSplineSet
EndChar

StartChar: zero
Encoding: 48 48 19
AltUni2: 00ff10.ffffffff.0 002080.ffffffff.0 002070.ffffffff.0 00ff10.ffffffff.0 002080.ffffffff.0 002070.ffffffff.0
Width: 437
GlyphClass: 1
Flags: W
LayerCount: 2
UndoRedoHistory
Layer: 1
Undoes
UndoOperation
Index: 0
Type: 3
WasModified: 1
WasOrder2: 1
Layer: 2
EndUndoOperation
EndUndoes
Redoes
EndRedoes
EndUndoRedoHistory
Fore
SplineSet
312.034179688 619 m 1,0,1
 265.784179688 569 265.784179688 569 213.284179688 479 c 0,2,3
 147.034179688 366 147.034179688 366 120.784179688 275 c 0,4,5
 87.0341796875 168 87.0341796875 168 117.034179688 112 c 0,6,7
 148.284179688 53 148.284179688 53 264.534179688 63 c 0,8,9
 337.034179688 69 337.034179688 69 405.784179688 169 c 0,10,11
 475.784179688 273 475.784179688 273 493.284179688 401 c 0,12,13
 513.284179688 533 513.284179688 533 469.534179688 598 c 0,14,15
 427.034179688 661 427.034179688 661 325.784179688 622 c 0,16,17
 319.534179688 619 319.534179688 619 312.034179688 619 c 1,0,1
293.284179688 671 m 1,18,19
 299.534179688 677 299.534179688 677 308.284179688 680 c 0,20,21
 469.534179688 742 469.534179688 742 539.534179688 640 c 0,22,23
 594.534179688 558 594.534179688 558 572.034179688 409 c 0,24,25
 548.284179688 262 548.284179688 262 470.784179688 149 c 0,26,27
 429.534179688 86 429.534179688 86 379.534179688 49 c 0,28,29
 319.534179688 4 319.534179688 4 254.534179688 -2 c 0,30,31
 94.5341796875 -16 94.5341796875 -16 44.5341796875 74 c 0,32,33
 5.7841796875 148 5.7841796875 148 44.5341796875 276 c 0,34,35
 73.2841796875 374 73.2841796875 374 144.534179688 496 c 0,36,37
 205.784179688 599 205.784179688 599 259.534179688 655 c 0,38,39
 275.784179688 669 275.784179688 669 293.284179688 671 c 1,18,19
EndSplineSet
EndChar

StartChar: one
Encoding: 49 49 20
AltUni2: 00ff11.ffffffff.0 002081.ffffffff.0 0000b9.ffffffff.0 00ff11.ffffffff.0 002081.ffffffff.0 0000b9.ffffffff.0
Width: 283
GlyphClass: 1
Flags: W
LayerCount: 2
UndoRedoHistory
Layer: 1
Undoes
UndoOperation
Index: 0
Type: 3
WasModified: 1
WasOrder2: 1
Layer: 2
EndUndoOperation
EndUndoes
Redoes
EndRedoes
EndUndoRedoHistory
Fore
SplineSet
262.334960938 602 m 0,0,1
 298.584960938 633 298.584960938 633 343.584960938 669 c 0,2,3
 391.084960938 704 391.084960938 704 396.084960938 707 c 0,4,5
 398.584960938 709 398.584960938 709 419.834960938 721 c 0,6,7
 423.584960938 723 423.584960938 723 434.834960938 727 c 128,-1,8
 446.084960938 731 446.084960938 731 457.334960938 730 c 0,9,10
 474.834960938 729 474.834960938 729 481.709960938 717 c 128,-1,11
 488.584960938 705 488.584960938 705 479.834960938 691 c 1,12,-1
 479.834960938 690 l 1,13,-1
 479.834960938 689 l 2,14,15
 479.834960938 688 479.834960938 688 477.959960938 686 c 128,-1,16
 476.084960938 684 476.084960938 684 476.084960938 683 c 0,17,18
 474.834960938 680 474.834960938 680 463.584960938 662 c 0,19,20
 448.584960938 633 448.584960938 633 429.834960938 599 c 0,21,22
 429.834960938 598 429.834960938 598 427.334960938 596 c 0,23,24
 396.084960938 540 396.084960938 540 379.834960938 514 c 0,25,26
 254.834960938 308 254.834960938 308 176.084960938 31 c 1,27,28
 179.834960938 32 179.834960938 32 186.709960938 33.5 c 128,-1,29
 193.584960938 35 193.584960938 35 197.334960938 36 c 0,30,31
 213.584960938 40 213.584960938 40 224.834960938 34 c 128,-1,32
 236.084960938 28 236.084960938 28 237.334960938 15 c 128,-1,33
 238.584960938 2 238.584960938 2 227.959960938 -10 c 128,-1,34
 217.334960938 -22 217.334960938 -22 201.084960938 -26 c 0,35,36
 184.834960938 -31 184.834960938 -31 154.834960938 -36 c 0,37,38
 151.084960938 -36 151.084960938 -36 151.084960938 -37 c 0,39,40
 107.334960938 -45 107.334960938 -45 57.3349609375 -66 c 0,41,42
 41.0849609375 -73 41.0849609375 -73 27.3349609375 -69.5 c 128,-1,43
 13.5849609375 -66 13.5849609375 -66 8.5849609375 -55 c 0,44,45
 3.5849609375 -43 3.5849609375 -43 11.0849609375 -30 c 128,-1,46
 18.5849609375 -17 18.5849609375 -17 34.8349609375 -10 c 0,47,48
 78.5849609375 9 78.5849609375 9 96.0849609375 14 c 0,49,50
 96.0849609375 17 96.0849609375 17 98.5849609375 24 c 0,51,52
 181.084960938 312 181.084960938 312 313.584960938 531 c 0,53,54
 316.084960938 536 316.084960938 536 320.459960938 544.5 c 128,-1,55
 324.834960938 553 324.834960938 553 333.584960938 567.5 c 128,-1,56
 342.334960938 582 342.334960938 582 348.584960938 594 c 1,57,58
 336.084960938 585 336.084960938 585 312.334960938 563 c 0,59,60
 299.834960938 552 299.834960938 552 284.209960938 550.5 c 128,-1,61
 268.584960938 549 268.584960938 549 258.584960938 557 c 0,62,63
 247.334960938 564 247.334960938 564 248.584960938 578 c 128,-1,64
 249.834960938 592 249.834960938 592 262.334960938 602 c 0,0,1
EndSplineSet
EndChar

StartChar: two
Encoding: 50 50 21
AltUni2: 00ff12.ffffffff.0 002082.ffffffff.0 0000b2.ffffffff.0 00ff12.ffffffff.0 002082.ffffffff.0 0000b2.ffffffff.0
Width: 445
GlyphClass: 1
Flags: W
LayerCount: 2
UndoRedoHistory
Layer: 1
Undoes
UndoOperation
Index: 0
Type: 3
WasModified: 1
WasOrder2: 1
Layer: 2
EndUndoOperation
EndUndoes
Redoes
EndRedoes
EndUndoRedoHistory
Fore
SplineSet
107.293945312 512 m 0,0,1
 139.793945312 590 139.793945312 590 227.293945312 644 c 0,2,3
 304.793945312 692 304.793945312 692 392.293945312 701 c 0,4,5
 482.293945312 712 482.293945312 712 537.293945312 677 c 0,6,7
 597.293945312 637 597.293945312 637 576.043945312 553 c 0,8,9
 564.793945312 516 564.793945312 516 547.293945312 484 c 0,10,11
 517.293945312 430 517.293945312 430 449.793945312 359 c 0,12,13
 401.043945312 310 401.043945312 310 326.043945312 244 c 0,14,15
 259.793945312 188 259.793945312 188 242.293945312 172 c 0,16,17
 198.543945312 134 198.543945312 134 172.293945312 106 c 1,18,-1
 172.293945312 105 l 2,19,20
 172.293945312 104 172.293945312 104 169.793945312 104 c 2,21,-1
 168.543945312 102 l 2,22,23
 167.293945312 100 167.293945312 100 164.168945312 97 c 128,-1,24
 161.043945312 94 161.043945312 94 158.543945312 92 c 0,25,26
 148.543945312 80 148.543945312 80 128.543945312 58 c 0,27,28
 128.543945312 57 128.543945312 57 125.418945312 54.5 c 128,-1,29
 122.293945312 52 122.293945312 52 121.043945312 51 c 0,30,31
 121.043945312 50 121.043945312 50 119.168945312 48.5 c 128,-1,32
 117.293945312 47 117.293945312 47 116.043945312 45.5 c 128,-1,33
 114.793945312 44 114.793945312 44 114.793945312 43 c 1,34,35
 116.043945312 43 116.043945312 43 119.168945312 43.5 c 128,-1,36
 122.293945312 44 122.293945312 44 124.793945312 45 c 0,37,38
 157.293945312 55 157.293945312 55 169.793945312 60 c 0,39,40
 173.543945312 61 173.543945312 61 193.543945312 69 c 0,41,42
 194.793945312 69 194.793945312 69 200.418945312 71 c 128,-1,43
 206.043945312 73 206.043945312 73 212.293945312 75 c 128,-1,44
 218.543945312 77 218.543945312 77 221.043945312 78 c 0,45,46
 266.043945312 95 266.043945312 95 308.543945312 108 c 0,47,48
 363.543945312 123 363.543945312 123 402.293945312 124 c 0,49,50
 413.543945312 124 413.543945312 124 423.543945312 121 c 0,51,52
 426.043945312 119 426.043945312 119 434.793945312 115 c 0,53,54
 437.293945312 113 437.293945312 113 452.293945312 104 c 1,55,-1
 451.043945312 103 l 1,56,-1
 452.293945312 103 l 1,57,-1
 453.543945312 103 l 2,58,59
 469.793945312 106 469.793945312 106 481.043945312 99 c 128,-1,60
 492.293945312 92 492.293945312 92 492.293945312 79 c 0,61,62
 492.293945312 69 492.293945312 69 491.043945312 65 c 0,63,64
 483.543945312 49 483.543945312 49 472.293945312 41 c 0,65,66
 457.293945312 29 457.293945312 29 437.293945312 29 c 2,67,-1
 421.043945312 32 l 2,68,69
 411.043945312 37 411.043945312 37 392.293945312 50 c 1,70,-1
 392.293945312 51 l 1,71,-1
 381.043945312 59 l 1,72,73
 351.043945312 56 351.043945312 56 314.793945312 46 c 0,74,75
 293.543945312 40 293.543945312 40 237.293945312 20 c 0,76,77
 231.043945312 18 231.043945312 18 209.793945312 10 c 2,78,-1
 183.543945312 0 l 2,79,80
 156.043945312 -10 156.043945312 -10 131.043945312 -16 c 0,81,82
 68.5439453125 -33 68.5439453125 -33 29.7939453125 -21 c 0,83,84
 14.7939453125 -16 14.7939453125 -16 12.2939453125 -5 c 0,85,86
 8.5439453125 0 8.5439453125 0 11.0439453125 9 c 0,87,88
 11.0439453125 14 11.0439453125 14 17.2939453125 23 c 0,89,90
 21.0439453125 30 21.0439453125 30 28.5439453125 41 c 0,91,92
 31.0439453125 44 31.0439453125 44 37.9189453125 51.5 c 128,-1,93
 44.7939453125 59 44.7939453125 59 51.0439453125 66.5 c 128,-1,94
 57.2939453125 74 57.2939453125 74 63.5439453125 81 c 0,95,96
 64.7939453125 82 64.7939453125 82 66.6689453125 84.5 c 128,-1,97
 68.5439453125 87 68.5439453125 87 69.7939453125 88 c 0,98,99
 71.0439453125 90 71.0439453125 90 101.043945312 123 c 0,100,101
 107.293945312 129 107.293945312 129 111.043945312 134 c 0,102,103
 113.543945312 136 113.543945312 136 114.793945312 137 c 2,104,-1
 116.043945312 138 l 1,105,-1
 116.043945312 139 l 1,106,107
 141.043945312 165 141.043945312 165 192.293945312 210 c 2,108,-1
 276.043945312 283 l 2,109,110
 349.793945312 347 349.793945312 347 394.793945312 392 c 0,111,112
 449.793945312 449 449.793945312 449 478.543945312 499 c 0,113,114
 493.543945312 528 493.543945312 528 501.043945312 552 c 0,115,116
 513.543945312 599 513.543945312 599 479.793945312 623 c 0,117,118
 447.293945312 645 447.293945312 645 384.793945312 637 c 0,119,120
 319.793945312 629 319.793945312 629 263.543945312 595 c 0,121,122
 201.043945312 557 201.043945312 557 178.543945312 504 c 0,123,124
 173.543945312 491 173.543945312 491 159.168945312 482.5 c 128,-1,125
 144.793945312 474 144.793945312 474 129.168945312 476 c 128,-1,126
 113.543945312 478 113.543945312 478 107.293945312 488.5 c 128,-1,127
 101.043945312 499 101.043945312 499 107.293945312 512 c 0,0,1
EndSplineSet
EndChar

StartChar: three
Encoding: 51 51 22
AltUni2: 00ff13.ffffffff.0 002083.ffffffff.0 0000b3.ffffffff.0 00ff13.ffffffff.0 002083.ffffffff.0 0000b3.ffffffff.0
Width: 438
GlyphClass: 1
Flags: W
LayerCount: 2
UndoRedoHistory
Layer: 1
Undoes
UndoOperation
Index: 0
Type: 3
WasModified: 1
WasOrder2: 1
Layer: 2
EndUndoOperation
EndUndoes
Redoes
EndRedoes
EndUndoRedoHistory
Fore
SplineSet
140.237304688 583 m 0,0,1
 266.487304688 692 266.487304688 692 373.987304688 697 c 0,2,3
 473.987304688 703 473.987304688 703 508.987304688 626 c 0,4,5
 541.487304688 552 541.487304688 552 487.737304688 470 c 0,6,7
 463.987304688 433 463.987304688 433 432.737304688 407 c 1,8,9
 466.487304688 401 466.487304688 401 491.487304688 383 c 0,10,11
 525.237304688 360 525.237304688 360 536.487304688 321 c 128,-1,12
 547.737304688 282 547.737304688 282 533.987304688 239 c 0,13,14
 503.987304688 141 503.987304688 141 383.987304688 75 c 0,15,16
 248.987304688 3 248.987304688 3 45.2373046875 3 c 0,17,18
 30.2373046875 3 30.2373046875 3 22.1123046875 12.5 c 128,-1,19
 13.9873046875 22 13.9873046875 22 17.7373046875 35 c 0,20,21
 21.4873046875 49 21.4873046875 49 35.2373046875 58.5 c 128,-1,22
 48.9873046875 68 48.9873046875 68 63.9873046875 68 c 0,23,24
 241.487304688 68 241.487304688 68 352.737304688 127 c 0,25,26
 440.237304688 175 440.237304688 175 458.987304688 239 c 0,27,28
 477.737304688 298 477.737304688 298 432.737304688 329 c 0,29,30
 392.737304688 358 392.737304688 358 317.737304688 340 c 0,31,32
 313.987304688 339 313.987304688 339 307.112304688 336.5 c 128,-1,33
 300.237304688 334 300.237304688 334 297.737304688 333 c 0,34,35
 288.987304688 330 288.987304688 330 280.237304688 330 c 0,36,37
 250.237304688 326 250.237304688 326 245.237304688 349 c 0,38,39
 242.737304688 362 242.737304688 362 252.112304688 374.5 c 128,-1,40
 261.487304688 387 261.487304688 387 277.737304688 392 c 0,41,42
 297.737304688 398 297.737304688 398 306.487304688 401 c 0,43,44
 383.987304688 431 383.987304688 431 421.487304688 488 c 0,45,46
 455.237304688 544 455.237304688 544 435.237304688 591 c 0,47,48
 415.237304688 635 415.237304688 635 360.237304688 633 c 0,49,50
 288.987304688 628 288.987304688 628 190.237304688 544 c 0,51,52
 178.987304688 534 178.987304688 534 162.112304688 531.5 c 128,-1,53
 145.237304688 529 145.237304688 529 135.862304688 537 c 128,-1,54
 126.487304688 545 126.487304688 545 127.112304688 559 c 128,-1,55
 127.737304688 573 127.737304688 573 140.237304688 583 c 0,0,1
EndSplineSet
EndChar

StartChar: four
Encoding: 52 52 23
AltUni2: 00ff14.ffffffff.0 002084.ffffffff.0 002074.ffffffff.0 00ff14.ffffffff.0 002084.ffffffff.0 002074.ffffffff.0
Width: 476
GlyphClass: 1
Flags: W
LayerCount: 2
UndoRedoHistory
Layer: 1
Undoes
UndoOperation
Index: 0
Type: 3
WasModified: 0
WasOrder2: 1
Layer: 2
EndUndoOperation
EndUndoes
Redoes
EndRedoes
EndUndoRedoHistory
Fore
SplineSet
287.395507812 697 m 0,0,1
 283.645507812 686 283.645507812 686 254.895507812 615 c 0,2,3
 253.645507812 610 253.645507812 610 249.895507812 602 c 128,-1,4
 246.145507812 594 246.145507812 594 243.645507812 588 c 2,5,-1
 239.895507812 582 l 2,6,7
 239.895507812 580 239.895507812 580 238.020507812 575 c 128,-1,8
 236.145507812 570 236.145507812 570 234.895507812 567 c 0,9,10
 229.895507812 554 229.895507812 554 208.645507812 494 c 0,11,12
 172.395507812 386 172.395507812 386 181.145507812 328 c 0,13,14
 186.145507812 283 186.145507812 283 219.895507812 268 c 0,15,16
 249.895507812 254 249.895507812 254 307.395507812 260 c 0,17,18
 312.395507812 261 312.395507812 261 319.895507812 262 c 128,-1,19
 327.395507812 263 327.395507812 263 334.270507812 264 c 128,-1,20
 341.145507812 265 341.145507812 265 347.395507812 266 c 0,21,22
 349.895507812 270 349.895507812 270 353.020507812 279.5 c 128,-1,23
 356.145507812 289 356.145507812 289 357.395507812 294 c 0,24,25
 388.645507812 381 388.645507812 381 394.895507812 400 c 0,26,27
 412.395507812 448 412.395507812 448 419.895507812 482 c 0,28,29
 423.645507812 496 423.645507812 496 437.395507812 505.5 c 128,-1,30
 451.145507812 515 451.145507812 515 466.145507812 516 c 0,31,32
 482.395507812 517 482.395507812 517 491.145507812 507.5 c 128,-1,33
 499.895507812 498 499.895507812 498 496.145507812 485 c 0,34,35
 487.395507812 447 487.395507812 447 469.895507812 397 c 0,36,37
 462.395507812 375 462.395507812 375 431.145507812 290 c 0,38,39
 431.145507812 289 431.145507812 289 429.895507812 286.5 c 128,-1,40
 428.645507812 284 428.645507812 284 428.645507812 283 c 1,41,42
 429.895507812 283 429.895507812 283 433.020507812 283.5 c 128,-1,43
 436.145507812 284 436.145507812 284 437.395507812 284 c 0,44,45
 444.895507812 287 444.895507812 287 453.645507812 288 c 0,46,47
 514.895507812 303 514.895507812 303 539.895507812 307 c 0,48,49
 556.145507812 311 556.145507812 311 567.395507812 304 c 128,-1,50
 578.645507812 297 578.645507812 297 578.645507812 284 c 0,51,52
 579.895507812 271 579.895507812 271 568.020507812 259.5 c 128,-1,53
 556.145507812 248 556.145507812 248 539.895507812 244 c 0,54,55
 526.145507812 242 526.145507812 242 456.145507812 226 c 0,56,57
 452.395507812 225 452.395507812 225 446.770507812 223.5 c 128,-1,58
 441.145507812 222 441.145507812 222 439.895507812 222 c 0,59,60
 437.395507812 221 437.395507812 221 423.645507812 218 c 128,-1,61
 409.895507812 215 409.895507812 215 403.645507812 214 c 1,62,63
 356.145507812 77 356.145507812 77 351.145507812 22 c 0,64,65
 351.145507812 9 351.145507812 9 338.645507812 -2.5 c 128,-1,66
 326.145507812 -14 326.145507812 -14 311.145507812 -16 c 0,67,68
 294.895507812 -18 294.895507812 -18 283.645507812 -10.5 c 128,-1,69
 272.395507812 -3 272.395507812 -3 273.645507812 10 c 0,70,71
 274.895507812 42 274.895507812 42 297.395507812 120 c 0,72,73
 302.395507812 139 302.395507812 139 322.395507812 199 c 1,74,-1
 297.395507812 196 l 2,75,76
 218.645507812 187 218.645507812 187 169.895507812 209 c 0,77,78
 112.395507812 236 112.395507812 236 103.645507812 306 c 128,-1,79
 94.8955078125 376 94.8955078125 376 134.895507812 497 c 0,80,81
 154.895507812 554 154.895507812 554 161.145507812 572 c 0,82,83
 162.395507812 578 162.395507812 578 168.645507812 590 c 0,84,85
 172.395507812 602 172.395507812 602 182.395507812 622 c 0,86,87
 184.895507812 627 184.895507812 627 195.520507812 654.5 c 128,-1,88
 206.145507812 682 206.145507812 682 214.895507812 703 c 0,89,90
 219.895507812 716 219.895507812 716 234.270507812 725 c 128,-1,91
 248.645507812 734 248.645507812 734 263.645507812 732 c 0,92,93
 278.645507812 731 278.645507812 731 286.145507812 721 c 128,-1,94
 293.645507812 711 293.645507812 711 287.395507812 697 c 0,0,1
EndSplineSet
EndChar

StartChar: five
Encoding: 53 53 24
AltUni2: 00ff15.ffffffff.0 002085.ffffffff.0 002075.ffffffff.0 00ff15.ffffffff.0 002085.ffffffff.0 002075.ffffffff.0
Width: 416
GlyphClass: 1
Flags: W
LayerCount: 2
UndoRedoHistory
Layer: 1
Undoes
UndoOperation
Index: 0
Type: 3
WasModified: 0
WasOrder2: 1
Layer: 2
EndUndoOperation
EndUndoes
Redoes
EndRedoes
EndUndoRedoHistory
Fore
SplineSet
294.677734375 669 m 0,0,1
 370.927734375 678 370.927734375 678 589.677734375 720 c 0,2,3
 605.927734375 723 605.927734375 723 617.177734375 716 c 128,-1,4
 628.427734375 709 628.427734375 709 628.427734375 695 c 0,5,6
 628.427734375 682 628.427734375 682 616.552734375 670.5 c 128,-1,7
 604.677734375 659 604.677734375 659 589.677734375 656 c 0,8,9
 370.927734375 616 370.927734375 616 304.677734375 607 c 1,10,11
 229.677734375 519 229.677734375 519 200.927734375 472 c 0,12,13
 175.927734375 431 175.927734375 431 179.677734375 416 c 0,14,15
 180.927734375 412 180.927734375 412 193.427734375 409 c 0,16,17
 208.427734375 407 208.427734375 407 257.177734375 408 c 0,18,19
 265.927734375 408 265.927734375 408 275.927734375 408.5 c 128,-1,20
 285.927734375 409 285.927734375 409 289.677734375 409 c 0,21,22
 320.927734375 409 320.927734375 409 344.677734375 406 c 0,23,24
 375.927734375 402 375.927734375 402 398.427734375 390 c 0,25,26
 450.927734375 361 450.927734375 361 443.427734375 288 c 0,27,28
 437.177734375 218 437.177734375 218 375.927734375 145 c 0,29,30
 319.677734375 80 319.677734375 80 243.427734375 38 c 0,31,32
 160.927734375 -7 160.927734375 -7 95.927734375 1 c 0,33,34
 18.427734375 9 18.427734375 9 4.677734375 85 c 0,35,36
 2.177734375 98 2.177734375 98 11.552734375 110.5 c 128,-1,37
 20.927734375 123 20.927734375 123 37.177734375 127 c 0,38,39
 52.177734375 132 52.177734375 132 65.927734375 127 c 128,-1,40
 79.677734375 122 79.677734375 122 80.927734375 109 c 0,41,42
 87.177734375 70 87.177734375 70 123.427734375 65 c 0,43,44
 158.427734375 62 158.427734375 62 213.427734375 91 c 0,45,46
 272.177734375 122 272.177734375 122 314.677734375 173 c 0,47,48
 359.677734375 226 359.677734375 226 365.927734375 278 c 0,49,50
 369.677734375 320 369.677734375 320 344.677734375 333 c 0,51,52
 325.927734375 344 325.927734375 344 272.177734375 344 c 0,53,54
 268.427734375 344 268.427734375 344 258.427734375 343.5 c 128,-1,55
 248.427734375 343 248.427734375 343 240.927734375 343 c 0,56,57
 219.677734375 342 219.677734375 342 199.677734375 342 c 0,58,59
 177.177734375 342 177.177734375 342 160.927734375 345 c 0,60,61
 109.677734375 354 109.677734375 354 102.177734375 391 c 0,62,63
 94.677734375 426 94.677734375 426 131.552734375 486 c 128,-1,64
 168.427734375 546 168.427734375 546 254.677734375 646 c 0,65,66
 258.427734375 650 258.427734375 650 263.427734375 654 c 0,67,68
 275.927734375 668 275.927734375 668 294.677734375 669 c 0,0,1
EndSplineSet
EndChar

StartChar: six
Encoding: 54 54 25
AltUni2: 00ff16.ffffffff.0 002086.ffffffff.0 002076.ffffffff.0 00ff16.ffffffff.0 002086.ffffffff.0 002076.ffffffff.0
Width: 410
GlyphClass: 1
Flags: W
LayerCount: 2
UndoRedoHistory
Layer: 1
Undoes
UndoOperation
Index: 0
Type: 3
WasModified: 0
WasOrder2: 1
Layer: 2
EndUndoOperation
EndUndoes
Redoes
EndRedoes
EndUndoRedoHistory
Fore
SplineSet
138.73046875 257 m 1,0,1
 96.23046875 173 96.23046875 173 101.23046875 123 c 0,2,3
 111.23046875 51 111.23046875 51 223.73046875 44 c 0,4,5
 298.73046875 40 298.73046875 40 353.73046875 89 c 0,6,7
 404.98046875 137 404.98046875 137 415.60546875 207 c 128,-1,8
 426.23046875 277 426.23046875 277 388.73046875 313 c 0,9,10
 349.98046875 349 349.98046875 349 268.73046875 324 c 0,11,12
 239.98046875 315 239.98046875 315 213.10546875 300.5 c 128,-1,13
 186.23046875 286 186.23046875 286 177.48046875 275 c 0,14,15
 163.73046875 257 163.73046875 257 138.73046875 257 c 1,0,1
496.23046875 668 m 0,16,17
 431.23046875 624 431.23046875 624 338.73046875 526 c 0,18,19
 263.73046875 446 263.73046875 446 203.73046875 363 c 1,20,21
 222.48046875 372 222.48046875 372 258.73046875 385 c 0,22,23
 387.48046875 423 387.48046875 423 452.48046875 362 c 0,24,25
 508.73046875 310 508.73046875 310 492.48046875 215 c 0,26,27
 478.73046875 121 478.73046875 121 406.23046875 53 c 0,28,29
 321.23046875 -27 321.23046875 -27 201.23046875 -21 c 0,30,31
 38.73046875 -10 38.73046875 -10 24.98046875 102 c 0,32,33
 14.98046875 188 14.98046875 188 99.98046875 328 c 0,34,35
 164.98046875 433 164.98046875 433 282.48046875 558 c 0,36,37
 389.98046875 669 389.98046875 669 457.48046875 715 c 0,38,39
 469.98046875 724 469.98046875 724 486.23046875 724 c 128,-1,40
 502.48046875 724 502.48046875 724 511.23046875 714 c 0,41,42
 518.73046875 704 518.73046875 704 514.98046875 691 c 128,-1,43
 511.23046875 678 511.23046875 678 496.23046875 668 c 0,16,17
EndSplineSet
EndChar

StartChar: seven
Encoding: 55 55 26
AltUni2: 00ff17.ffffffff.0 002087.ffffffff.0 002077.ffffffff.0 00ff17.ffffffff.0 002087.ffffffff.0 002077.ffffffff.0
Width: 444
GlyphClass: 1
Flags: W
LayerCount: 2
UndoRedoHistory
Layer: 1
Undoes
UndoOperation
Index: 0
Type: 3
WasModified: 0
WasOrder2: 1
Layer: 2
EndUndoOperation
EndUndoes
Redoes
EndRedoes
EndUndoRedoHistory
Fore
SplineSet
165.412109375 664 m 0,0,1
 202.912109375 672 202.912109375 672 229.162109375 678 c 0,2,3
 230.412109375 678 230.412109375 678 245.412109375 681 c 0,4,5
 296.662109375 693 296.662109375 693 350.412109375 704 c 0,6,7
 412.912109375 715 412.912109375 715 460.412109375 719 c 0,8,9
 461.662109375 719 461.662109375 719 465.412109375 719.5 c 128,-1,10
 469.162109375 720 469.162109375 720 471.662109375 720 c 0,11,12
 480.412109375 720 480.412109375 720 484.162109375 722 c 0,13,14
 516.662109375 725 516.662109375 725 536.662109375 725 c 0,15,16
 569.162109375 725 569.162109375 725 594.162109375 716 c 0,17,18
 625.412109375 704 625.412109375 704 637.912109375 675 c 0,19,20
 640.412109375 667 640.412109375 667 636.662109375 656 c 0,21,22
 634.162109375 648 634.162109375 648 631.662109375 644 c 0,23,24
 627.912109375 635 627.912109375 635 617.912109375 621 c 0,25,26
 604.162109375 603 604.162109375 603 574.162109375 563 c 0,27,28
 569.162109375 556 569.162109375 556 510.412109375 485.5 c 128,-1,29
 451.662109375 415 451.662109375 415 436.662109375 396 c 1,30,-1
 435.412109375 395 l 2,31,32
 435.412109375 394 435.412109375 394 435.412109375 393 c 1,33,-1
 439.162109375 393 l 2,34,35
 469.162109375 395 469.162109375 395 497.912109375 398 c 0,36,37
 514.162109375 401 514.162109375 401 524.787109375 393.5 c 128,-1,38
 535.412109375 386 535.412109375 386 535.412109375 372 c 0,39,40
 534.162109375 358 534.162109375 358 521.037109375 347 c 128,-1,41
 507.912109375 336 507.912109375 336 492.912109375 334 c 0,42,43
 486.662109375 334 486.662109375 334 466.037109375 332 c 128,-1,44
 445.412109375 330 445.412109375 330 426.662109375 328 c 0,45,46
 412.912109375 328 412.912109375 328 384.162109375 325 c 2,47,-1
 381.662109375 325 l 1,48,49
 370.412109375 311 370.412109375 311 366.662109375 304 c 0,50,51
 299.162109375 217 299.162109375 217 259.162109375 146 c 0,52,53
 217.912109375 70 217.912109375 70 219.162109375 35 c 0,54,55
 220.412109375 22 220.412109375 22 208.537109375 10.5 c 128,-1,56
 196.662109375 -1 196.662109375 -1 180.412109375 -5 c 128,-1,57
 164.162109375 -9 164.162109375 -9 152.912109375 -2 c 128,-1,58
 141.662109375 5 141.662109375 5 140.412109375 18 c 0,59,60
 139.162109375 71 139.162109375 71 190.412109375 161 c 0,61,62
 229.162109375 228 229.162109375 228 294.162109375 317 c 1,63,-1
 244.162109375 310 l 2,64,65
 227.912109375 308 227.912109375 308 216.662109375 315.5 c 128,-1,66
 205.412109375 323 205.412109375 323 206.662109375 336 c 0,67,68
 206.662109375 349 206.662109375 349 219.162109375 360.5 c 128,-1,69
 231.662109375 372 231.662109375 372 246.662109375 374 c 0,70,71
 297.912109375 381 297.912109375 381 346.662109375 385 c 1,72,73
 365.412109375 409 365.412109375 409 376.662109375 422 c 0,74,75
 409.162109375 464 409.162109375 464 512.912109375 589 c 0,76,77
 542.912109375 627 542.912109375 627 554.162109375 643 c 0,78,79
 555.412109375 646 555.412109375 646 557.912109375 650 c 1,80,81
 549.162109375 660 549.162109375 660 517.912109375 660 c 0,82,83
 502.912109375 660 502.912109375 660 475.412109375 657 c 0,84,85
 474.162109375 657 474.162109375 657 468.537109375 656.5 c 128,-1,86
 462.912109375 656 462.912109375 656 461.662109375 656 c 0,87,88
 456.662109375 655 456.662109375 655 450.412109375 655 c 0,89,90
 406.662109375 651 406.662109375 651 349.162109375 640 c 0,91,92
 311.662109375 633 311.662109375 633 246.662109375 618 c 0,93,94
 241.662109375 617 241.662109375 617 236.662109375 616 c 128,-1,95
 231.662109375 615 231.662109375 615 230.412109375 615 c 0,96,97
 221.662109375 613 221.662109375 613 166.662109375 601 c 0,98,99
 150.412109375 597 150.412109375 597 138.537109375 604 c 128,-1,100
 126.662109375 611 126.662109375 611 127.912109375 624 c 0,101,102
 126.662109375 637 126.662109375 637 137.912109375 648.5 c 128,-1,103
 149.162109375 660 149.162109375 660 165.412109375 664 c 0,0,1
EndSplineSet
EndChar

StartChar: eight
Encoding: 56 56 27
AltUni2: 00ff18.ffffffff.0 002088.ffffffff.0 002078.ffffffff.0 00ff18.ffffffff.0 002088.ffffffff.0 002078.ffffffff.0
Width: 405
GlyphClass: 1
Flags: W
LayerCount: 2
UndoRedoHistory
Layer: 1
Undoes
UndoOperation
Index: 0
Type: 3
WasModified: 0
WasOrder2: 1
Layer: 2
EndUndoOperation
EndUndoes
Redoes
EndRedoes
EndUndoRedoHistory
Fore
SplineSet
133.381835938 -6 m 1,0,-1
 130.881835938 -6 l 2,1,2
 129.631835938 -5 129.631835938 -5 129.631835938 -5 c 0,3,4
 27.1318359375 24 27.1318359375 24 -1.6181640625 69 c 0,5,6
 -35.3681640625 115 -35.3681640625 115 2.1318359375 177 c 0,7,8
 30.8818359375 224 30.8818359375 224 99.6318359375 278 c 0,9,10
 137.131835938 308 137.131835938 308 174.631835938 334 c 1,11,12
 145.881835938 360 145.881835938 360 134.631835938 388 c 0,13,14
 103.381835938 470 103.381835938 470 219.631835938 577 c 0,15,16
 272.131835938 627 272.131835938 627 315.881835938 656 c 0,17,18
 388.381835938 702 388.381835938 702 455.881835938 706 c 0,19,20
 494.631835938 709 494.631835938 709 520.881835938 693 c 0,21,22
 533.381835938 685 533.381835938 685 554.631835938 660 c 0,23,24
 582.131835938 624 582.131835938 624 562.131835938 577 c 0,25,26
 548.381835938 543 548.381835938 543 502.131835938 497 c 0,27,28
 459.631835938 459 459.631835938 459 407.131835938 421 c 0,29,30
 393.381835938 411 393.381835938 411 297.131835938 345 c 2,31,-1
 295.881835938 344 l 1,32,33
 302.131835938 340 302.131835938 340 308.381835938 337 c 0,34,35
 310.881835938 336 310.881835938 336 318.381835938 331 c 128,-1,36
 325.881835938 326 325.881835938 326 327.131835938 326 c 0,37,38
 352.131835938 311 352.131835938 311 383.381835938 291 c 0,39,40
 417.131835938 266 417.131835938 266 432.131835938 248 c 0,41,42
 482.131835938 193 482.131835938 193 462.131835938 121 c 0,43,44
 449.631835938 77 449.631835938 77 405.881835938 45 c 0,45,46
 367.131835938 17 367.131835938 17 319.631835938 2 c 0,47,48
 224.631835938 -27 224.631835938 -27 145.881835938 -11 c 0,49,50
 142.131835938 -10 142.131835938 -10 133.381835938 -6 c 1,0,-1
242.131835938 381 m 1,51,-1
 257.131835938 392 l 2,52,53
 315.881835938 432 315.881835938 432 364.631835938 465 c 0,54,55
 419.631835938 505 419.631835938 505 448.381835938 533 c 0,56,57
 479.631835938 561 479.631835938 561 489.631835938 584 c 0,58,59
 497.131835938 602 497.131835938 602 485.881835938 616 c 0,60,61
 472.131835938 634 472.131835938 634 465.256835938 638.5 c 128,-1,62
 458.381835938 643 458.381835938 643 443.381835938 642 c 0,63,64
 402.131835938 639 402.131835938 639 353.381835938 608 c 0,65,66
 324.631835938 590 324.631835938 590 269.631835938 540 c 0,67,68
 225.881835938 498 225.881835938 498 212.131835938 466 c 0,69,70
 202.131835938 442 202.131835938 442 208.381835938 421 c 0,71,72
 219.631835938 398 219.631835938 398 242.131835938 381 c 1,51,-1
182.131835938 52 m 0,73,74
 238.381835938 40 238.381835938 40 307.131835938 62 c 0,75,76
 374.631835938 83 374.631835938 83 385.881835938 121 c 0,77,78
 398.381835938 165 398.381835938 165 365.881835938 202 c 0,79,80
 344.631835938 227 344.631835938 227 272.131835938 270 c 0,81,82
 270.881835938 270 270.881835938 270 263.381835938 275 c 128,-1,83
 255.881835938 280 255.881835938 280 253.381835938 281 c 0,84,85
 249.631835938 283 249.631835938 283 240.881835938 288.5 c 128,-1,86
 232.131835938 294 232.131835938 294 227.131835938 297 c 1,87,88
 179.631835938 264 179.631835938 264 147.131835938 237 c 0,89,90
 88.3818359375 191 88.3818359375 191 70.8818359375 160 c 0,91,92
 52.1318359375 131 52.1318359375 131 67.1318359375 111 c 0,93,94
 88.3818359375 81 88.3818359375 81 169.631835938 57 c 0,95,96
 175.881835938 55 175.881835938 55 179.631835938 53 c 0,97,98
 179.631835938 52 179.631835938 52 182.131835938 52 c 0,73,74
EndSplineSet
EndChar

StartChar: nine
Encoding: 57 57 28
AltUni2: 00ff19.ffffffff.0 002089.ffffffff.0 002079.ffffffff.0 00ff19.ffffffff.0 002089.ffffffff.0 002079.ffffffff.0
Width: 411
GlyphClass: 1
Flags: W
LayerCount: 2
UndoRedoHistory
Layer: 1
Undoes
UndoOperation
Index: 0
Type: 3
WasModified: 0
WasOrder2: 1
Layer: 2
EndUndoOperation
EndUndoes
Redoes
EndRedoes
EndUndoRedoHistory
Fore
SplineSet
429.630859375 308 m 1,0,1
 482.130859375 402 482.130859375 402 487.130859375 484 c 0,2,3
 494.630859375 584 494.630859375 584 427.130859375 613 c 0,4,5
 364.630859375 640 364.630859375 640 299.630859375 599 c 0,6,7
 235.880859375 559 235.880859375 559 208.380859375 484 c 0,8,9
 180.880859375 407 180.880859375 407 220.880859375 359 c 0,10,11
 273.380859375 302 273.380859375 302 410.880859375 312 c 0,12,13
 422.130859375 312 422.130859375 312 429.630859375 308 c 1,0,1
68.380859375 76 m 0,14,15
 148.380859375 43 148.380859375 43 243.380859375 101 c 0,16,17
 323.380859375 150 323.380859375 150 390.880859375 247 c 1,18,19
 220.880859375 236 220.880859375 236 154.630859375 314 c 0,20,21
 95.880859375 381 95.880859375 381 134.630859375 488 c 0,22,23
 170.880859375 589 170.880859375 589 263.380859375 648 c 0,24,25
 373.380859375 717 373.380859375 717 474.630859375 672 c 0,26,27
 575.880859375 628 575.880859375 628 565.880859375 496 c 0,28,29
 558.380859375 384 558.380859375 384 475.880859375 253 c 0,30,31
 392.130859375 121 392.130859375 121 277.130859375 51 c 0,32,33
 140.880859375 -32 140.880859375 -32 20.880859375 16 c 0,34,35
 8.380859375 21 8.380859375 21 6.505859375 33.5 c 128,-1,36
 4.630859375 46 4.630859375 46 13.380859375 59 c 0,37,38
 22.130859375 71 22.130859375 71 38.380859375 76 c 128,-1,39
 54.630859375 81 54.630859375 81 68.380859375 76 c 0,14,15
EndSplineSet
EndChar

StartChar: colon
Encoding: 58 58 29
AltUni2: 00ff1a.ffffffff.0 00fe55.ffffffff.0 00fe13.ffffffff.0 002236.ffffffff.0 000589.ffffffff.0 00ff1a.ffffffff.0 00fe55.ffffffff.0 00fe13.ffffffff.0 002236.ffffffff.0 000589.ffffffff.0
Width: 212
GlyphClass: 1
Flags: W
LayerCount: 2
UndoRedoHistory
Layer: 1
Undoes
UndoOperation
Index: 0
Type: 3
WasModified: 0
WasOrder2: 1
Layer: 2
EndUndoOperation
EndUndoes
Redoes
EndRedoes
EndUndoRedoHistory
Fore
SplineSet
49.3193359375 74 m 0,0,1
 49.3193359375 72 49.3193359375 72 49.3193359375 71 c 2,2,-1
 49.3193359375 70 l 2,3,4
 44.3193359375 51 44.3193359375 51 54.3193359375 36 c 0,5,6
 64.3193359375 23 64.3193359375 23 86.8193359375 19 c 0,7,8
 91.8193359375 18 91.8193359375 18 99.9443359375 18 c 128,-1,9
 108.069335938 18 108.069335938 18 120.569335938 20 c 0,10,11
 160.569335938 28 160.569335938 28 188.069335938 53 c 1,12,13
 205.569335938 75 205.569335938 75 209.319335938 84 c 0,14,15
 214.319335938 103 214.319335938 103 203.069335938 123 c 0,16,17
 188.069335938 149 188.069335938 149 153.069335938 157 c 0,18,19
 148.069335938 158 148.069335938 158 144.319335938 158 c 0,20,21
 128.069335938 158 128.069335938 158 113.069335938 146 c 2,22,-1
 111.819335938 144 l 1,23,24
 93.0693359375 136 93.0693359375 136 79.3193359375 124 c 0,25,26
 73.0693359375 117 73.0693359375 117 69.3193359375 112 c 0,27,28
 54.3193359375 91 54.3193359375 91 49.3193359375 74 c 0,0,1
140.569335938 349 m 0,29,30
 133.069335938 323 133.069335938 323 148.069335938 303 c 0,31,32
 165.569335938 280 165.569335938 280 209.319335938 280 c 0,33,34
 256.819335938 280 256.819335938 280 283.069335938 311 c 0,35,36
 293.069335938 327 293.069335938 327 295.569335938 335 c 0,37,38
 300.569335938 353 300.569335938 353 294.319335938 374 c 0,39,40
 285.569335938 404 285.569335938 404 260.569335938 417 c 0,41,42
 244.319335938 426 244.319335938 426 226.819335938 426 c 0,43,44
 203.069335938 426 203.069335938 426 178.069335938 409 c 0,45,46
 166.819335938 398 166.819335938 398 164.944335938 393.5 c 128,-1,47
 163.069335938 389 163.069335938 389 163.069335938 383 c 1,48,-1
 159.319335938 380 l 2,49,50
 150.569335938 372 150.569335938 372 146.194335938 363.5 c 128,-1,51
 141.819335938 355 141.819335938 355 140.569335938 349 c 0,29,30
EndSplineSet
EndChar

StartChar: semicolon
Encoding: 59 59 30
AltUni2: 00ff1b.ffffffff.0 00fe54.ffffffff.0 00fe14.ffffffff.0 00037e.ffffffff.0 00ff1b.ffffffff.0 00fe54.ffffffff.0 00fe14.ffffffff.0 00037e.ffffffff.0
Width: 195
GlyphClass: 1
Flags: W
LayerCount: 2
UndoRedoHistory
Layer: 1
Undoes
UndoOperation
Index: 0
Type: 3
WasModified: 0
WasOrder2: 1
Layer: 2
EndUndoOperation
EndUndoes
Redoes
EndRedoes
EndUndoRedoHistory
Fore
SplineSet
174.125 352 m 2,0,1
 200.375 369 200.375 369 224.125 359 c 0,2,3
 276.625 338 276.625 338 274.125 300 c 0,4,5
 271.625 261 271.625 261 225.375 234 c 0,6,7
 180.375 209 180.375 209 144.125 223 c 0,8,9
 122.875 232 122.875 232 116.625 252 c 0,10,11
 111.625 268 111.625 268 119.125 293 c 2,12,-1
 120.375 298 l 1,13,-1
 122.875 306 l 2,14,15
 131.625 323 131.625 323 146.625 332 c 2,16,-1
 154.125 337 l 2,17,18
 160.375 340 160.375 340 167.875 347 c 2,19,-1
 174.125 352 l 2,0,1
151.625 156 m 0,20,21
 196.625 142 196.625 142 209.125 99 c 0,22,23
 217.875 62 217.875 62 202.875 22 c 0,24,25
 185.375 -22 185.375 -22 147.875 -56.5 c 128,-1,26
 110.375 -91 110.375 -91 62.875 -104 c 0,27,28
 44.125 -109 44.125 -109 28.5 -102 c 128,-1,29
 12.875 -95 12.875 -95 12.875 -80 c 0,30,31
 11.625 -64 11.625 -64 24.125 -49.5 c 128,-1,32
 36.625 -35 36.625 -35 55.375 -30 c 0,33,34
 72.875 -26 72.875 -26 89.75 -9.5 c 128,-1,35
 106.625 7 106.625 7 115.375 28 c 0,36,37
 124.125 50 124.125 50 117.875 64 c 0,38,39
 114.125 77 114.125 77 100.375 82 c 0,40,41
 84.125 87 84.125 87 80.375 101.5 c 128,-1,42
 76.625 116 76.625 116 86.625 131 c 0,43,44
 96.625 147 96.625 147 116 154 c 128,-1,45
 135.375 161 135.375 161 151.625 156 c 0,20,21
EndSplineSet
EndChar

StartChar: less
Encoding: 60 60 31
AltUni2: 00ff1c.ffffffff.0 00fe64.ffffffff.0 003008.ffffffff.0 002039.ffffffff.0 00ff1c.ffffffff.0 00fe64.ffffffff.0 003008.ffffffff.0 002039.ffffffff.0 002329.ffffffff.0 00fe3f.ffffffff.0
Width: 361
GlyphClass: 1
Flags: W
LayerCount: 2
UndoRedoHistory
Layer: 1
Undoes
UndoOperation
Index: 0
Type: 3
WasModified: 0
WasOrder2: 1
Layer: 2
EndUndoOperation
EndUndoes
Redoes
EndRedoes
EndUndoRedoHistory
Fore
SplineSet
515.688476562 566 m 0,0,1
 463.188476562 529 463.188476562 529 353.188476562 455 c 0,2,3
 351.938476562 454 351.938476562 454 328.188476562 438 c 128,-1,4
 304.438476562 422 304.438476562 422 277.563476562 404 c 128,-1,5
 250.688476562 386 250.688476562 386 241.938476562 380 c 0,6,7
 200.688476562 352 200.688476562 352 178.188476562 334 c 0,8,9
 174.438476562 331 174.438476562 331 169.438476562 326 c 2,10,-1
 164.438476562 321 l 2,11,12
 164.438476562 320 164.438476562 320 163.188476562 319 c 128,-1,13
 161.938476562 318 161.938476562 318 160.688476562 317 c 2,14,-1
 160.688476562 316 l 2,15,16
 160.688476562 315 160.688476562 315 161.313476562 313 c 128,-1,17
 161.938476562 311 161.938476562 311 161.938476562 310 c 0,18,19
 166.938476562 301 166.938476562 301 181.938476562 279 c 0,20,21
 213.188476562 240 213.188476562 240 225.688476562 225 c 0,22,23
 253.188476562 187 253.188476562 187 280.688476562 141 c 0,24,25
 283.188476562 135 283.188476562 135 301.938476562 123 c 0,26,27
 306.938476562 118 306.938476562 118 311.313476562 114 c 128,-1,28
 315.688476562 110 315.688476562 110 316.938476562 109 c 0,29,30
 333.188476562 95 333.188476562 95 338.188476562 82 c 0,31,32
 348.188476562 54 348.188476562 54 326.938476562 28 c 0,33,34
 315.688476562 13 315.688476562 13 295.688476562 7 c 128,-1,35
 275.688476562 1 275.688476562 1 261.938476562 8 c 0,36,37
 236.938476562 20 236.938476562 20 245.688476562 46 c 0,38,39
 244.438476562 48 244.438476562 48 241.938476562 49 c 0,40,41
 238.188476562 54 238.188476562 54 228.188476562 61 c 0,42,43
 203.188476562 82 203.188476562 82 196.938476562 93 c 0,44,45
 184.438476562 112 184.438476562 112 143.188476562 173 c 1,46,-1
 100.688476562 227 l 2,47,48
 78.1884765625 255 78.1884765625 255 71.9384765625 271 c 0,49,50
 61.9384765625 299 61.9384765625 299 75.6884765625 329 c 0,51,52
 86.9384765625 354 86.9384765625 354 120.688476562 382 c 0,53,54
 143.188476562 401 143.188476562 401 194.438476562 436 c 0,55,56
 254.438476562 475 254.438476562 475 306.938476562 511 c 0,57,58
 414.438476562 584 414.438476562 584 465.688476562 620 c 0,59,60
 481.938476562 632 481.938476562 632 501.313476562 632 c 128,-1,61
 520.688476562 632 520.688476562 632 530.063476562 621 c 128,-1,62
 539.438476562 610 539.438476562 610 535.688476562 593.5 c 128,-1,63
 531.938476562 577 531.938476562 577 515.688476562 566 c 0,0,1
EndSplineSet
Substitution2: "'rtla' Right to Left Alternates lookup 0 subtable" greater
EndChar

StartChar: equal
Encoding: 61 61 32
AltUni2: 00ff1d.ffffffff.0 00fe66.ffffffff.0 00208c.ffffffff.0 00207c.ffffffff.0 00ff1d.ffffffff.0 00fe66.ffffffff.0 00208c.ffffffff.0 00207c.ffffffff.0
Width: 505
GlyphClass: 1
Flags: W
LayerCount: 2
UndoRedoHistory
Layer: 1
Undoes
UndoOperation
Index: 0
Type: 3
WasModified: 0
WasOrder2: 1
Layer: 2
EndUndoOperation
EndUndoes
Redoes
EndRedoes
EndUndoRedoHistory
Fore
SplineSet
170.4765625 408 m 0,0,1
 371.7265625 401 371.7265625 401 601.7265625 409 c 0,2,3
 620.4765625 410 620.4765625 410 631.7265625 399 c 128,-1,4
 642.9765625 388 642.9765625 388 639.2265625 372 c 128,-1,5
 635.4765625 356 635.4765625 356 619.2265625 344 c 128,-1,6
 602.9765625 332 602.9765625 332 584.2265625 331 c 0,7,8
 350.4765625 323 350.4765625 323 144.2265625 330 c 0,9,10
 125.4765625 331 125.4765625 331 116.1015625 342.5 c 128,-1,11
 106.7265625 354 106.7265625 354 111.7265625 370 c 0,12,13
 117.9765625 387 117.9765625 387 134.8515625 398 c 128,-1,14
 151.7265625 409 151.7265625 409 170.4765625 408 c 0,0,1
112.9765625 201 m 0,15,16
 417.9765625 206 417.9765625 206 547.9765625 212 c 0,17,18
 566.7265625 213 566.7265625 213 576.7265625 202 c 128,-1,19
 586.7265625 191 586.7265625 191 584.2265625 175 c 0,20,21
 580.4765625 159 580.4765625 159 564.2265625 147 c 128,-1,22
 547.9765625 135 547.9765625 135 529.2265625 134 c 0,23,24
 396.7265625 128 396.7265625 128 92.9765625 123 c 0,25,26
 72.9765625 122 72.9765625 122 62.9765625 133.5 c 128,-1,27
 52.9765625 145 52.9765625 145 57.3515625 161 c 128,-1,28
 61.7265625 177 61.7265625 177 77.9765625 188.5 c 128,-1,29
 94.2265625 200 94.2265625 200 112.9765625 201 c 0,15,16
EndSplineSet
EndChar

StartChar: greater
Encoding: 62 62 33
AltUni2: 00ff1e.ffffffff.0 00fe65.ffffffff.0 003009.ffffffff.0 00203a.ffffffff.0 00ff1e.ffffffff.0 00fe65.ffffffff.0 003009.ffffffff.0 00203a.ffffffff.0 00232a.ffffffff.0 00fe40.ffffffff.0
Width: 334
GlyphClass: 1
Flags: W
LayerCount: 2
UndoRedoHistory
Layer: 1
Undoes
UndoOperation
Index: 0
Type: 3
WasModified: 0
WasOrder2: 1
Layer: 2
EndUndoOperation
EndUndoes
Redoes
EndRedoes
EndUndoRedoHistory
Fore
SplineSet
244.17578125 619 m 0,0,1
 289.17578125 558 289.17578125 558 329.17578125 510 c 0,2,3
 365.42578125 469 365.42578125 469 390.42578125 434 c 0,4,5
 417.92578125 400 417.92578125 400 427.92578125 381 c 0,6,7
 442.92578125 352 442.92578125 352 440.42578125 328 c 0,8,9
 436.67578125 301 436.67578125 301 411.67578125 273 c 0,10,11
 394.17578125 254 394.17578125 254 361.67578125 228 c 2,12,-1
 349.17578125 218 l 2,13,14
 336.67578125 207 336.67578125 207 319.17578125 193.5 c 128,-1,15
 301.67578125 180 301.67578125 180 294.17578125 174 c 0,16,17
 247.92578125 138 247.92578125 138 200.42578125 95 c 0,18,19
 186.67578125 82 186.67578125 82 152.92578125 62 c 0,20,21
 141.67578125 55 141.67578125 55 134.17578125 50 c 0,22,23
 132.92578125 49 132.92578125 49 127.92578125 47 c 0,24,25
 121.67578125 18 121.67578125 18 89.17578125 8 c 0,26,27
 69.17578125 1 69.17578125 1 54.80078125 7.5 c 128,-1,28
 40.42578125 14 40.42578125 14 36.67578125 29 c 0,29,30
 31.67578125 54 31.67578125 54 55.42578125 80 c 0,31,32
 69.17578125 96 69.17578125 96 90.42578125 108 c 0,33,34
 99.17578125 114 99.17578125 114 111.67578125 122 c 0,35,36
 131.67578125 133 131.67578125 133 140.42578125 140 c 0,37,38
 195.42578125 189 195.42578125 189 237.92578125 223 c 2,39,-1
 306.67578125 278 l 2,40,41
 335.42578125 300 335.42578125 300 342.92578125 309 c 0,42,43
 347.92578125 313 347.92578125 313 347.92578125 317 c 0,44,45
 347.92578125 323 347.92578125 323 341.67578125 335 c 0,46,47
 332.92578125 352 332.92578125 352 309.17578125 381 c 0,48,49
 284.17578125 416 284.17578125 416 249.17578125 456 c 0,50,51
 192.92578125 525 192.92578125 525 162.92578125 567 c 0,52,53
 154.17578125 579 154.17578125 579 159.17578125 595 c 128,-1,54
 164.17578125 611 164.17578125 611 181.67578125 622 c 128,-1,55
 199.17578125 633 199.17578125 633 217.30078125 632 c 128,-1,56
 235.42578125 631 235.42578125 631 244.17578125 619 c 0,0,1
EndSplineSet
Substitution2: "'rtla' Right to Left Alternates lookup 0 subtable" less
EndChar

StartChar: question
Encoding: 63 63 34
AltUni2: 00ff1f.ffffffff.0 00fe56.ffffffff.0 00fe16.ffffffff.0 00ff1f.ffffffff.0 00fe56.ffffffff.0 00fe16.ffffffff.0
Width: 429
GlyphClass: 1
Flags: W
LayerCount: 2
UndoRedoHistory
Layer: 1
Undoes
UndoOperation
Index: 0
Type: 3
WasModified: 0
WasOrder2: 1
Layer: 2
EndUndoOperation
EndUndoes
Redoes
EndRedoes
EndUndoRedoHistory
Fore
SplineSet
171.682617188 51 m 0,0,1
 186.682617188 64 186.682617188 64 201.682617188 71 c 0,2,3
 237.932617188 86 237.932617188 86 264.182617188 75 c 0,4,5
 290.432617188 64 290.432617188 64 294.182617188 44 c 0,6,7
 301.682617188 20 301.682617188 20 279.182617188 -4 c 0,8,9
 257.932617188 -28 257.932617188 -28 212.932617188 -44 c 0,10,11
 196.682617188 -50 196.682617188 -50 179.182617188 -53 c 0,12,13
 155.432617188 -56 155.432617188 -56 136.682617188 -49 c 0,14,15
 104.182617188 -32 104.182617188 -32 122.932617188 2 c 0,16,17
 131.682617188 20 131.682617188 20 154.182617188 38 c 0,18,19
 165.432617188 47 165.432617188 47 171.682617188 51 c 0,0,1
156.682617188 499 m 0,20,21
 180.432617188 557 180.432617188 557 251.682617188 610 c 0,22,23
 316.682617188 657 316.682617188 657 389.182617188 680 c 0,24,25
 474.182617188 706 474.182617188 706 529.182617188 689 c 0,26,27
 599.182617188 669 599.182617188 669 600.432617188 595 c 0,28,29
 601.682617188 533 601.682617188 533 550.432617188 463 c 0,30,31
 530.432617188 436 530.432617188 436 502.932617188 406 c 0,32,33
 487.932617188 390 487.932617188 390 451.682617188 354 c 0,34,35
 409.182617188 312 409.182617188 312 402.932617188 303 c 0,36,37
 369.182617188 268 369.182617188 268 352.932617188 242 c 1,38,-1
 351.682617188 241 l 1,39,-1
 351.682617188 240 l 2,40,41
 350.432617188 237 350.432617188 237 349.182617188 233 c 0,42,43
 346.682617188 230 346.682617188 230 342.932617188 223.5 c 128,-1,44
 339.182617188 217 339.182617188 217 336.682617188 214 c 2,45,-1
 330.432617188 202 l 2,46,47
 329.182617188 200 329.182617188 200 326.682617188 196.5 c 128,-1,48
 324.182617188 193 324.182617188 193 322.932617188 191 c 128,-1,49
 321.682617188 189 321.682617188 189 320.432617188 187 c 0,50,51
 320.432617188 185 320.432617188 185 317.932617188 182.5 c 128,-1,52
 315.432617188 180 315.432617188 180 314.182617188 179 c 0,53,54
 304.182617188 169 304.182617188 169 296.682617188 165 c 0,55,56
 285.432617188 157 285.432617188 157 265.432617188 155 c 0,57,58
 242.932617188 155 242.932617188 155 234.182617188 168 c 0,59,60
 230.432617188 173 230.432617188 173 227.932617188 181 c 0,61,62
 227.932617188 187 227.932617188 187 227.932617188 189 c 0,63,64
 229.182617188 201 229.182617188 201 231.682617188 212 c 0,65,66
 237.932617188 232 237.932617188 232 261.682617188 244 c 1,67,-1
 272.932617188 264 l 2,68,69
 295.432617188 300 295.432617188 300 334.182617188 341 c 0,70,71
 349.182617188 357 349.182617188 357 385.432617188 394 c 0,72,73
 454.182617188 463 454.182617188 463 474.182617188 491 c 0,74,75
 507.932617188 538 507.932617188 538 506.682617188 575 c 0,76,77
 506.682617188 607 506.682617188 607 480.432617188 615 c 0,78,79
 451.682617188 623 451.682617188 623 401.682617188 608 c 0,80,81
 349.182617188 591 349.182617188 591 304.182617188 557.5 c 128,-1,82
 259.182617188 524 259.182617188 524 245.432617188 491 c 0,83,84
 239.182617188 475 239.182617188 475 221.057617188 464.5 c 128,-1,85
 202.932617188 454 202.932617188 454 185.432617188 456 c 0,86,87
 166.682617188 457 166.682617188 457 157.932617188 470 c 128,-1,88
 149.182617188 483 149.182617188 483 156.682617188 499 c 0,20,21
EndSplineSet
EndChar

StartChar: at
Encoding: 64 64 35
AltUni2: 00ff20.ffffffff.0 00fe6b.ffffffff.0 00ff20.ffffffff.0 00fe6b.ffffffff.0
Width: 497
GlyphClass: 1
Flags: W
LayerCount: 2
UndoRedoHistory
Layer: 1
Undoes
UndoOperation
Index: 0
Type: 3
WasModified: 0
WasOrder2: 1
Layer: 2
EndUndoOperation
EndUndoes
Redoes
EndRedoes
EndUndoRedoHistory
Fore
SplineSet
334.327148438 265 m 1,0,1
 343.077148438 269 343.077148438 269 349.327148438 275 c 0,2,3
 351.827148438 277 351.827148438 277 353.077148438 277 c 0,4,5
 365.577148438 289 365.577148438 289 375.577148438 318 c 0,6,7
 384.327148438 344 384.327148438 344 394.327148438 365 c 0,8,9
 406.827148438 389 406.827148438 389 421.827148438 411 c 1,10,11
 411.827148438 419 411.827148438 419 406.827148438 420 c 0,12,13
 403.077148438 420 403.077148438 420 400.577148438 418 c 0,14,15
 370.577148438 400 370.577148438 400 348.077148438 344 c 0,16,17
 326.827148438 293 326.827148438 293 334.327148438 265 c 1,0,1
504.327148438 311 m 1,18,19
 504.327148438 312 504.327148438 312 505.577148438 313 c 0,20,21
 515.577148438 328 515.577148438 328 530.577148438 368 c 0,22,23
 549.327148438 422 549.327148438 422 555.577148438 442 c 0,24,25
 563.077148438 474 563.077148438 474 563.077148438 510 c 0,26,27
 559.327148438 539 559.327148438 539 516.827148438 559 c 0,28,29
 474.327148438 579 474.327148438 579 428.077148438 572 c 0,30,31
 403.077148438 568 403.077148438 568 394.327148438 565 c 0,32,33
 391.827148438 565 391.827148438 565 385.577148438 562 c 0,34,35
 381.827148438 559 381.827148438 559 371.827148438 552 c 0,36,37
 351.827148438 538 351.827148438 538 340.577148438 531 c 0,38,39
 245.577148438 467 245.577148438 467 201.827148438 386 c 0,40,41
 161.827148438 313 161.827148438 313 175.577148438 243 c 128,-1,42
 189.327148438 173 189.327148438 173 250.577148438 132 c 0,43,44
 320.577148438 87 320.577148438 87 423.077148438 88 c 0,45,46
 441.827148438 89 441.827148438 89 451.827148438 77.5 c 128,-1,47
 461.827148438 66 461.827148438 66 459.327148438 50 c 0,48,49
 454.327148438 34 454.327148438 34 438.077148438 22.5 c 128,-1,50
 421.827148438 11 421.827148438 11 401.827148438 10 c 0,51,52
 269.327148438 8 269.327148438 8 183.077148438 67 c 0,53,54
 101.827148438 120 101.827148438 120 84.3271484375 213 c 0,55,56
 65.5771484375 303 65.5771484375 303 118.077148438 402 c 0,57,58
 174.327148438 505 174.327148438 505 294.327148438 587 c 0,59,60
 308.077148438 595 308.077148438 595 321.827148438 606 c 0,61,62
 325.577148438 609 325.577148438 609 329.327148438 611.5 c 128,-1,63
 333.077148438 614 333.077148438 614 334.952148438 615.5 c 128,-1,64
 336.827148438 617 336.827148438 617 339.327148438 618.5 c 128,-1,65
 341.827148438 620 341.827148438 620 343.077148438 621 c 0,66,67
 360.577148438 632 360.577148438 632 389.327148438 640 c 0,68,69
 393.077148438 641 393.077148438 641 406.827148438 643.5 c 128,-1,70
 420.577148438 646 420.577148438 646 431.827148438 648 c 0,71,72
 506.827148438 662 506.827148438 662 576.827148438 629 c 0,73,74
 650.577148438 593 650.577148438 593 655.577148438 533 c 0,75,76
 658.077148438 494 658.077148438 494 645.577148438 445 c 0,77,78
 640.577148438 422 640.577148438 422 619.327148438 362 c 0,79,80
 586.827148438 273 586.827148438 273 539.327148438 241 c 0,81,82
 504.327148438 219 504.327148438 219 469.327148438 225 c 0,83,84
 445.577148438 229 445.577148438 229 430.577148438 248 c 1,85,86
 416.827148438 234 416.827148438 234 409.327148438 228 c 0,87,88
 408.077148438 227 408.077148438 227 404.952148438 224.5 c 128,-1,89
 401.827148438 222 401.827148438 222 400.577148438 221 c 0,90,91
 346.827148438 184 346.827148438 184 308.077148438 184 c 0,92,93
 261.827148438 183 261.827148438 183 246.827148438 221 c 0,94,95
 226.827148438 269 226.827148438 269 259.327148438 351 c 0,96,97
 294.327148438 438 294.327148438 438 358.077148438 477 c 0,98,99
 401.827148438 505 401.827148438 505 448.077148438 496 c 0,100,101
 488.077148438 487 488.077148438 487 519.327148438 448 c 0,102,103
 536.827148438 427 536.827148438 427 513.077148438 403 c 0,104,105
 513.077148438 402 513.077148438 402 511.827148438 399.5 c 128,-1,106
 510.577148438 397 510.577148438 397 509.327148438 396 c 0,107,108
 495.577148438 380 495.577148438 380 495.577148438 349 c 0,109,110
 496.827148438 326 496.827148438 326 504.327148438 311 c 1,18,19
EndSplineSet
EndChar

StartChar: A
Encoding: 65 65 36
AltUni2: 00ff21.ffffffff.0 001d2c.ffffffff.0 0013aa.ffffffff.0 000410.ffffffff.0 000391.ffffffff.0 00ff21.ffffffff.0 001d2c.ffffffff.0 0013aa.ffffffff.0 000410.ffffffff.0 000391.ffffffff.0
Width: 404
GlyphClass: 1
Flags: W
LayerCount: 2
UndoRedoHistory
Layer: 1
Undoes
UndoOperation
Index: 0
Type: 3
WasModified: 0
WasOrder2: 1
Layer: 2
EndUndoOperation
EndUndoes
Redoes
EndRedoes
EndUndoRedoHistory
Fore
SplineSet
145.7578125 247 m 1,0,1
 215.7578125 270 215.7578125 270 273.2578125 296 c 0,2,3
 352.0078125 331 352.0078125 331 438.2578125 380 c 1,4,5
 478.2578125 507 478.2578125 507 490.7578125 575 c 0,6,7
 505.7578125 656 505.7578125 656 485.7578125 690 c 1,8,9
 417.0078125 647 417.0078125 647 343.8828125 562.5 c 128,-1,10
 270.7578125 478 270.7578125 478 209.5078125 372 c 0,11,12
 173.2578125 309 173.2578125 309 145.7578125 247 c 1,0,1
10.7578125 -13 m 0,13,14
 5.7578125 62 5.7578125 62 40.1328125 168 c 128,-1,15
 74.5078125 274 74.5078125 274 140.7578125 387 c 0,16,17
 208.2578125 505 208.2578125 505 290.1328125 598 c 128,-1,18
 372.0078125 691 372.0078125 691 454.5078125 741 c 0,19,20
 472.0078125 752 472.0078125 752 497.0078125 755 c 0,21,22
 509.5078125 756 509.5078125 756 520.7578125 755 c 0,23,24
 538.2578125 754 538.2578125 754 548.2578125 743 c 0,25,26
 587.0078125 697 587.0078125 697 567.0078125 581 c 0,27,28
 553.2578125 507 553.2578125 507 509.5078125 365 c 0,29,30
 505.7578125 354 505.7578125 354 503.2578125 344 c 0,31,32
 464.5078125 219 464.5078125 219 458.2578125 189 c 0,33,34
 438.2578125 110 438.2578125 110 438.2578125 70 c 0,35,36
 439.5078125 57 439.5078125 57 428.2578125 45.5 c 128,-1,37
 417.0078125 34 417.0078125 34 400.7578125 30 c 128,-1,38
 384.5078125 26 384.5078125 26 373.2578125 33 c 128,-1,39
 362.0078125 40 362.0078125 40 360.7578125 53 c 0,40,41
 359.5078125 104 359.5078125 104 382.0078125 187 c 0,42,43
 393.2578125 230 393.2578125 230 413.2578125 297 c 1,44,45
 349.5078125 264 349.5078125 264 297.0078125 240 c 0,46,47
 195.7578125 197 195.7578125 197 118.2578125 176 c 1,48,49
 83.2578125 73 83.2578125 73 88.2578125 6 c 0,50,51
 89.5078125 -7 89.5078125 -7 78.2578125 -18.5 c 128,-1,52
 67.0078125 -30 67.0078125 -30 50.7578125 -34 c 128,-1,53
 34.5078125 -38 34.5078125 -38 23.2578125 -32 c 128,-1,54
 12.0078125 -26 12.0078125 -26 10.7578125 -13 c 0,13,14
EndSplineSet
EndChar

StartChar: B
Encoding: 66 66 37
AltUni2: 00ff22.ffffffff.0 00212c.ffffffff.0 001d2e.ffffffff.0 0013f4.ffffffff.0 000412.ffffffff.0 000392.ffffffff.0 00ff22.ffffffff.0 00212c.ffffffff.0 001d2e.ffffffff.0 0013f4.ffffffff.0 000412.ffffffff.0 000392.ffffffff.0
Width: 419
GlyphClass: 1
Flags: W
LayerCount: 2
UndoRedoHistory
Layer: 1
Undoes
UndoOperation
Index: 0
Type: 3
WasModified: 0
WasOrder2: 1
Layer: 2
EndUndoOperation
EndUndoes
Redoes
EndRedoes
EndUndoRedoHistory
Fore
SplineSet
204.876953125 402 m 1,0,1
 213.626953125 404 213.626953125 404 226.126953125 407.5 c 128,-1,2
 238.626953125 411 238.626953125 411 246.126953125 413.5 c 128,-1,3
 253.626953125 416 253.626953125 416 254.876953125 416 c 0,4,5
 281.126953125 424 281.126953125 424 316.126953125 436 c 0,6,7
 352.376953125 450 352.376953125 450 374.876953125 466 c 0,8,9
 396.126953125 481 396.126953125 481 417.376953125 499 c 0,10,11
 468.626953125 540 468.626953125 540 463.626953125 580 c 0,12,13
 459.876953125 618 459.876953125 618 413.626953125 644 c 0,14,15
 364.876953125 669 364.876953125 669 299.876953125 664 c 0,16,17
 298.626953125 663 298.626953125 663 293.626953125 663 c 128,-1,18
 288.626953125 663 288.626953125 663 287.376953125 662 c 0,19,20
 243.626953125 537 243.626953125 537 204.876953125 402 c 1,0,1
106.126953125 38 m 1,21,22
 107.376953125 39 107.376953125 39 111.126953125 40 c 128,-1,23
 114.876953125 41 114.876953125 41 116.126953125 41 c 0,24,25
 123.626953125 41 123.626953125 41 144.876953125 45 c 0,26,27
 151.126953125 46 151.126953125 46 159.876953125 47.5 c 128,-1,28
 168.626953125 49 168.626953125 49 172.376953125 49 c 0,29,30
 296.126953125 68 296.126953125 68 338.626953125 97 c 0,31,32
 388.626953125 131 388.626953125 131 397.376953125 174 c 0,33,34
 404.876953125 214 404.876953125 214 374.876953125 256 c 128,-1,35
 344.876953125 298 344.876953125 298 291.751953125 317 c 128,-1,36
 238.626953125 336 238.626953125 336 188.626953125 324 c 0,37,38
 187.376953125 324 187.376953125 324 185.501953125 323.5 c 128,-1,39
 183.626953125 323 183.626953125 323 182.376953125 322 c 0,40,41
 166.126953125 267 166.126953125 267 132.376953125 143 c 2,42,-1
 124.876953125 110 l 2,43,44
 123.626953125 103 123.626953125 103 118.626953125 88 c 0,45,46
 114.876953125 69 114.876953125 69 107.376953125 44 c 2,47,-1
 106.126953125 38 l 1,21,22
126.126953125 658 m 0,48,49
 212.376953125 723 212.376953125 723 311.126953125 731 c 0,50,51
 401.126953125 740 401.126953125 740 468.626953125 704 c 0,52,53
 538.626953125 665 538.626953125 665 546.126953125 602 c 0,54,55
 552.376953125 527 552.376953125 527 468.626953125 457 c 0,56,57
 433.626953125 430 433.626953125 430 417.376953125 418 c 0,58,59
 377.376953125 392 377.376953125 392 342.376953125 379 c 1,60,61
 409.876953125 353 409.876953125 353 446.126953125 301 c 0,62,63
 489.876953125 243 489.876953125 243 478.626953125 180 c 0,64,65
 463.626953125 103 463.626953125 103 379.876953125 48 c 0,66,67
 343.626953125 23 343.626953125 23 277.376953125 4 c 0,68,69
 237.376953125 -6 237.376953125 -6 167.376953125 -18 c 0,70,71
 163.626953125 -18 163.626953125 -18 154.251953125 -19.5 c 128,-1,72
 144.876953125 -21 144.876953125 -21 138.626953125 -22 c 0,73,74
 136.126953125 -23 136.126953125 -23 124.251953125 -25 c 128,-1,75
 112.376953125 -27 112.376953125 -27 111.126953125 -27 c 0,76,77
 41.126953125 -39 41.126953125 -39 18.626953125 -43 c 0,78,79
 1.126953125 -48 1.126953125 -48 -11.373046875 -42 c 128,-1,80
 -23.873046875 -36 -23.873046875 -36 -25.123046875 -22 c 0,81,82
 -27.623046875 -8 -27.623046875 -8 -16.373046875 4.5 c 128,-1,83
 -5.123046875 17 -5.123046875 17 12.376953125 22 c 0,84,85
 16.126953125 22 16.126953125 22 18.626953125 23 c 0,86,87
 19.876953125 35 19.876953125 35 28.626953125 44 c 1,88,-1
 28.626953125 46 l 2,89,90
 34.876953125 68 34.876953125 68 38.626953125 86 c 0,91,92
 42.376953125 100 42.376953125 100 43.626953125 107 c 2,93,-1
 47.376953125 118 l 2,94,95
 49.876953125 126 49.876953125 126 48.626953125 129 c 2,96,-1
 53.626953125 142 l 1,97,98
 119.876953125 398 119.876953125 398 196.126953125 630 c 1,99,-1
 173.626953125 614 l 2,100,101
 161.126953125 604 161.126953125 604 144.251953125 602.5 c 128,-1,102
 127.376953125 601 127.376953125 601 117.376953125 611 c 0,103,104
 107.376953125 619 107.376953125 619 110.501953125 633.5 c 128,-1,105
 113.626953125 648 113.626953125 648 126.126953125 658 c 0,48,49
EndSplineSet
EndChar

StartChar: C
Encoding: 67 67 38
AltUni2: 00ff23.ffffffff.0 00a7f2.ffffffff.0 00216d.ffffffff.0 00212d.ffffffff.0 002102.ffffffff.0 0013df.ffffffff.0 000421.ffffffff.0 00ff23.ffffffff.0 00a7f2.ffffffff.0 00216d.ffffffff.0 00212d.ffffffff.0 002102.ffffffff.0 0013df.ffffffff.0 000421.ffffffff.0
Width: 464
GlyphClass: 1
Flags: W
LayerCount: 2
UndoRedoHistory
Layer: 1
Undoes
UndoOperation
Index: 0
Type: 3
WasModified: 0
WasOrder2: 1
Layer: 2
EndUndoOperation
EndUndoes
Redoes
EndRedoes
EndUndoRedoHistory
Fore
SplineSet
596.155273438 651 m 0,0,1
 593.655273438 670 593.655273438 670 584.905273438 683 c 0,2,3
 579.905273438 689 579.905273438 689 572.405273438 691 c 0,4,5
 556.155273438 695 556.155273438 695 521.155273438 674 c 0,6,7
 431.155273438 623 431.155273438 623 309.905273438 478 c 0,8,9
 191.155273438 338 191.155273438 338 128.655273438 211 c 0,10,11
 101.155273438 154 101.155273438 154 94.9052734375 113 c 0,12,13
 93.6552734375 83 93.6552734375 83 104.905273438 78 c 0,14,15
 149.905273438 57 149.905273438 57 236.155273438 67 c 0,16,17
 273.655273438 71 273.655273438 71 334.905273438 85 c 0,18,19
 336.155273438 85 336.155273438 85 338.655273438 85.5 c 128,-1,20
 341.155273438 86 341.155273438 86 342.405273438 86 c 0,21,22
 343.655273438 87 343.655273438 87 347.405273438 87 c 0,23,24
 348.655273438 88 348.655273438 88 351.155273438 88 c 0,25,26
 358.655273438 90 358.655273438 90 368.655273438 92 c 0,27,28
 387.405273438 95 387.405273438 95 402.405273438 98 c 0,29,30
 418.655273438 101 418.655273438 101 429.905273438 94 c 128,-1,31
 441.155273438 87 441.155273438 87 440.530273438 74 c 128,-1,32
 439.905273438 61 439.905273438 61 428.655273438 49.5 c 128,-1,33
 417.405273438 38 417.405273438 38 399.905273438 35 c 0,34,35
 384.905273438 32 384.905273438 32 368.655273438 29 c 0,36,37
 358.655273438 27 358.655273438 27 352.405273438 25 c 0,38,39
 349.905273438 25 349.905273438 25 347.405273438 24 c 0,40,41
 344.905273438 24 344.905273438 24 343.655273438 23 c 0,42,43
 341.155273438 23 341.155273438 23 339.280273438 22.5 c 128,-1,44
 337.405273438 22 337.405273438 22 336.155273438 22 c 0,45,46
 274.905273438 9 274.905273438 9 228.655273438 3 c 0,47,48
 117.405273438 -11 117.405273438 -11 53.6552734375 20 c 0,49,50
 11.1552734375 40 11.1552734375 40 17.4052734375 103 c 0,51,52
 23.6552734375 151 23.6552734375 151 57.4052734375 222 c 0,53,54
 123.655273438 357 123.655273438 357 249.905273438 506 c 0,55,56
 381.155273438 663 381.155273438 663 488.655273438 725 c 0,57,58
 558.655273438 765 558.655273438 765 607.405273438 755 c 0,59,60
 661.155273438 743 661.155273438 743 673.655273438 675 c 0,61,62
 676.155273438 663 676.155273438 663 666.155273438 650.5 c 128,-1,63
 656.155273438 638 656.155273438 638 641.155273438 633 c 0,64,65
 624.905273438 628 624.905273438 628 611.780273438 633 c 128,-1,66
 598.655273438 638 598.655273438 638 596.155273438 651 c 0,0,1
EndSplineSet
EndChar

StartChar: D
Encoding: 68 68 39
AltUni2: 00ff24.ffffffff.0 00216e.ffffffff.0 002145.ffffffff.0 001d30.ffffffff.0 0013a0.ffffffff.0 00ff24.ffffffff.0 00216e.ffffffff.0 002145.ffffffff.0 001d30.ffffffff.0 0013a0.ffffffff.0
Width: 556
GlyphClass: 1
Flags: W
LayerCount: 2
UndoRedoHistory
Layer: 1
Undoes
UndoOperation
Index: 0
Type: 3
WasModified: 0
WasOrder2: 1
Layer: 2
EndUndoOperation
EndUndoes
Redoes
EndRedoes
EndUndoRedoHistory
Fore
SplineSet
335.470703125 673 m 1,0,1
 260.470703125 522 260.470703125 522 170.470703125 301 c 0,2,3
 116.720703125 166 116.720703125 166 95.470703125 87 c 0,4,5
 84.220703125 47 84.220703125 47 82.970703125 20 c 1,6,7
 275.470703125 87 275.470703125 87 379.220703125 165 c 0,8,9
 449.220703125 215 449.220703125 215 507.970703125 277 c 0,10,11
 581.720703125 351 581.720703125 351 621.720703125 416 c 0,12,13
 667.970703125 491 667.970703125 491 662.970703125 549 c 0,14,15
 659.220703125 613 659.220703125 613 590.470703125 653 c 0,16,17
 562.970703125 670 562.970703125 670 488.595703125 677 c 128,-1,18
 414.220703125 684 414.220703125 684 336.720703125 678 c 1,19,-1
 335.470703125 673 l 1,0,1
106.720703125 596 m 0,20,21
 99.220703125 631 99.220703125 631 118.595703125 659.5 c 128,-1,22
 137.970703125 688 137.970703125 688 181.720703125 708 c 0,23,24
 245.470703125 736 245.470703125 736 342.970703125 745 c 0,25,26
 434.220703125 753 434.220703125 753 521.095703125 743.5 c 128,-1,27
 607.970703125 734 607.970703125 734 647.970703125 711 c 0,28,29
 739.220703125 657 739.220703125 657 744.220703125 569 c 0,30,31
 749.220703125 494 749.220703125 494 692.970703125 398 c 0,32,33
 650.470703125 326 650.470703125 326 565.470703125 241 c 0,34,35
 492.970703125 169 492.970703125 169 424.220703125 119 c 0,36,37
 294.220703125 22 294.220703125 22 71.720703125 -50 c 1,38,39
 55.470703125 -63 55.470703125 -63 39.220703125 -60 c 1,40,41
 -29.529296875 -82 -29.529296875 -82 -85.779296875 -94 c 0,42,43
 -103.279296875 -98 -103.279296875 -98 -115.779296875 -90.5 c 128,-1,44
 -128.279296875 -83 -128.279296875 -83 -128.279296875 -70 c 0,45,46
 -129.529296875 -56 -129.529296875 -56 -117.029296875 -44 c 128,-1,47
 -104.529296875 -32 -104.529296875 -32 -88.279296875 -28 c 0,48,49
 -48.279296875 -20 -48.279296875 -20 0.470703125 -6 c 1,50,-1
 -0.779296875 4 l 1,51,52
 2.970703125 38 2.970703125 38 15.470703125 86 c 0,53,54
 37.970703125 173 37.970703125 173 94.220703125 307 c 0,55,56
 167.970703125 489 167.970703125 489 249.220703125 664 c 1,57,58
 222.970703125 658 222.970703125 658 207.970703125 650 c 0,59,60
 191.720703125 643 191.720703125 643 187.970703125 637 c 0,61,62
 184.220703125 633 184.220703125 633 186.720703125 624 c 0,63,64
 189.220703125 611 189.220703125 611 179.845703125 598 c 128,-1,65
 170.470703125 585 170.470703125 585 154.220703125 579 c 0,66,67
 137.970703125 574 137.970703125 574 123.595703125 578.5 c 128,-1,68
 109.220703125 583 109.220703125 583 106.720703125 596 c 0,20,21
EndSplineSet
EndChar

StartChar: E
Encoding: 69 69 40
AltUni2: 00ff25.ffffffff.0 002130.ffffffff.0 001d31.ffffffff.0 0013ac.ffffffff.0 000415.ffffffff.0 000395.ffffffff.0 00ff25.ffffffff.0 002130.ffffffff.0 001d31.ffffffff.0 0013ac.ffffffff.0 000415.ffffffff.0 000395.ffffffff.0
Width: 469
GlyphClass: 1
Flags: W
LayerCount: 2
UndoRedoHistory
Layer: 1
Undoes
UndoOperation
Index: 0
Type: 3
WasModified: 0
WasOrder2: 1
Layer: 2
EndUndoOperation
EndUndoes
Redoes
EndRedoes
EndUndoRedoHistory
Fore
SplineSet
356.254882812 643 m 4,0,1
 300.004882812 578 300.004882812 578 228.754882812 464 c 4,2,3
 208.754882812 431 208.754882812 431 202.504882812 421 c 5,4,5
 305.004882812 462 305.004882812 462 428.754882812 482 c 4,6,7
 445.004882812 484 445.004882812 484 456.254882812 476 c 132,-1,8
 467.504882812 468 467.504882812 468 467.504882812 454.5 c 132,-1,9
 467.504882812 441 467.504882812 441 455.004882812 429 c 132,-1,10
 442.504882812 417 442.504882812 417 423.754882812 414 c 4,11,12
 266.254882812 388 266.254882812 388 152.504882812 327 c 5,13,14
 123.754882812 266 123.754882812 266 112.504882812 228 c 4,15,16
 72.5048828125 109 72.5048828125 109 105.004882812 58 c 4,17,18
 121.254882812 32 121.254882812 32 160.004882812 25 c 4,19,20
 207.504882812 17 207.504882812 17 283.754882812 33 c 4,21,22
 300.004882812 36 300.004882812 36 312.504882812 29.5 c 132,-1,23
 325.004882812 23 325.004882812 23 326.254882812 9 c 4,24,25
 326.254882812 -6 326.254882812 -6 314.379882812 -18 c 132,-1,26
 302.504882812 -30 302.504882812 -30 285.004882812 -33 c 4,27,28
 91.2548828125 -74 91.2548828125 -74 32.5048828125 15 c 4,29,30
 -14.9951171875 86 -14.9951171875 86 33.7548828125 232 c 4,31,32
 37.5048828125 244 37.5048828125 244 46.2548828125 268 c 5,33,34
 25.0048828125 265 25.0048828125 265 15.0048828125 278 c 4,35,36
 6.2548828125 288 6.2548828125 288 10.0048828125 302.5 c 132,-1,37
 13.7548828125 317 13.7548828125 317 28.7548828125 326 c 4,38,39
 51.2548828125 342 51.2548828125 342 90.0048828125 365 c 5,40,41
 118.754882812 422 118.754882812 422 157.504882812 483 c 4,42,43
 163.754882812 493 163.754882812 493 176.254882812 512.5 c 132,-1,44
 188.754882812 532 188.754882812 532 192.504882812 538 c 5,45,46
 165.004882812 547 165.004882812 547 176.254882812 575 c 4,47,48
 201.254882812 633 201.254882812 633 275.004882812 677 c 4,49,50
 333.754882812 711 333.754882812 711 415.004882812 730 c 4,51,52
 532.504882812 762 532.504882812 762 678.754882812 765 c 4,53,54
 695.004882812 766 695.004882812 766 704.379882812 756.5 c 132,-1,55
 713.754882812 747 713.754882812 747 710.004882812 732 c 4,56,57
 706.254882812 717 706.254882812 717 691.879882812 707.5 c 132,-1,58
 677.504882812 698 677.504882812 698 661.254882812 697 c 4,59,60
 533.754882812 695 533.754882812 695 421.254882812 666 c 4,61,62
 385.004882812 657 385.004882812 657 358.754882812 646 c 4,63,64
 357.504882812 645 357.504882812 645 356.254882812 643 c 4,0,1
EndSplineSet
EndChar

StartChar: F
Encoding: 70 70 41
AltUni2: 00ff26.ffffffff.0 00a7f3.ffffffff.0 002131.ffffffff.0 00ff26.ffffffff.0 00a7f3.ffffffff.0 002131.ffffffff.0
Width: 492
GlyphClass: 1
Flags: W
LayerCount: 2
UndoRedoHistory
Layer: 1
Undoes
UndoOperation
Index: 0
Type: 3
WasModified: 0
WasOrder2: 1
Layer: 2
EndUndoOperation
EndUndoes
Redoes
EndRedoes
EndUndoRedoHistory
Fore
SplineSet
220.948242188 672 m 4,0,1
 224.698242188 673 224.698242188 673 230.948242188 676 c 4,2,3
 324.698242188 702 324.698242188 702 453.448242188 727 c 4,4,5
 544.698242188 745 544.698242188 745 607.198242188 748 c 4,6,7
 692.198242188 753 692.198242188 753 722.198242188 732 c 4,8,9
 733.448242188 725 733.448242188 725 732.823242188 711 c 132,-1,10
 732.198242188 697 732.198242188 697 719.698242188 685 c 4,11,12
 707.198242188 673 707.198242188 673 690.323242188 670 c 132,-1,13
 673.448242188 667 673.448242188 667 662.198242188 676 c 4,14,15
 660.948242188 677 660.948242188 677 660.948242188 677 c 4,16,17
 658.448242188 678 658.448242188 678 657.198242188 678 c 4,18,19
 650.948242188 680 650.948242188 680 643.448242188 680 c 4,20,21
 624.698242188 681 624.698242188 681 594.698242188 680 c 4,22,23
 547.198242188 678 547.198242188 678 452.198242188 661 c 4,24,25
 344.698242188 640 344.698242188 640 260.948242188 617 c 5,26,27
 258.448242188 611 258.448242188 611 255.323242188 602.5 c 132,-1,28
 252.198242188 594 252.198242188 594 247.198242188 582 c 132,-1,29
 242.198242188 570 242.198242188 570 238.448242188 561 c 4,30,31
 210.948242188 490 210.948242188 490 202.198242188 468 c 4,32,33
 192.198242188 441 192.198242188 441 173.448242188 392 c 5,34,35
 305.948242188 437 305.948242188 437 488.448242188 437 c 4,36,37
 504.698242188 437 504.698242188 437 513.448242188 427 c 132,-1,38
 522.198242188 417 522.198242188 417 517.823242188 402.5 c 132,-1,39
 513.448242188 388 513.448242188 388 499.073242188 378.5 c 132,-1,40
 484.698242188 369 484.698242188 369 468.448242188 369 c 4,41,42
 265.948242188 369 265.948242188 369 144.698242188 313 c 5,43,44
 59.6982421875 76 59.6982421875 76 60.9482421875 -11 c 4,45,46
 60.9482421875 -25 60.9482421875 -25 49.6982421875 -37 c 132,-1,47
 38.4482421875 -49 38.4482421875 -49 21.5732421875 -53 c 132,-1,48
 4.6982421875 -57 4.6982421875 -57 -7.1767578125 -50 c 132,-1,49
 -19.0517578125 -43 -19.0517578125 -43 -20.3017578125 -29 c 4,50,51
 -24.0517578125 73 -24.0517578125 73 69.6982421875 326 c 4,52,53
 75.9482421875 343 75.9482421875 343 124.698242188 474 c 6,54,-1
 160.948242188 567 l 6,55,56
 169.698242188 590 169.698242188 590 174.698242188 600 c 5,57,58
 162.198242188 604 162.198242188 604 158.448242188 619 c 4,59,60
 155.948242188 632 155.948242188 632 165.323242188 645 c 132,-1,61
 174.698242188 658 174.698242188 658 192.198242188 664 c 4,62,63
 199.698242188 666 199.698242188 666 220.948242188 672 c 4,0,1
EndSplineSet
EndChar

StartChar: G
Encoding: 71 71 42
AltUni2: 00ff27.ffffffff.0 001d33.ffffffff.0 0013c0.ffffffff.0 00ff27.ffffffff.0 001d33.ffffffff.0 0013c0.ffffffff.0
Width: 443
GlyphClass: 1
Flags: W
LayerCount: 2
UndoRedoHistory
Layer: 1
Undoes
UndoOperation
Index: 0
Type: 3
WasModified: 0
WasOrder2: 1
Layer: 2
EndUndoOperation
EndUndoes
Redoes
EndRedoes
EndUndoRedoHistory
Fore
SplineSet
368.985351562 337 m 0,0,1
 450.235351562 363 450.235351562 363 490.235351562 360 c 0,2,3
 547.735351562 355 547.735351562 355 540.235351562 300 c 0,4,5
 536.485351562 270 536.485351562 270 498.985351562 203 c 0,6,7
 488.985351562 185 488.985351562 185 461.485351562 137 c 2,8,-1
 415.235351562 57 l 2,9,10
 407.735351562 44 407.735351562 44 392.735351562 37 c 128,-1,11
 377.735351562 30 377.735351562 30 362.735351562 33 c 0,12,13
 360.235351562 33 360.235351562 33 356.485351562 35 c 1,14,15
 345.235351562 29 345.235351562 29 340.235351562 27 c 0,16,17
 308.985351562 13 308.985351562 13 280.235351562 5 c 0,18,19
 210.235351562 -13 210.235351562 -13 151.485351562 10 c 0,20,21
 -28.5146484375 82 -28.5146484375 82 31.4853515625 254 c 0,22,23
 76.4853515625 383 76.4853515625 383 252.735351562 543 c 0,24,25
 398.985351562 676 398.985351562 676 530.235351562 749 c 0,26,27
 596.485351562 786 596.485351562 786 632.735351562 786 c 0,28,29
 673.985351562 786 673.985351562 786 671.485351562 751 c 0,30,31
 671.485351562 734 671.485351562 734 651.485351562 705 c 0,32,33
 642.735351562 693 642.735351562 693 627.110351562 687.5 c 128,-1,34
 611.485351562 682 611.485351562 682 596.485351562 686 c 0,35,36
 580.235351562 692 580.235351562 692 580.235351562 707 c 1,37,38
 578.985351562 706 578.985351562 706 572.110351562 702.5 c 128,-1,39
 565.235351562 699 565.235351562 699 560.235351562 697 c 0,40,41
 437.735351562 629 437.735351562 629 302.735351562 506 c 0,42,43
 143.985351562 360 143.985351562 360 106.485351562 251 c 0,44,45
 62.7353515625 124 62.7353515625 124 197.735351562 70 c 0,46,47
 233.985351562 56 233.985351562 56 273.985351562 67 c 0,48,49
 302.735351562 74 302.735351562 74 366.485351562 107 c 1,50,51
 371.485351562 115 371.485351562 115 378.360351562 127 c 128,-1,52
 385.235351562 139 385.235351562 139 388.985351562 145.5 c 128,-1,53
 392.735351562 152 392.735351562 152 392.735351562 153 c 0,54,55
 415.235351562 192 415.235351562 192 430.235351562 217 c 0,56,57
 460.235351562 272 460.235351562 272 463.985351562 292 c 0,58,59
 462.735351562 293 462.735351562 293 462.735351562 295 c 0,60,61
 443.985351562 296 443.985351562 296 380.235351562 277 c 0,62,63
 363.985351562 272 363.985351562 272 351.485351562 277.5 c 128,-1,64
 338.985351562 283 338.985351562 283 336.485351562 295 c 0,65,66
 333.985351562 308 333.985351562 308 343.360351562 320.5 c 128,-1,67
 352.735351562 333 352.735351562 333 368.985351562 337 c 0,0,1
EndSplineSet
EndChar

StartChar: H
Encoding: 72 72 43
AltUni2: 00ff28.ffffffff.0 00210d.ffffffff.0 00210c.ffffffff.0 00210b.ffffffff.0 001d34.ffffffff.0 0013bb.ffffffff.0 00041d.ffffffff.0 000397.ffffffff.0 00ff28.ffffffff.0 00210d.ffffffff.0 00210c.ffffffff.0 00210b.ffffffff.0 001d34.ffffffff.0 0013bb.ffffffff.0 00041d.ffffffff.0 000397.ffffffff.0
Width: 442
GlyphClass: 1
Flags: W
LayerCount: 2
UndoRedoHistory
Layer: 1
Undoes
UndoOperation
Index: 0
Type: 3
WasModified: 0
WasOrder2: 1
Layer: 2
EndUndoOperation
EndUndoes
Redoes
EndRedoes
EndUndoRedoHistory
Fore
SplineSet
664.313476562 697 m 0,0,1
 541.813476562 504 541.813476562 504 483.063476562 363 c 0,2,3
 404.313476562 174 404.313476562 174 413.063476562 34 c 0,4,5
 414.313476562 20 414.313476562 20 403.063476562 8 c 128,-1,6
 391.813476562 -4 391.813476562 -4 374.313476562 -8 c 128,-1,7
 356.813476562 -12 356.813476562 -12 344.938476562 -5.5 c 128,-1,8
 333.063476562 1 333.063476562 1 330.563476562 14 c 0,9,10
 323.063476562 152 323.063476562 152 385.563476562 319 c 1,11,12
 296.813476562 302 296.813476562 302 288.063476562 300 c 0,13,14
 213.063476562 285 213.063476562 285 160.563476562 267 c 0,15,16
 134.313476562 259 134.313476562 259 100.563476562 243 c 1,17,18
 80.5634765625 185 80.5634765625 185 69.3134765625 147 c 0,19,20
 45.5634765625 51 45.5634765625 51 63.0634765625 0 c 0,21,22
 68.0634765625 -13 68.0634765625 -13 59.3134765625 -26.5 c 128,-1,23
 50.5634765625 -40 50.5634765625 -40 34.3134765625 -47 c 0,24,25
 18.0634765625 -54 18.0634765625 -54 3.0634765625 -50 c 128,-1,26
 -11.9365234375 -46 -11.9365234375 -46 -15.6865234375 -33 c 0,27,28
 -36.9365234375 29 -36.9365234375 29 -9.4365234375 144 c 0,29,30
 13.0634765625 235 13.0634765625 235 65.5634765625 358 c 0,31,32
 98.0634765625 435 98.0634765625 435 146.813476562 533 c 0,33,34
 149.313476562 537 149.313476562 537 186.813476562 611 c 128,-1,35
 224.313476562 685 224.313476562 685 231.813476562 702 c 0,36,37
 238.063476562 716 238.063476562 716 253.688476562 724 c 128,-1,38
 269.313476562 732 269.313476562 732 284.938476562 730 c 128,-1,39
 300.563476562 728 300.563476562 728 306.813476562 716.5 c 128,-1,40
 313.063476562 705 313.063476562 705 306.813476562 690 c 0,41,42
 300.563476562 677 300.563476562 677 281.813476562 640 c 128,-1,43
 263.063476562 603 263.063476562 603 243.688476562 564.5 c 128,-1,44
 224.313476562 526 224.313476562 526 221.813476562 521 c 0,45,46
 174.313476562 423 174.313476562 423 141.813476562 349 c 2,47,-1
 130.563476562 324 l 1,48,-1
 146.813476562 330 l 2,49,50
 206.813476562 350 206.813476562 350 286.813476562 366 c 0,51,52
 323.063476562 373 323.063476562 373 414.313476562 390 c 1,53,54
 474.313476562 530 474.313476562 530 594.313476562 717 c 0,55,56
 604.313476562 731 604.313476562 731 620.563476562 737 c 128,-1,57
 636.813476562 743 636.813476562 743 651.188476562 739 c 128,-1,58
 665.563476562 735 665.563476562 735 669.313476562 723 c 128,-1,59
 673.063476562 711 673.063476562 711 664.313476562 697 c 0,0,1
EndSplineSet
EndChar

StartChar: I
Encoding: 73 73 44
AltUni2: 00ff29.ffffffff.0 002160.ffffffff.0 002111.ffffffff.0 002110.ffffffff.0 001d35.ffffffff.0 0004c0.ffffffff.0 000406.ffffffff.0 000399.ffffffff.0 00ff29.ffffffff.0 002160.ffffffff.0 002111.ffffffff.0 002110.ffffffff.0 001d35.ffffffff.0 0004c0.ffffffff.0 000406.ffffffff.0 000399.ffffffff.0
Width: 186
GlyphClass: 1
Flags: W
LayerCount: 2
UndoRedoHistory
Layer: 1
Undoes
UndoOperation
Index: 0
Type: 3
WasModified: 0
WasOrder2: 1
Layer: 2
EndUndoOperation
EndUndoes
Redoes
EndRedoes
EndUndoRedoHistory
Fore
SplineSet
67.009765625 -30 m 0,0,1
 48.259765625 -51 48.259765625 -51 28.259765625 -12 c 0,2,3
 7.009765625 31 7.009765625 31 130.759765625 357 c 0,4,5
 268.259765625 723 268.259765625 723 295.759765625 739 c 0,6,7
 364.509765625 780 364.509765625 780 358.259765625 713 c 0,8,9
 358.259765625 710 358.259765625 710 204.509765625 350 c 0,10,11
 172.009765625 273 172.009765625 273 97.009765625 17 c 0,12,13
 94.509765625 8 94.509765625 8 92.009765625 3 c 1,14,15
 94.509765625 3 94.509765625 3 82.009765625 -14 c 0,16,17
 69.509765625 -31 69.509765625 -31 67.009765625 -30 c 0,0,1
EndSplineSet
EndChar

StartChar: J
Encoding: 74 74 45
AltUni2: 00ff2a.ffffffff.0 001d36.ffffffff.0 0013ab.ffffffff.0 000408.ffffffff.0 00ff2a.ffffffff.0 001d36.ffffffff.0 0013ab.ffffffff.0 000408.ffffffff.0
Width: 408
GlyphClass: 1
Flags: W
LayerCount: 2
UndoRedoHistory
Layer: 1
Undoes
UndoOperation
Index: 0
Type: 3
WasModified: 0
WasOrder2: 1
Layer: 2
EndUndoOperation
EndUndoes
Redoes
EndRedoes
EndUndoRedoHistory
Fore
SplineSet
92.4111328125 156 m 0,0,1
 98.6611328125 72 98.6611328125 72 147.411132812 48 c 0,2,3
 189.911132812 28 189.911132812 28 249.911132812 72 c 0,4,5
 331.161132812 133 331.161132812 133 401.161132812 279 c 0,6,7
 486.161132812 457 486.161132812 457 528.661132812 720 c 0,8,9
 531.161132812 734 531.161132812 734 543.661132812 744.5 c 128,-1,10
 556.161132812 755 556.161132812 755 573.661132812 758 c 0,11,12
 589.911132812 760 589.911132812 760 599.911132812 750.5 c 128,-1,13
 609.911132812 741 609.911132812 741 606.161132812 727 c 0,14,15
 562.411132812 454 562.411132812 454 472.411132812 267 c 0,16,17
 392.411132812 100 392.411132812 100 291.161132812 25 c 0,18,19
 239.911132812 -12 239.911132812 -12 189.911132812 -22.5 c 128,-1,20
 139.911132812 -33 139.911132812 -33 98.6611328125 -14 c 0,21,22
 21.1611328125 22 21.1611328125 22 13.6611328125 135 c 0,23,24
 12.4111328125 149 12.4111328125 149 23.0361328125 161.5 c 128,-1,25
 33.6611328125 174 33.6611328125 174 50.5361328125 178 c 128,-1,26
 67.4111328125 182 67.4111328125 182 79.2861328125 176 c 128,-1,27
 91.1611328125 170 91.1611328125 170 92.4111328125 156 c 0,0,1
EndSplineSet
EndChar

StartChar: K
Encoding: 75 75 46
AltUni2: 00ff2b.ffffffff.0 00212a.ffffffff.0 001d37.ffffffff.0 0013e6.ffffffff.0 00041a.ffffffff.0 00039a.ffffffff.0 00ff2b.ffffffff.0 00212a.ffffffff.0 001d37.ffffffff.0 0013e6.ffffffff.0 00041a.ffffffff.0 00039a.ffffffff.0
Width: 454
GlyphClass: 1
Flags: W
LayerCount: 2
UndoRedoHistory
Layer: 1
Undoes
UndoOperation
Index: 0
Type: 3
WasModified: 0
WasOrder2: 1
Layer: 2
EndUndoOperation
EndUndoes
Redoes
EndRedoes
EndUndoRedoHistory
Fore
SplineSet
368.233398438 719.5 m 128,-1,1
 361.983398438 705 361.983398438 705 314.483398438 610 c 0,2,3
 313.233398438 604 313.233398438 604 305.733398438 592 c 0,4,5
 299.483398438 577 299.483398438 577 296.983398438 573 c 0,6,7
 285.733398438 548 285.733398438 548 276.983398438 533 c 0,8,9
 243.233398438 461 243.233398438 461 234.483398438 446 c 1,10,11
 424.483398438 633 424.483398438 633 621.983398438 740 c 0,12,13
 636.983398438 748 636.983398438 748 652.608398438 746 c 128,-1,14
 668.233398438 744 668.233398438 744 674.483398438 733 c 0,15,16
 680.733398438 721 680.733398438 721 675.108398438 707.5 c 128,-1,17
 669.483398438 694 669.483398438 694 654.483398438 686 c 0,18,19
 434.483398438 565 434.483398438 565 241.983398438 359 c 1,20,21
 251.983398438 341 251.983398438 341 276.983398438 284 c 0,22,23
 276.983398438 282 276.983398438 282 279.483398438 277 c 128,-1,24
 281.983398438 272 281.983398438 272 281.983398438 270 c 0,25,26
 284.483398438 260 284.483398438 260 288.233398438 256 c 0,27,28
 321.983398438 177 321.983398438 177 343.233398438 139 c 0,29,30
 376.983398438 81 376.983398438 81 423.233398438 38 c 0,31,32
 433.233398438 29 433.233398438 29 430.108398438 15 c 128,-1,33
 426.983398438 1 426.983398438 1 414.483398438 -10 c 0,34,35
 400.733398438 -22 400.733398438 -22 383.858398438 -23 c 128,-1,36
 366.983398438 -24 366.983398438 -24 356.983398438 -15 c 0,37,38
 306.983398438 29 306.983398438 29 266.983398438 98 c 0,39,40
 240.733398438 144 240.733398438 144 209.483398438 221 c 0,41,42
 206.983398438 231 206.983398438 231 203.233398438 234 c 0,43,44
 198.233398438 247 198.233398438 247 198.233398438 248 c 0,45,46
 195.733398438 255 195.733398438 255 189.483398438 269 c 128,-1,47
 183.233398438 283 183.233398438 283 180.733398438 289 c 1,48,49
 176.983398438 284 176.983398438 284 168.233398438 274 c 128,-1,50
 159.483398438 264 159.483398438 264 155.733398438 258 c 0,51,52
 148.233398438 249 148.233398438 249 140.733398438 245 c 1,53,54
 105.733398438 164 105.733398438 164 81.9833984375 104 c 0,55,56
 63.2333984375 52 63.2333984375 52 58.2333984375 23 c 0,57,58
 56.9833984375 10 56.9833984375 10 56.9833984375 10 c 0,59,60
 75.7333984375 -5 75.7333984375 -5 61.9833984375 -28 c 0,61,62
 53.2333984375 -42 53.2333984375 -42 36.9833984375 -48.5 c 128,-1,63
 20.7333984375 -55 20.7333984375 -55 6.9833984375 -51 c 0,64,65
 -16.7666015625 -46 -16.7666015625 -46 -21.7666015625 -20 c 0,66,67
 -25.5166015625 -4 -25.5166015625 -4 -21.7666015625 16 c 0,68,69
 -16.7666015625 51 -16.7666015625 51 4.4833984375 108 c 0,70,71
 40.7333984375 208 40.7333984375 208 116.983398438 369 c 0,72,73
 125.733398438 386 125.733398438 386 140.733398438 418.5 c 128,-1,74
 155.733398438 451 155.733398438 451 159.483398438 458 c 0,75,76
 170.733398438 479 170.733398438 479 201.983398438 545 c 2,77,-1
 209.483398438 560 l 2,78,79
 218.233398438 576 218.233398438 576 221.983398438 585 c 2,80,-1
 230.733398438 604 l 2,81,82
 236.983398438 614 236.983398438 614 239.483398438 622 c 0,83,84
 283.233398438 710 283.233398438 710 291.983398438 729 c 0,85,86
 298.233398438 743 298.233398438 743 313.233398438 751.5 c 128,-1,87
 328.233398438 760 328.233398438 760 345.733398438 758 c 0,88,89
 360.733398438 756 360.733398438 756 367.608398438 745 c 128,-1,0
 374.483398438 734 374.483398438 734 368.233398438 719.5 c 128,-1,1
EndSplineSet
EndChar

StartChar: L
Encoding: 76 76 47
AltUni2: 00ff2c.ffffffff.0 00216c.ffffffff.0 002112.ffffffff.0 001d38.ffffffff.0 0013de.ffffffff.0 00ff2c.ffffffff.0 00216c.ffffffff.0 002112.ffffffff.0 001d38.ffffffff.0 0013de.ffffffff.0
Width: 431
GlyphClass: 1
Flags: W
LayerCount: 2
UndoRedoHistory
Layer: 1
Undoes
UndoOperation
Index: 0
Type: 3
WasModified: 0
WasOrder2: 1
Layer: 2
EndUndoOperation
EndUndoes
Redoes
EndRedoes
EndUndoRedoHistory
Fore
SplineSet
322.625 713 m 0,0,1
 312.625 688 312.625 688 292.625 640 c 0,2,3
 257.625 561 257.625 561 247.625 533 c 0,4,5
 211.375 446 211.375 446 180.125 365 c 0,6,7
 126.375 217 126.375 217 116.375 130 c 0,8,9
 113.875 80 113.875 80 123.875 60 c 0,10,11
 131.375 40 131.375 40 150.125 37 c 0,12,13
 177.625 33 177.625 33 220.125 36 c 0,14,15
 262.625 40 262.625 40 298.875 46 c 0,16,17
 300.125 46 300.125 46 303.25 46.5 c 128,-1,18
 306.375 47 306.375 47 308.875 47 c 0,19,20
 353.875 55 353.875 55 375.125 56 c 0,21,22
 408.875 60 408.875 60 442.625 60 c 0,23,24
 458.875 60 458.875 60 466.375 49.5 c 128,-1,25
 473.875 39 473.875 39 470.125 25 c 0,26,27
 465.125 10 465.125 10 451.375 -1 c 128,-1,28
 437.625 -12 437.625 -12 422.625 -12 c 0,29,30
 378.875 -12 378.875 -12 300.125 -24 c 0,31,32
 296.375 -25 296.375 -25 291.375 -25 c 0,33,34
 228.875 -34 228.875 -34 205.125 -36 c 0,35,36
 152.625 -39 152.625 -39 120.125 -34 c 0,37,38
 68.875 -27 68.875 -27 48.875 20 c 0,39,40
 33.875 56 33.875 56 38.875 117 c 0,41,42
 47.625 211 47.625 211 106.375 370 c 0,43,44
 137.625 454 137.625 454 173.875 542 c 2,45,-1
 220.125 648 l 2,46,47
 246.375 710 246.375 710 247.625 717 c 0,48,49
 252.625 732 252.625 732 267.625 742 c 128,-1,50
 282.625 752 282.625 752 297.625 751 c 0,51,52
 313.875 750 313.875 750 320.75 738.5 c 128,-1,53
 327.625 727 327.625 727 322.625 713 c 0,0,1
EndSplineSet
EndChar

StartChar: M
Encoding: 77 77 48
AltUni2: 00ff2d.ffffffff.0 00216f.ffffffff.0 002133.ffffffff.0 001d39.ffffffff.0 0013b7.ffffffff.0 00041c.ffffffff.0 00039c.ffffffff.0 00ff2d.ffffffff.0 00216f.ffffffff.0 002133.ffffffff.0 001d39.ffffffff.0 0013b7.ffffffff.0 00041c.ffffffff.0 00039c.ffffffff.0
Width: 536
GlyphClass: 1
Flags: W
LayerCount: 2
UndoRedoHistory
Layer: 1
Undoes
UndoOperation
Index: 0
Type: 3
WasModified: 0
WasOrder2: 1
Layer: 2
EndUndoOperation
EndUndoes
Redoes
EndRedoes
EndUndoRedoHistory
Fore
SplineSet
318.75 714 m 1,0,1
 323.75 720 323.75 720 325 724 c 2,2,-1
 327.5 730 l 2,3,4
 328.75 733 328.75 733 327.5 742 c 0,5,6
 325 758 325 758 311.25 763 c 0,7,8
 305 765 305 765 297.5 765 c 128,-1,9
 290 765 290 765 279.375 760 c 128,-1,10
 268.75 755 268.75 755 265 752 c 0,11,12
 262.5 750 262.5 750 260 748 c 0,13,14
 251.25 737 251.25 737 247.5 730 c 1,15,16
 245 726 245 726 241.25 721 c 1,17,18
 141.25 580 141.25 580 96.25 487 c 0,19,20
 33.75 361 33.75 361 10 279 c 0,21,22
 3.75 257 3.75 257 -1.25 235 c 0,23,24
 -6.25 205 -6.25 205 -8.75 179.5 c 128,-1,25
 -11.25 154 -11.25 154 -13.125 141 c 128,-1,26
 -15 128 -15 128 -15 119 c 0,27,28
 -15 110 -15 110 -17.5 105 c 0,29,30
 -18.75 98 -18.75 98 -18.75 85 c 0,31,32
 -21.25 65 -21.25 65 -31.25 -14 c 1,33,34
 -30 -20 -30 -20 -27.5 -23 c 2,35,36
 -23.75 -31 -23.75 -31 -16.25 -38 c 0,37,38
 -8.75 -46 -8.75 -46 0 -46 c 0,39,40
 1.25 -46 1.25 -46 1.25 -46 c 0,41,42
 18.75 -44 18.75 -44 30.625 -33 c 128,-1,43
 42.5 -22 42.5 -22 46.25 -9 c 0,44,45
 46.25 -8 46.25 -8 47.5 -7 c 0,46,47
 55 37 55 37 61.25 104 c 128,-1,48
 67.5 171 67.5 171 68.75 184.5 c 128,-1,49
 70 198 70 198 77.5 240 c 0,50,51
 81.25 262 81.25 262 87.5 281 c 0,52,53
 110 358 110 358 166.25 471 c 0,54,55
 187.5 512 187.5 512 232.5 586 c 1,56,57
 228.75 518 228.75 518 226.25 490 c 0,58,59
 208.75 390 208.75 390 203.75 317 c 0,60,61
 200 218 200 218 226.25 137 c 0,62,63
 232.5 121 232.5 121 251.25 111 c 0,64,65
 267.5 107 267.5 107 273.75 107 c 2,66,67
 273.75 105 273.75 105 273.75 107 c 2,68,69
 276.25 107 276.25 107 280 107 c 0,70,71
 296.25 107 296.25 107 311.25 117 c 0,72,73
 322.5 125 322.5 125 328.75 133 c 0,74,75
 332.5 136 332.5 136 335 143 c 2,76,77
 341.25 153 341.25 153 347.5 165 c 1,78,79
 358.75 187 358.75 187 393.75 261 c 0,80,81
 438.75 357 438.75 357 471.25 421 c 0,82,83
 547.5 568 547.5 568 585 618 c 0,84,85
 591.25 626 591.25 626 602.5 644 c 1,86,-1
 597.5 627 l 2,87,88
 591.25 606 591.25 606 588.75 589 c 1,89,90
 573.75 522 573.75 522 572.5 491 c 1,91,-1
 572.5 491 l 2,92,93
 571.25 485 571.25 485 570 479 c 2,94,-1
 570 479 l 1,95,-1
 568.75 475 l 1,96,-1
 568.75 472 l 1,97,-1
 568.75 471 l 2,98,99
 568.75 470 568.75 470 568.75 468 c 0,100,101
 568.75 463 568.75 463 563.75 430 c 0,102,103
 562.5 418 562.5 418 550 361 c 1,104,-1
 550 361 l 2,105,106
 542.5 335 542.5 335 535 295 c 0,107,108
 521.25 229 521.25 229 518.75 221 c 0,109,110
 503.75 143 503.75 143 498.75 85 c 0,111,112
 495 10 495 10 515 -18 c 0,113,114
 523.75 -30 523.75 -30 539.375 -30 c 128,-1,115
 555 -30 555 -30 570 -21 c 0,116,117
 586.25 -10 586.25 -10 590 4 c 0,118,119
 593.75 17 593.75 17 586.25 26 c 0,120,121
 573.75 41 573.75 41 577.5 97 c 0,122,123
 581.25 153 581.25 153 597.5 227 c 1,124,-1
 597.5 227 l 2,125,126
 600 238 600 238 610.625 289.5 c 128,-1,127
 621.25 341 621.25 341 628.75 364 c 0,128,129
 642.5 425 642.5 425 643.125 435.5 c 128,-1,130
 643.75 446 643.75 446 645 457 c 2,131,-1
 647.5 475 l 2,132,133
 648.75 479 648.75 479 647.5 482 c 1,134,-1
 650 489 l 1,135,136
 651.25 500 651.25 500 651.875 505.5 c 128,-1,137
 652.5 511 652.5 511 653.75 523 c 0,138,139
 655 535 655 535 658.75 554 c 0,140,141
 662.5 573 662.5 573 667.5 592 c 0,142,143
 668.75 605 668.75 605 677.5 637 c 2,144,-1
 680 645 l 2,145,146
 683.75 657 683.75 657 686.25 673 c 1,147,148
 691.25 688 691.25 688 691.25 708 c 0,149,150
 691.25 720 691.25 720 686.25 730 c 0,151,152
 677.5 746 677.5 746 658.75 746 c 0,153,154
 653.75 746 653.75 746 647.5 745 c 0,155,156
 608.75 738 608.75 738 571.25 701 c 0,157,158
 545 675 545 675 511.25 629 c 0,159,160
 463.75 562 463.75 562 400 433 c 0,161,162
 396.25 424 396.25 424 350 331 c 0,163,164
 340 309 340 309 307.5 243 c 0,165,166
 300 224 300 224 295 217 c 2,167,168
 292.5 213 292.5 213 291.25 210 c 1,169,170
 280 273 280 273 282.5 331 c 0,171,172
 283.75 390 283.75 390 303.75 498 c 0,173,174
 308.75 539 308.75 539 311.25 596 c 1,175,176
 311.25 596 311.25 596 311.25 596 c 2,177,178
 312.5 598 312.5 598 311.25 601 c 0,179,180
 315 669 315 669 316.25 679 c 128,-1,181
 317.5 689 317.5 689 317.5 692 c 0,182,183
 317.5 693 317.5 693 317.5 697 c 0,184,185
 317.5 702 317.5 702 318.75 705 c 0,186,187
 317.5 706 317.5 706 317.5 707 c 0,188,189
 318.75 710 318.75 710 317.5 712 c 1,190,-1
 317.5 711 l 1,191,-1
 317.5 712 l 1,192,-1
 318.75 714 l 1,0,1
EndSplineSet
EndChar

StartChar: N
Encoding: 78 78 49
AltUni2: 00ff2e.ffffffff.0 002115.ffffffff.0 001d3a.ffffffff.0 00039d.ffffffff.0 00ff2e.ffffffff.0 002115.ffffffff.0 001d3a.ffffffff.0 00039d.ffffffff.0
Width: 496
GlyphClass: 1
Flags: W
LayerCount: 2
UndoRedoHistory
Layer: 1
Undoes
UndoOperation
Index: 0
Type: 3
WasModified: 0
WasOrder2: 1
Layer: 2
EndUndoOperation
EndUndoes
Redoes
EndRedoes
EndUndoRedoHistory
Fore
SplineSet
439.37890625 69 m 1,0,1
 453.935546875 94.50390625 453.935546875 94.50390625 466.638671875 121.615234375 c 0,2,3
 481.494140625 153.319335938 481.494140625 153.319335938 498.41796875 197.461914062 c 0,4,5
 516.096679688 243.576171875 516.096679688 243.576171875 526.794921875 279.240234375 c 0,6,7
 535.3125 307.63671875 535.3125 307.63671875 545.00390625 349.5 c 0,8,9
 555.010742188 392.724609375 555.010742188 392.724609375 559.322265625 407.80859375 c 0,10,11
 566.087890625 431.477539062 566.087890625 431.477539062 576.026367188 453.735351562 c 0,12,13
 590.474609375 486.091796875 590.474609375 486.091796875 590.629882812 486.475585938 c 0,14,15
 595.06640625 497.434570312 595.06640625 497.434570312 597.736328125 506.166992188 c 0,16,17
 600.165039062 514.961914062 600.165039062 514.961914062 600.760742188 519.436523438 c 2,18,19
 600.760742188 519.436523438 600.760742188 519.436523438 605.8359375 680.66796875 c 1,20,21
 606.135742188 679.3515625 606.135742188 679.3515625 606.87890625 674 c 1,22,23
 562.08984375 690.938476562 562.08984375 690.938476562 561.296875 698.568359375 c 0,24,25
 560.470703125 706.509765625 560.470703125 706.509765625 588.639648438 720.7109375 c 0,26,27
 606.181640625 729.553710938 606.181640625 729.553710938 669.37890625 757 c 0,28,29
 674.194335938 757.955078125 674.194335938 757.955078125 684.098632812 757.62890625 c 0,30,31
 689.512695312 756.616210938 689.512695312 756.616210938 693.258789062 753.517578125 c 0,32,33
 697.038085938 676.053710938 697.038085938 676.053710938 698.602539062 645.4296875 c 128,-1,34
 700.166015625 614.806640625 700.166015625 614.806640625 698.981445312 570.67578125 c 128,-1,35
 697.796875 526.545898438 697.796875 526.545898438 695.981445312 513.879882812 c 128,-1,36
 694.165039062 501.213867188 694.165039062 501.213867188 684.455078125 469.349609375 c 128,-1,37
 674.745117188 437.484375 674.745117188 437.484375 666.436523438 421.063476562 c 128,-1,38
 658.127929688 404.642578125 658.127929688 404.642578125 637.227539062 362.684570312 c 0,39,40
 627.879882812 351.375 627.879882812 351.375 620.53515625 338.412109375 c 0,41,42
 615.248046875 329.083007812 615.248046875 329.083007812 610.60546875 318.228515625 c 0,43,44
 606.608398438 308.881835938 606.608398438 308.881835938 603.12890625 298.5 c 0,45,46
 600.23828125 289.872070312 600.23828125 289.872070312 596.87890625 277.875 c 0,47,48
 595.627929688 273.405273438 595.627929688 273.405273438 593.352539062 265.022460938 c 128,-1,49
 591.078125 256.639648438 591.078125 256.639648438 590.62890625 255 c 0,50,51
 583.922851562 230.524414062 583.922851562 230.524414062 577.583984375 211.631835938 c 0,52,53
 570.647460938 190.959960938 570.647460938 190.959960938 555.948242188 153.526367188 c 0,54,55
 540.68359375 114.651367188 540.68359375 114.651367188 534.615234375 100.631835938 c 0,56,57
 527.705078125 84.66796875 527.705078125 84.66796875 521.25390625 73 c 0,58,59
 505.985351562 45.38671875 505.985351562 45.38671875 485.16015625 25.75 c 0,60,61
 468.0625 9.6279296875 468.0625 9.6279296875 450.62890625 2 c 0,62,63
 438.291015625 -3.3984375 438.291015625 -3.3984375 426.374023438 -4.1103515625 c 0,64,65
 417.212890625 -4.6572265625 417.212890625 -4.6572265625 408.607421875 -2.44140625 c 0,66,67
 393.317382812 1.49609375 393.317382812 1.49609375 380.124023438 14.3896484375 c 0,68,69
 369.212890625 25.0517578125 369.212890625 25.0517578125 360.62890625 40 c 0,70,71
 349.434570312 59.494140625 349.434570312 59.494140625 342.19140625 90 c 0,72,73
 335.100585938 119.866210938 335.100585938 119.866210938 329.37890625 162 c 0,74,75
 328.50390625 168.447265625 328.50390625 168.447265625 325.31640625 193.875 c 0,76,77
 323.4921875 208.43359375 323.4921875 208.43359375 320.62890625 229.5 c 0,78,79
 317.900390625 249.577148438 317.900390625 249.577148438 316.72265625 261 c 0,80,81
 315.8046875 269.905273438 315.8046875 269.905273438 315.00390625 280.5 c 0,82,83
 314.250976562 290.463867188 314.250976562 290.463867188 313.530273438 301.77734375 c 128,-1,84
 312.809570312 313.090820312 312.809570312 313.090820312 311.999023438 326.673828125 c 128,-1,85
 311.189453125 340.255859375 311.189453125 340.255859375 310.694335938 347.958007812 c 0,86,87
 307.766601562 393.548828125 307.766601562 393.548828125 304.016601562 437.333007812 c 0,88,89
 301.254882812 469.581054688 301.254882812 469.581054688 296.944335938 518.833007812 c 0,90,91
 294.561523438 546.063476562 294.561523438 546.063476562 292.50390625 562 c 0,92,93
 289.192382812 587.649414062 289.192382812 587.649414062 283.91015625 609.25 c 0,94,95
 278.18359375 632.669921875 278.18359375 632.669921875 269.37890625 655 c 1,96,97
 246.787109375 622.79296875 246.787109375 622.79296875 231.56640625 586.75 c 0,98,99
 215.479492188 548.655273438 215.479492188 548.655273438 200.62890625 482 c 0,100,101
 200.125 479.736328125 200.125 479.736328125 197.743164062 468.99609375 c 128,-1,102
 195.362304688 458.254882812 195.362304688 458.254882812 194.06640625 452.5 c 0,103,104
 183.387695312 405.071289062 183.387695312 405.071289062 181.87890625 398 c 0,105,106
 175.307617188 367.19140625 175.307617188 367.19140625 170.31640625 346 c 0,107,108
 167.159179688 332.594726562 167.159179688 332.594726562 165.62890625 324 c 0,109,110
 164.5390625 317.875976562 164.5390625 317.875976562 163.12890625 307.875 c 0,111,112
 160.768554688 291.130859375 160.768554688 291.130859375 158.12890625 273.5 c 0,113,114
 155.760742188 257.682617188 155.760742188 257.682617188 153.28515625 239.5 c 0,115,116
 151.58203125 226.993164062 151.58203125 226.993164062 151.25390625 224.5 c 0,117,118
 150.252929688 216.899414062 150.252929688 216.899414062 149.69140625 210.25 c 0,119,120
 149.095703125 203.185546875 149.095703125 203.185546875 148.75390625 200.5 c 0,121,122
 148.442382812 198.049804688 148.442382812 198.049804688 147.700195312 193.575195312 c 128,-1,123
 146.958007812 189.099609375 146.958007812 189.099609375 146.72265625 187.5 c 0,124,125
 146.302734375 184.641601562 146.302734375 184.641601562 145.577148438 178.625976562 c 128,-1,126
 144.850585938 172.610351562 144.850585938 172.610351562 144.37890625 169.5 c 128,-1,127
 143.89453125 166.307617188 143.89453125 166.307617188 142.96484375 160.287109375 c 128,-1,128
 142.03515625 154.266601562 142.03515625 154.266601562 141.87890625 153.25 c 0,129,130
 139.7890625 139.645507812 139.7890625 139.645507812 139.06640625 131.546875 c 0,131,132
 138.446289062 124.59375 138.446289062 124.59375 138.12890625 114.9375 c 0,133,134
 136.356445312 61.0244140625 136.356445312 61.0244140625 134.84765625 46.341796875 c 0,135,136
 132.48046875 23.2978515625 132.48046875 23.2978515625 125.00390625 8.4287109375 c 0,137,138
 120.139648438 -1.24609375 120.139648438 -1.24609375 112.50390625 -10.267578125 c 0,139,140
 107.196289062 -16.5390625 107.196289062 -16.5390625 101.25390625 -21.5 c 0,141,142
 92.103515625 -29.138671875 92.103515625 -29.138671875 80.6240234375 -34.841796875 c 0,143,144
 73.6103515625 -38.326171875 73.6103515625 -38.326171875 67.484375 -39.8671875 c 0,145,146
 60.4287109375 -41.6416015625 60.4287109375 -41.6416015625 53.5634765625 -41.1943359375 c 0,147,148
 46.4267578125 -40.73046875 46.4267578125 -40.73046875 40.1552734375 -37.966796875 c 0,149,150
 30.3466796875 -33.64453125 30.3466796875 -33.64453125 24.37890625 -24 c 0,151,152
 24.15234375 -23.6337890625 24.15234375 -23.6337890625 19.69140625 -15.625 c 0,153,154
 19.0830078125 -14.5322265625 19.0830078125 -14.5322265625 17.705078125 -12.1513671875 c 128,-1,155
 16.3271484375 -9.76953125 16.3271484375 -9.76953125 15.62890625 -8.5 c 0,156,157
 13.5986328125 -4.806640625 13.5986328125 -4.806640625 12.66015625 -1.875 c 128,-1,158
 11.7578125 0.9443359375 11.7578125 0.9443359375 11.25390625 5 c 0,159,160
 10.998046875 7.0615234375 10.998046875 7.0615234375 10.6240234375 10.87890625 c 128,-1,161
 10.2509765625 14.6962890625 10.2509765625 14.6962890625 10.1474609375 15.6669921875 c 0,162,163
 9.818359375 18.7314453125 9.818359375 18.7314453125 9.1064453125 24.7333984375 c 128,-1,164
 8.3935546875 30.734375 8.3935546875 30.734375 8.076171875 33.6669921875 c 0,165,166
 6.9052734375 44.49609375 6.9052734375 44.49609375 6.21484375 57.70703125 c 0,167,168
 5.2861328125 75.462890625 5.2861328125 75.462890625 5.5234375 87.1630859375 c 0,169,170
 5.8974609375 105.598632812 5.8974609375 105.598632812 9.54296875 124.663085938 c 0,171,172
 11.890625 136.940429688 11.890625 136.940429688 21.388671875 173.491210938 c 0,173,174
 27.697265625 197.765625 27.697265625 197.765625 33.8798828125 217.9921875 c 0,175,176
 38.63671875 233.549804688 38.63671875 233.549804688 40.375 242.477539062 c 0,177,178
 41.95703125 250.602539062 41.95703125 250.602539062 43.12890625 262.7109375 c 0,179,180
 43.8740234375 270.411132812 43.8740234375 270.411132812 45.8818359375 294.366210938 c 0,181,182
 48.7294921875 328.336914062 48.7294921875 328.336914062 51.775390625 342.6171875 c 0,183,184
 55.330078125 359.284179688 55.330078125 359.284179688 62.4609375 376.102539062 c 0,185,186
 64.0966796875 379.9609375 64.0966796875 379.9609375 73.1044921875 398.6328125 c 0,187,188
 77.0048828125 406.717773438 77.0048828125 406.717773438 78.6982421875 412.430664062 c 0,189,190
 80.30078125 417.833007812 80.30078125 417.833007812 81.083984375 424.357421875 c 128,-1,191
 81.87890625 430.982421875 81.87890625 430.982421875 81.87890625 441 c 2,192,-1
 81.87890625 443 l 2,193,194
 81.87890625 455.829101562 81.87890625 455.829101562 84.12109375 465.516601562 c 0,195,196
 86.1328125 474.20703125 86.1328125 474.20703125 90.8486328125 487.067382812 c 0,197,198
 93.0087890625 492.958007812 93.0087890625 492.958007812 97.7705078125 504.400390625 c 0,199,200
 100.314453125 510.514648438 100.314453125 510.514648438 101.473632812 514.532226562 c 0,201,202
 102.4296875 517.84765625 102.4296875 517.84765625 103.49609375 523.3828125 c 0,203,204
 105.2421875 532.446289062 105.2421875 532.446289062 106.25390625 537 c 0,205,206
 110.442382812 555.853515625 110.442382812 555.853515625 114.188476562 564.59765625 c 0,207,208
 118.055664062 573.624023438 118.055664062 573.624023438 124.240234375 579.388671875 c 0,209,210
 130.66796875 585.380859375 130.66796875 585.380859375 140.907226562 589.34765625 c 0,211,212
 148.946289062 592.461914062 148.946289062 592.461914062 158.12890625 594 c 1,213,214
 168.081054688 624.4296875 168.081054688 624.4296875 185.94140625 652 c 0,215,216
 203.138671875 678.546875 203.138671875 678.546875 224.37890625 698 c 0,217,218
 238.125 710.58984375 238.125 710.58984375 250.94140625 717.75 c 128,-1,219
 263.875976562 724.9765625 263.875976562 724.9765625 278.12890625 727 c 0,220,221
 287.528320312 728.334960938 287.528320312 728.334960938 298.94921875 728.546875 c 0,222,223
 306.631835938 728.689453125 306.631835938 728.689453125 311.41015625 727.1875 c 0,224,225
 315.888671875 725.779296875 315.888671875 725.779296875 319.411132812 722.729492188 c 0,226,227
 322.159179688 720.348632812 322.159179688 720.348632812 324.9765625 716.264648438 c 0,228,229
 331.540039062 706.748046875 331.540039062 706.748046875 337.237304688 695.87109375 c 0,230,231
 337.956054688 694.499023438 337.956054688 694.499023438 347.309570312 672.272460938 c 0,232,233
 348.515625 669.40625 348.515625 669.40625 351.430664062 663.03125 c 128,-1,234
 354.346679688 656.65625 354.346679688 656.65625 355.7421875 653.219726562 c 0,235,236
 360.62109375 641.204101562 360.62109375 641.204101562 363.157226562 624.0546875 c 0,237,238
 368.080078125 590.768554688 368.080078125 590.768554688 370.62890625 571 c 0,239,240
 371.810546875 561.833984375 371.810546875 561.833984375 373.657226562 544.697265625 c 128,-1,241
 375.50390625 527.560546875 375.50390625 527.560546875 376.41015625 520.125 c 0,242,243
 378.203125 505.42578125 378.203125 505.42578125 378.75390625 497.5 c 0,244,245
 379.129882812 492.091796875 379.129882812 492.091796875 379.37890625 484.875 c 0,246,247
 379.505859375 481.190429688 379.505859375 481.190429688 379.702148438 474.200195312 c 128,-1,248
 379.8984375 467.209960938 379.8984375 467.209960938 380.00390625 464 c 0,249,250
 380.79296875 440.078125 380.79296875 440.078125 382.354492188 419.721679688 c 0,251,252
 383.635742188 403.015625 383.635742188 403.015625 385.655273438 390.884765625 c 0,253,254
 387.3515625 380.6953125 387.3515625 380.6953125 390.381835938 368.46875 c 0,255,256
 391.139648438 365.41015625 391.139648438 365.41015625 397.11328125 342.991210938 c 0,257,258
 402.974609375 320.994140625 402.974609375 320.994140625 405.2890625 306.704101562 c 0,259,260
 407.552734375 292.7265625 407.552734375 292.7265625 407.783203125 279.82421875 c 0,261,262
 407.990234375 268.3125 407.990234375 268.3125 406.619140625 256.178710938 c 0,263,264
 405.427734375 245.629882812 405.427734375 245.629882812 402.436523438 230.890625 c 0,265,266
 399.04296875 214.174804688 399.04296875 214.174804688 398.321289062 209.373046875 c 0,267,268
 397.274414062 202.4140625 397.274414062 202.4140625 397.088867188 196.599609375 c 0,269,270
 396.715820312 184.888671875 396.715820312 184.888671875 399.783203125 174.161132812 c 0,271,272
 402.283203125 165.4140625 402.283203125 165.4140625 408.284179688 154.044921875 c 0,273,274
 418.385742188 134.905273438 418.385742188 134.905273438 420.381835938 129.404296875 c 0,275,276
 423.493164062 120.825195312 423.493164062 120.825195312 424.483398438 111.571289062 c 0,277,278
 424.810546875 108.514648438 424.810546875 108.514648438 424.918945312 102.856445312 c 128,-1,279
 425.028320312 97.1982421875 425.028320312 97.1982421875 425.186523438 94.9296875 c 0,280,281
 425.541992188 89.84765625 425.541992188 89.84765625 427.504882812 86.1494140625 c 0,282,283
 428.453125 84.36328125 428.453125 84.36328125 431.002929688 80.84375 c 128,-1,284
 433.518554688 77.37109375 433.518554688 77.37109375 435.248046875 75.224609375 c 0,285,286
 437.587890625 72.322265625 437.587890625 72.322265625 438.346679688 71.056640625 c 0,287,288
 438.954101562 70.0419921875 438.954101562 70.0419921875 439.37890625 69 c 1,0,1
EndSplineSet
EndChar

StartChar: O
Encoding: 79 79 50
AltUni2: 00ff2f.ffffffff.0 001d3c.ffffffff.0 000555.ffffffff.0 00041e.ffffffff.0 00039f.ffffffff.0 00ff2f.ffffffff.0 001d3c.ffffffff.0 000555.ffffffff.0 00041e.ffffffff.0 00039f.ffffffff.0
Width: 622
GlyphClass: 1
Flags: W
LayerCount: 2
UndoRedoHistory
Layer: 1
Undoes
UndoOperation
Index: 0
Type: 3
WasModified: 0
WasOrder2: 1
Layer: 2
EndUndoOperation
EndUndoes
Redoes
EndRedoes
EndUndoRedoHistory
Fore
SplineSet
443.646484375 685 m 1,0,1
 432.396484375 684 432.396484375 684 418.646484375 679 c 0,2,3
 364.896484375 663 364.896484375 663 306.146484375 606 c 0,4,5
 194.896484375 502 194.896484375 502 132.396484375 386 c 0,6,7
 54.896484375 244 54.896484375 244 96.146484375 166 c 0,8,9
 139.896484375 82 139.896484375 82 203.646484375 60 c 0,10,11
 256.146484375 42 256.146484375 42 326.146484375 68 c 0,12,13
 393.646484375 93 393.646484375 93 465.521484375 154.5 c 128,-1,14
 537.396484375 216 537.396484375 216 597.396484375 299 c 0,15,16
 656.146484375 380 656.146484375 380 686.771484375 458 c 128,-1,17
 717.396484375 536 717.396484375 536 707.396484375 589 c 0,18,19
 699.896484375 641 699.896484375 641 652.396484375 660 c 0,20,21
 598.646484375 682 598.646484375 682 487.396484375 655 c 0,22,23
 469.896484375 651 469.896484375 651 457.396484375 658 c 128,-1,24
 444.896484375 665 444.896484375 665 443.646484375 679 c 0,25,26
 442.396484375 682 442.396484375 682 443.646484375 685 c 1,0,1
601.146484375 741 m 1,27,28
 658.646484375 742 658.646484375 742 703.646484375 726 c 0,29,30
 778.646484375 696 778.646484375 696 793.646484375 616 c 0,31,32
 803.646484375 547 803.646484375 547 769.896484375 457.5 c 128,-1,33
 736.146484375 368 736.146484375 368 667.396484375 274 c 0,34,35
 597.396484375 178 597.396484375 178 512.396484375 106.5 c 128,-1,36
 427.396484375 35 427.396484375 35 343.646484375 4 c 0,37,38
 239.896484375 -34 239.896484375 -34 156.146484375 -7 c 0,39,40
 68.646484375 23 68.646484375 23 14.896484375 124 c 0,41,42
 -15.103515625 181 -15.103515625 181 -0.103515625 258 c 0,43,44
 13.646484375 323 13.646484375 323 54.896484375 401 c 0,45,46
 126.146484375 529 126.146484375 529 247.396484375 645 c 0,47,48
 328.646484375 721 328.646484375 721 407.396484375 745 c 0,49,50
 443.646484375 756 443.646484375 756 487.396484375 760 c 0,51,52
 509.896484375 762 509.896484375 762 569.896484375 762 c 0,53,54
 598.646484375 762 598.646484375 762 601.146484375 741 c 1,27,28
EndSplineSet
EndChar

StartChar: P
Encoding: 80 80 51
AltUni2: 00ff30.ffffffff.0 002119.ffffffff.0 001d3e.ffffffff.0 0013e2.ffffffff.0 000420.ffffffff.0 0003a1.ffffffff.0 00ff30.ffffffff.0 002119.ffffffff.0 001d3e.ffffffff.0 0013e2.ffffffff.0 000420.ffffffff.0 0003a1.ffffffff.0
Width: 504
GlyphClass: 1
Flags: W
LayerCount: 2
UndoRedoHistory
Layer: 1
Undoes
UndoOperation
Index: 0
Type: 3
WasModified: 0
WasOrder2: 1
Layer: 2
EndUndoOperation
EndUndoes
Redoes
EndRedoes
EndUndoRedoHistory
Fore
SplineSet
109.23046875 278 m 1,0,1
 80.48046875 170 80.48046875 170 69.23046875 109 c 0,2,3
 60.48046875 64 60.48046875 64 59.23046875 35 c 0,4,5
 60.48046875 20 60.48046875 20 61.73046875 14 c 2,6,-1
 61.73046875 9 l 1,7,8
 71.73046875 -2 71.73046875 -2 67.35546875 -16.5 c 128,-1,9
 62.98046875 -31 62.98046875 -31 47.98046875 -42 c 0,10,11
 32.98046875 -53 32.98046875 -53 15.48046875 -53 c 128,-1,12
 -2.01953125 -53 -2.01953125 -53 -10.76953125 -42 c 0,13,14
 -25.76953125 -24 -25.76953125 -24 -25.76953125 19 c 0,15,16
 -25.76953125 44 -25.76953125 44 -15.76953125 102 c 0,17,18
 -0.76953125 186 -0.76953125 186 39.23046875 324 c 0,19,20
 95.48046875 520 95.48046875 520 160.48046875 694 c 0,21,22
 165.48046875 708 165.48046875 708 181.73046875 718 c 128,-1,23
 197.98046875 728 197.98046875 728 214.23046875 727 c 0,24,25
 224.23046875 726 224.23046875 726 232.98046875 720 c 1,26,27
 390.48046875 770 390.48046875 770 530.48046875 757 c 0,28,29
 594.23046875 750 594.23046875 750 636.73046875 729 c 0,30,31
 697.98046875 698 697.98046875 698 701.73046875 641 c 0,32,33
 706.73046875 532 706.73046875 532 586.73046875 455 c 0,34,35
 547.98046875 430 547.98046875 430 476.73046875 400 c 0,36,37
 425.48046875 380 425.48046875 380 359.23046875 361 c 0,38,39
 339.23046875 354 339.23046875 354 264.23046875 332 c 0,40,41
 179.23046875 306 179.23046875 306 141.73046875 286 c 0,42,43
 126.73046875 276 126.73046875 276 109.23046875 278 c 1,0,1
226.73046875 648 m 1,44,45
 184.23046875 526 184.23046875 526 131.73046875 354 c 1,46,47
 174.23046875 374 174.23046875 374 252.98046875 398 c 0,48,49
 261.73046875 401 261.73046875 401 301.73046875 413.5 c 128,-1,50
 341.73046875 426 341.73046875 426 349.23046875 428 c 0,51,52
 485.48046875 470 485.48046875 470 545.48046875 507 c 0,53,54
 619.23046875 554 619.23046875 554 615.48046875 622 c 0,55,56
 615.48046875 648 615.48046875 648 580.48046875 666 c 0,57,58
 551.73046875 680 551.73046875 680 500.48046875 685 c 0,59,60
 374.23046875 698 374.23046875 698 226.73046875 648 c 1,44,45
EndSplineSet
EndChar

StartChar: Q
Encoding: 81 81 52
AltUni2: 00ff31.ffffffff.0 00a7f4.ffffffff.0 00211a.ffffffff.0 00ff31.ffffffff.0 00a7f4.ffffffff.0 00211a.ffffffff.0
Width: 588
GlyphClass: 1
Flags: W
LayerCount: 2
UndoRedoHistory
Layer: 1
Undoes
UndoOperation
Index: 0
Type: 3
WasModified: 0
WasOrder2: 1
Layer: 2
EndUndoOperation
EndUndoes
Redoes
EndRedoes
EndUndoRedoHistory
Fore
SplineSet
487.854492188 59 m 1,0,-1
 497.854492188 43 l 2,1,2
 501.604492188 36 501.604492188 36 502.854492188 35 c 0,3,4
 527.854492188 -5 527.854492188 -5 544.104492188 -40 c 0,5,6
 549.104492188 -52 549.104492188 -52 541.604492188 -65 c 128,-1,7
 534.104492188 -78 534.104492188 -78 517.854492188 -86 c 0,8,9
 501.604492188 -93 501.604492188 -93 486.604492188 -90 c 128,-1,10
 471.604492188 -87 471.604492188 -87 466.604492188 -75 c 0,11,12
 455.354492188 -48 455.354492188 -48 429.104492188 -8 c 0,13,14
 429.104492188 -5 429.104492188 -5 424.104492188 1 c 0,15,16
 417.854492188 11 417.854492188 11 415.354492188 16 c 1,17,18
 335.354492188 -20 335.354492188 -20 252.854492188 -20 c 0,19,20
 86.6044921875 -20 86.6044921875 -20 31.6044921875 115 c 0,21,22
 -13.3955078125 233 -13.3955078125 233 39.1044921875 390 c 0,23,24
 92.8544921875 553 92.8544921875 553 217.854492188 653 c 0,25,26
 364.104492188 774 364.104492188 774 537.854492188 749 c 1,27,28
 682.854492188 765 682.854492188 765 732.854492188 658 c 0,29,30
 781.604492188 557 781.604492188 557 729.104492188 394 c 0,31,32
 676.604492188 233 676.604492188 233 559.104492188 117 c 0,33,34
 527.854492188 86 527.854492188 86 487.854492188 59 c 1,0,-1
442.854492188 186 m 0,35,36
 439.104492188 154 439.104492188 154 456.604492188 117 c 1,37,-1
 457.854492188 115 l 1,38,39
 487.854492188 140 487.854492188 140 501.604492188 154 c 0,40,41
 601.604492188 252 601.604492188 252 650.354492188 396 c 0,42,43
 696.604492188 536 696.604492188 536 656.604492188 620 c 0,44,45
 617.854492188 703 617.854492188 703 501.604492188 678 c 0,46,47
 477.854492188 673 477.854492188 673 467.854492188 685 c 1,48,49
 359.104492188 686 359.104492188 686 267.854492188 611 c 0,50,51
 165.354492188 526 165.354492188 526 117.854492188 387 c 0,52,53
 71.6044921875 249 71.6044921875 249 110.354492188 150 c 0,54,55
 152.854492188 48 152.854492188 48 272.854492188 49 c 0,56,57
 330.354492188 49 330.354492188 49 382.854492188 72 c 1,58,-1
 379.104492188 81 l 2,59,60
 357.854492188 130 357.854492188 130 361.604492188 174 c 0,61,62
 361.604492188 188 361.604492188 188 374.104492188 199.5 c 128,-1,63
 386.604492188 211 386.604492188 211 404.104492188 213 c 0,64,65
 420.354492188 215 420.354492188 215 431.604492188 207.5 c 128,-1,66
 442.854492188 200 442.854492188 200 442.854492188 186 c 0,35,36
EndSplineSet
EndChar

StartChar: R
Encoding: 82 82 53
AltUni2: 00ff32.ffffffff.0 00211d.ffffffff.0 00211c.ffffffff.0 00211b.ffffffff.0 001d3f.ffffffff.0 0013a1.ffffffff.0 00ff32.ffffffff.0 00211d.ffffffff.0 00211c.ffffffff.0 00211b.ffffffff.0 001d3f.ffffffff.0 0013a1.ffffffff.0
Width: 479
GlyphClass: 1
Flags: W
LayerCount: 2
UndoRedoHistory
Layer: 1
Undoes
UndoOperation
Index: 0
Type: 3
WasModified: 0
WasOrder2: 1
Layer: 2
EndUndoOperation
EndUndoes
Redoes
EndRedoes
EndUndoRedoHistory
Fore
SplineSet
164.439453125 358 m 1,0,1
 180.689453125 364 180.689453125 364 224.439453125 372 c 0,2,3
 323.189453125 388 323.189453125 388 410.689453125 438 c 0,4,5
 498.189453125 489 498.189453125 489 524.439453125 548 c 0,6,7
 550.689453125 604 550.689453125 604 534.439453125 638 c 0,8,9
 519.439453125 668 519.439453125 668 474.439453125 679 c 0,10,11
 390.689453125 701 390.689453125 701 268.189453125 660 c 1,12,13
 213.189453125 513 213.189453125 513 164.439453125 358 c 1,0,1
210.689453125 703 m 0,14,15
 288.189453125 736 288.189453125 736 369.439453125 746.5 c 128,-1,16
 450.689453125 757 450.689453125 757 511.939453125 742 c 0,17,18
 585.689453125 724 585.689453125 724 609.439453125 670.5 c 128,-1,19
 633.189453125 617 633.189453125 617 598.189453125 539 c 0,20,21
 559.439453125 455 559.439453125 455 444.439453125 388 c 0,22,23
 374.439453125 347 374.439453125 347 288.189453125 323 c 1,24,25
 299.439453125 316 299.439453125 316 313.189453125 304 c 0,26,27
 349.439453125 273 349.439453125 273 386.939453125 224 c 0,28,29
 400.689453125 206 400.689453125 206 430.689453125 161 c 0,30,31
 433.189453125 156 433.189453125 156 438.814453125 148 c 128,-1,32
 444.439453125 140 444.439453125 140 448.189453125 135 c 0,33,34
 449.439453125 134 449.439453125 134 452.564453125 128.5 c 128,-1,35
 455.689453125 123 455.689453125 123 458.189453125 119.5 c 128,-1,36
 460.689453125 116 460.689453125 116 460.689453125 115 c 0,37,38
 464.439453125 109 464.439453125 109 483.189453125 60 c 1,39,-1
 484.439453125 59 l 2,40,41
 485.689453125 58 485.689453125 58 484.439453125 57 c 0,42,43
 496.939453125 22 496.939453125 22 498.189453125 14 c 0,44,45
 501.939453125 11 501.939453125 11 504.439453125 3 c 0,46,47
 504.439453125 1 504.439453125 1 505.689453125 -7 c 0,48,49
 505.689453125 -8 505.689453125 -8 505.689453125 -9 c 128,-1,50
 505.689453125 -10 505.689453125 -10 505.689453125 -11 c 0,51,52
 503.189453125 -18 503.189453125 -18 500.689453125 -22 c 0,53,54
 491.939453125 -37 491.939453125 -37 473.189453125 -43 c 128,-1,55
 454.439453125 -49 454.439453125 -49 441.939453125 -43 c 0,56,57
 435.689453125 -39 435.689453125 -39 434.439453125 -38 c 2,58,-1
 431.939453125 -35 l 1,59,-1
 429.439453125 -32 l 2,60,61
 428.189453125 -31 428.189453125 -31 428.189453125 -29 c 128,-1,62
 428.189453125 -27 428.189453125 -27 426.314453125 -24 c 128,-1,63
 424.439453125 -21 424.439453125 -21 424.439453125 -18 c 2,64,-1
 409.439453125 26 l 1,65,-1
 406.939453125 28 l 1,66,67
 393.189453125 69 393.189453125 69 389.439453125 74 c 2,68,-1
 378.189453125 94 l 2,69,70
 363.189453125 117 363.189453125 117 360.689453125 120 c 0,71,72
 339.439453125 152 339.439453125 152 319.439453125 180 c 0,73,74
 283.189453125 226 283.189453125 226 250.689453125 253 c 0,75,76
 198.189453125 299 198.189453125 299 163.189453125 291 c 0,77,78
 150.689453125 289 150.689453125 289 144.439453125 292 c 1,79,80
 84.439453125 82 84.439453125 82 95.689453125 28 c 0,81,82
 98.189453125 16 98.189453125 16 89.439453125 3 c 128,-1,83
 80.689453125 -10 80.689453125 -10 63.189453125 -15 c 0,84,85
 48.189453125 -20 48.189453125 -20 35.064453125 -15.5 c 128,-1,86
 21.939453125 -11 21.939453125 -11 18.189453125 1 c 0,87,88
 1.939453125 75 1.939453125 75 81.939453125 337 c 0,89,90
 138.189453125 519 138.189453125 519 188.189453125 650 c 1,91,92
 184.439453125 652 184.439453125 652 183.189453125 659 c 0,93,94
 178.189453125 670 178.189453125 670 186.314453125 683 c 128,-1,95
 194.439453125 696 194.439453125 696 210.689453125 703 c 0,14,15
EndSplineSet
EndChar

StartChar: S
Encoding: 83 83 54
AltUni2: 00ff33.ffffffff.0 0013da.ffffffff.0 00054f.ffffffff.0 000405.ffffffff.0 00ff33.ffffffff.0 0013da.ffffffff.0 00054f.ffffffff.0 000405.ffffffff.0
Width: 421
GlyphClass: 1
Flags: W
LayerCount: 2
UndoRedoHistory
Layer: 1
Undoes
UndoOperation
Index: 0
Type: 3
WasModified: 0
WasOrder2: 1
Layer: 2
EndUndoOperation
EndUndoes
Redoes
EndRedoes
EndUndoRedoHistory
Fore
SplineSet
543.779296875 677 m 0,0,1
 506.279296875 694 506.279296875 694 478.779296875 689 c 0,2,3
 458.779296875 686 458.779296875 686 391.279296875 655 c 0,4,5
 276.279296875 600 276.279296875 600 232.529296875 561 c 0,6,7
 215.029296875 546 215.029296875 546 210.029296875 536 c 0,8,9
 205.029296875 528 205.029296875 528 207.529296875 523 c 0,10,11
 212.529296875 505 212.529296875 505 247.529296875 484 c 0,12,13
 285.029296875 463 285.029296875 463 340.029296875 442 c 1,14,-1
 340.029296875 441 l 1,15,16
 371.279296875 428 371.279296875 428 417.529296875 407 c 0,17,18
 458.779296875 386 458.779296875 386 480.029296875 365 c 0,19,20
 517.529296875 327 517.529296875 327 506.279296875 269 c 0,21,22
 500.029296875 222 500.029296875 222 460.029296875 164 c 0,23,24
 426.279296875 115 426.279296875 115 378.154296875 70.5 c 128,-1,25
 330.029296875 26 330.029296875 26 286.279296875 5 c 0,26,27
 221.279296875 -27 221.279296875 -27 117.529296875 -30 c 0,28,29
 68.779296875 -32 68.779296875 -32 32.529296875 -31 c 2,30,-1
 0.029296875 -31 l 2,31,32
 -16.220703125 -31 -16.220703125 -31 -24.345703125 -21 c 128,-1,33
 -32.470703125 -11 -32.470703125 -11 -28.720703125 4 c 0,34,35
 -24.970703125 18 -24.970703125 18 -10.595703125 28 c 128,-1,36
 3.779296875 38 3.779296875 38 20.029296875 38 c 2,37,-1
 52.529296875 38 l 1,38,-1
 133.779296875 38 l 1,39,40
 220.029296875 43 220.029296875 43 258.779296875 62 c 0,41,42
 290.029296875 77 290.029296875 77 327.529296875 112 c 128,-1,43
 365.029296875 147 365.029296875 147 392.529296875 186 c 0,44,45
 421.279296875 230 421.279296875 230 426.279296875 261 c 0,46,47
 432.529296875 294 432.529296875 294 412.529296875 315 c 0,48,49
 395.029296875 331 395.029296875 331 363.779296875 346 c 0,50,51
 341.279296875 358 341.279296875 358 291.279296875 378 c 0,52,53
 290.029296875 379 290.029296875 379 290.029296875 379 c 0,54,55
 221.279296875 407 221.279296875 407 190.029296875 425 c 0,56,57
 135.029296875 458 135.029296875 458 127.529296875 495 c 0,58,59
 115.029296875 545 115.029296875 545 181.279296875 602 c 0,60,61
 235.029296875 649 235.029296875 649 366.279296875 713 c 0,62,63
 407.529296875 732 407.529296875 732 426.279296875 739 c 0,64,65
 456.279296875 752 456.279296875 752 482.529296875 756 c 0,66,67
 535.029296875 764 535.029296875 764 593.779296875 739 c 0,68,69
 607.529296875 734 607.529296875 734 609.404296875 720.5 c 128,-1,70
 611.279296875 707 611.279296875 707 600.029296875 694 c 0,71,72
 590.029296875 681 590.029296875 681 573.779296875 676.5 c 128,-1,73
 557.529296875 672 557.529296875 672 543.779296875 677 c 0,0,1
EndSplineSet
EndChar

StartChar: T
Encoding: 84 84 55
AltUni2: 00ff34.ffffffff.0 001d40.ffffffff.0 0013a2.ffffffff.0 000422.ffffffff.0 0003a4.ffffffff.0 00ff34.ffffffff.0 001d40.ffffffff.0 0013a2.ffffffff.0 000422.ffffffff.0 0003a4.ffffffff.0
Width: 564
GlyphClass: 1
Flags: W
LayerCount: 2
UndoRedoHistory
Layer: 1
Undoes
UndoOperation
Index: 0
Type: 3
WasModified: 0
WasOrder2: 1
Layer: 2
EndUndoOperation
EndUndoes
Redoes
EndRedoes
EndUndoRedoHistory
Fore
SplineSet
276.56640625 270 m 2,0,1
 191.56640625 48 191.56640625 48 181.56640625 26 c 0,2,3
 160.31640625 -24 160.31640625 -24 160.31640625 -24 c 0,4,5
 146.56640625 -34 146.56640625 -34 130.31640625 -36 c 0,6,7
 114.06640625 -38 114.06640625 -38 102.81640625 -30 c 0,8,9
 87.81640625 -20 87.81640625 -20 92.81640625 -9 c 0,10,11
 227.81640625 329 227.81640625 329 361.56640625 668 c 1,12,13
 235.31640625 657 235.31640625 657 166.56640625 642 c 0,14,15
 150.31640625 639 150.31640625 639 137.81640625 646 c 0,16,17
 125.31640625 652 125.31640625 652 125.31640625 664 c 0,18,19
 125.31640625 677 125.31640625 677 137.81640625 688 c 0,20,21
 147.81640625 698 147.81640625 698 165.31640625 701 c 0,22,23
 252.81640625 716 252.81640625 716 401.56640625 732 c 0,24,25
 412.81640625 733 412.81640625 733 444.69140625 735.5 c 128,-1,26
 476.56640625 738 476.56640625 738 504.06640625 740 c 0,27,28
 534.06640625 743 534.06640625 743 569.06640625 745 c 0,29,30
 602.81640625 747 602.81640625 747 622.81640625 750 c 0,31,32
 644.06640625 753 644.06640625 753 664.06640625 754 c 0,33,34
 674.06640625 755 674.06640625 755 681.56640625 756 c 2,35,-1
 692.81640625 757 l 2,36,37
 695.31640625 758 695.31640625 758 696.56640625 758 c 2,38,-1
 699.06640625 758 l 1,39,-1
 704.06640625 759 l 1,40,-1
 710.31640625 759 l 2,41,42
 730.31640625 762 730.31640625 762 759.06640625 764 c 2,43,-1
 769.06640625 765 l 1,44,-1
 775.31640625 765 l 2,45,46
 779.06640625 765 779.06640625 765 787.81640625 762 c 0,47,48
 800.31640625 757 800.31640625 757 804.06640625 748 c 0,49,50
 810.31640625 733 810.31640625 733 795.31640625 719 c 0,51,52
 786.56640625 711 786.56640625 711 780.31640625 709 c 0,53,54
 775.31640625 707 775.31640625 707 774.06640625 707 c 0,55,56
 770.31640625 704 770.31640625 704 761.56640625 703 c 0,57,58
 739.06640625 703 739.06640625 703 737.81640625 702 c 0,59,60
 722.81640625 700 722.81640625 700 704.06640625 698 c 2,61,-1
 699.06640625 698 l 1,62,-1
 692.81640625 697 l 1,63,-1
 686.56640625 697 l 2,64,65
 681.56640625 696 681.56640625 696 675.31640625 695 c 0,66,67
 671.56640625 695 671.56640625 695 665.31640625 694 c 0,68,69
 659.06640625 693 659.06640625 693 657.81640625 693 c 0,70,71
 577.81640625 684 577.81640625 684 442.81640625 675 c 1,72,-1
 276.56640625 270 l 2,0,1
EndSplineSet
EndChar

StartChar: U
Encoding: 85 85 56
AltUni2: 00ff35.ffffffff.0 001d41.ffffffff.0 00ff35.ffffffff.0 001d41.ffffffff.0
Width: 494
GlyphClass: 1
Flags: W
LayerCount: 2
UndoRedoHistory
Layer: 1
Undoes
UndoOperation
Index: 0
Type: 3
WasModified: 0
WasOrder2: 1
Layer: 2
EndUndoOperation
EndUndoes
Redoes
EndRedoes
EndUndoRedoHistory
Fore
SplineSet
705.71875 708 m 0,0,1
 684.46875 655 684.46875 655 635.71875 543 c 0,2,3
 633.21875 536 633.21875 536 629.46875 527 c 128,-1,4
 625.71875 518 625.71875 518 622.59375 512.5 c 128,-1,5
 619.46875 507 619.46875 507 618.21875 502 c 0,6,7
 553.21875 352 553.21875 352 518.21875 251 c 0,8,9
 476.96875 120 476.96875 120 475.71875 33 c 0,10,11
 476.96875 19 476.96875 19 464.46875 6 c 128,-1,12
 451.96875 -7 451.96875 -7 435.09375 -10 c 128,-1,13
 418.21875 -13 418.21875 -13 406.34375 -5.5 c 128,-1,14
 394.46875 2 394.46875 2 395.71875 16 c 0,15,16
 394.46875 80 394.46875 80 413.21875 156 c 1,17,18
 390.71875 129 390.71875 129 353.21875 95 c 0,19,20
 308.21875 53 308.21875 53 261.96875 25 c 0,21,22
 190.71875 -16 190.71875 -16 133.21875 -11 c 0,23,24
 68.21875 -5 68.21875 -5 34.46875 37 c 0,25,26
 8.21875 73 8.21875 73 5.71875 136 c 0,27,28
 1.96875 230 1.96875 230 60.71875 390 c 0,29,30
 104.46875 508 104.46875 508 168.21875 633 c 0,31,32
 170.71875 640 170.71875 640 178.84375 655.5 c 128,-1,33
 186.96875 671 186.96875 671 190.71875 679 c 2,34,-1
 209.46875 715 l 2,35,36
 215.71875 729 215.71875 729 231.34375 737 c 128,-1,37
 246.96875 745 246.96875 745 262.59375 741.5 c 128,-1,38
 278.21875 738 278.21875 738 283.84375 726.5 c 128,-1,39
 289.46875 715 289.46875 715 283.21875 701 c 0,40,41
 270.71875 675 270.71875 675 265.71875 667 c 0,42,43
 256.96875 649 256.96875 649 243.21875 621 c 0,44,45
 181.96875 501 181.96875 501 139.46875 386 c 0,46,47
 84.46875 237 84.46875 237 86.96875 153 c 0,48,49
 88.21875 109 88.21875 109 106.96875 84 c 0,50,51
 124.46875 62 124.46875 62 160.71875 57 c 0,52,53
 185.71875 55 185.71875 55 222.59375 76 c 128,-1,54
 259.46875 97 259.46875 97 298.21875 133 c 0,55,56
 380.71875 210 380.71875 210 441.96875 319 c 0,57,58
 469.46875 364 469.46875 364 491.96875 419 c 0,59,60
 500.71875 440 500.71875 440 536.96875 525 c 0,61,62
 565.71875 594 565.71875 594 585.71875 635 c 0,63,64
 614.46875 700 614.46875 700 641.96875 748 c 0,65,66
 648.21875 762 648.21875 762 664.46875 769.5 c 128,-1,67
 680.71875 777 680.71875 777 695.71875 774 c 128,-1,68
 710.71875 771 710.71875 771 716.34375 759 c 128,-1,69
 721.96875 747 721.96875 747 714.46875 733 c 0,70,71
 711.96875 731 711.96875 731 710.09375 727.5 c 128,-1,72
 708.21875 724 708.21875 724 706.96875 722 c 0,73,74
 708.21875 715 708.21875 715 705.71875 708 c 0,0,1
EndSplineSet
EndChar

StartChar: V
Encoding: 86 86 57
AltUni2: 00ff36.ffffffff.0 002c7d.ffffffff.0 002164.ffffffff.0 0013d9.ffffffff.0 00ff36.ffffffff.0 002c7d.ffffffff.0 002164.ffffffff.0 0013d9.ffffffff.0
Width: 398
GlyphClass: 1
Flags: W
LayerCount: 2
UndoRedoHistory
Layer: 1
Undoes
UndoOperation
Index: 0
Type: 3
WasModified: 0
WasOrder2: 1
Layer: 2
EndUndoOperation
EndUndoes
Redoes
EndRedoes
EndUndoRedoHistory
Fore
SplineSet
591.030273438 777 m 0,0,1
 607.280273438 612 607.280273438 612 467.280273438 356 c 0,2,3
 322.280273438 89 322.280273438 89 148.530273438 -20 c 0,4,5
 129.780273438 -33 129.780273438 -33 104.780273438 -36 c 0,6,7
 92.2802734375 -39 92.2802734375 -39 79.7802734375 -37 c 0,8,9
 58.5302734375 -35 58.5302734375 -35 49.7802734375 -24 c 0,10,11
 7.2802734375 21 7.2802734375 21 23.5302734375 143 c 0,12,13
 36.0302734375 227 36.0302734375 227 77.2802734375 371 c 0,14,15
 79.7802734375 381 79.7802734375 381 82.2802734375 393 c 0,16,17
 111.030273438 494 111.030273438 494 126.030273438 555 c 0,18,19
 143.530273438 633 143.530273438 633 141.030273438 679 c 0,20,21
 139.780273438 693 139.780273438 693 151.030273438 705 c 128,-1,22
 162.280273438 717 162.280273438 717 179.155273438 721 c 128,-1,23
 196.030273438 725 196.030273438 725 208.530273438 719 c 128,-1,24
 221.030273438 713 221.030273438 713 222.280273438 699 c 0,25,26
 224.780273438 650 224.780273438 650 206.030273438 560 c 0,27,28
 191.030273438 495 191.030273438 495 162.280273438 394 c 0,29,30
 159.780273438 382 159.780273438 382 156.030273438 371 c 0,31,32
 116.030273438 235 116.030273438 235 104.780273438 152 c 0,33,34
 93.5302734375 64 93.5302734375 64 113.530273438 32 c 1,35,36
 184.780273438 78 184.780273438 78 259.155273438 168 c 128,-1,37
 333.530273438 258 333.530273438 258 394.780273438 371 c 0,38,39
 454.780273438 482 454.780273438 482 485.405273438 585 c 128,-1,40
 516.030273438 688 516.030273438 688 508.530273438 755 c 0,41,42
 507.280273438 769 507.280273438 769 517.905273438 781 c 128,-1,43
 528.530273438 793 528.530273438 793 546.030273438 798 c 128,-1,44
 563.530273438 803 563.530273438 803 576.655273438 797 c 128,-1,45
 589.780273438 791 589.780273438 791 591.030273438 777 c 0,0,1
EndSplineSet
EndChar

StartChar: W
Encoding: 87 87 58
AltUni2: 00ff37.ffffffff.0 001d42.ffffffff.0 0013b3.ffffffff.0 00ff37.ffffffff.0 001d42.ffffffff.0 0013b3.ffffffff.0
Width: 679
GlyphClass: 1
Flags: W
LayerCount: 2
UndoRedoHistory
Layer: 1
Undoes
UndoOperation
Index: 0
Type: 3
WasModified: 0
WasOrder2: 1
Layer: 2
EndUndoOperation
EndUndoes
Redoes
EndRedoes
EndUndoRedoHistory
Fore
SplineSet
236.413085938 657 m 0,0,1
 236.413085938 655 236.413085938 655 225.163085938 635 c 0,2,3
 222.663085938 630 222.663085938 630 218.288085938 621.5 c 128,-1,4
 213.913085938 613 213.913085938 613 212.663085938 609 c 0,5,6
 185.163085938 554 185.163085938 554 181.413085938 544 c 0,7,8
 130.163085938 435 130.163085938 435 97.6630859375 349 c 0,9,10
 51.4130859375 220 51.4130859375 220 51.4130859375 139 c 0,11,12
 53.9130859375 55 53.9130859375 55 107.663085938 43 c 0,13,14
 140.163085938 36 140.163085938 36 173.913085938 54 c 0,15,16
 210.163085938 75 210.163085938 75 246.413085938 123 c 0,17,18
 316.413085938 213 316.413085938 213 377.663085938 368 c 0,19,20
 383.913085938 382 383.913085938 382 395.163085938 412 c 0,21,22
 396.413085938 416 396.413085938 416 398.288085938 425 c 128,-1,23
 400.163085938 434 400.163085938 434 402.663085938 439 c 0,24,25
 411.413085938 475 411.413085938 475 432.663085938 548 c 2,26,-1
 435.163085938 557 l 2,27,28
 451.413085938 612 451.413085938 612 460.163085938 624 c 0,29,30
 466.413085938 632 466.413085938 632 477.663085938 638 c 0,31,32
 505.163085938 651 505.163085938 651 521.413085938 636 c 0,33,34
 527.663085938 631 527.663085938 631 530.163085938 624 c 0,35,36
 531.413085938 620 531.413085938 620 530.163085938 619 c 0,37,38
 530.163085938 617 530.163085938 617 529.538085938 613.5 c 128,-1,39
 528.913085938 610 528.913085938 610 530.163085938 608 c 0,40,41
 530.163085938 605 530.163085938 605 528.288085938 595.5 c 128,-1,42
 526.413085938 586 526.413085938 586 523.913085938 581 c 0,43,44
 503.913085938 502 503.913085938 502 470.163085938 411 c 1,45,46
 453.913085938 352 453.913085938 352 445.163085938 300 c 0,47,48
 420.163085938 168 420.163085938 168 427.663085938 101 c 0,49,50
 431.413085938 64 431.413085938 64 445.163085938 48 c 0,51,52
 452.663085938 37 452.663085938 37 465.163085938 39 c 0,53,54
 523.913085938 47 523.913085938 47 605.163085938 163 c 0,55,56
 680.163085938 269 680.163085938 269 746.413085938 433 c 0,57,58
 802.663085938 568 802.663085938 568 827.663085938 675 c 0,59,60
 831.413085938 687 831.413085938 687 833.913085938 701 c 2,61,-1
 833.913085938 702 l 1,62,63
 820.163085938 706 820.163085938 706 817.038085938 718.5 c 128,-1,64
 813.913085938 731 813.913085938 731 823.913085938 744 c 0,65,66
 826.413085938 747 826.413085938 747 836.413085938 759 c 0,67,68
 848.913085938 771 848.913085938 771 863.913085938 776 c 0,69,70
 890.163085938 784 890.163085938 784 906.413085938 767 c 0,71,72
 912.663085938 760 912.663085938 760 913.913085938 750 c 0,73,74
 917.663085938 726 917.663085938 726 905.163085938 678 c 0,75,76
 878.913085938 566 878.913085938 566 820.163085938 426 c 0,77,78
 748.913085938 256 748.913085938 256 670.163085938 141 c 0,79,80
 622.663085938 75 622.663085938 75 576.413085938 33 c 0,81,82
 518.913085938 -16 518.913085938 -16 460.163085938 -25 c 0,83,84
 406.413085938 -32 406.413085938 -32 376.413085938 3 c 0,85,86
 356.413085938 29 356.413085938 29 350.163085938 80 c 0,87,88
 348.913085938 107 348.913085938 107 348.913085938 154 c 1,89,90
 328.913085938 123 328.913085938 123 308.913085938 97 c 0,91,92
 257.663085938 34 257.663085938 34 205.163085938 3 c 0,93,94
 137.663085938 -35 137.663085938 -35 71.4130859375 -20 c 0,95,96
 17.6630859375 -8 17.6630859375 -8 -4.8369140625 33 c 0,97,98
 -26.0869140625 70 -26.0869140625 70 -26.0869140625 124 c 0,99,100
 -26.0869140625 211 -26.0869140625 211 23.9130859375 353 c 0,101,102
 56.4130859375 442 56.4130859375 442 108.913085938 554 c 2,103,-1
 141.413085938 620 l 2,104,105
 142.663085938 625 142.663085938 625 155.163085938 647 c 0,106,107
 157.663085938 657 157.663085938 657 166.413085938 669 c 0,108,109
 172.663085938 682 172.663085938 682 187.663085938 689.5 c 128,-1,110
 202.663085938 697 202.663085938 697 216.413085938 695 c 0,111,112
 232.663085938 693 232.663085938 693 238.288085938 681.5 c 128,-1,113
 243.913085938 670 243.913085938 670 236.413085938 657 c 0,0,1
EndSplineSet
EndChar

StartChar: X
Encoding: 88 88 59
AltUni2: 00ff38.ffffffff.0 002169.ffffffff.0 000425.ffffffff.0 0003a7.ffffffff.0 00ff38.ffffffff.0 002169.ffffffff.0 000425.ffffffff.0 0003a7.ffffffff.0
Width: 484
GlyphClass: 1
Flags: W
LayerCount: 2
UndoRedoHistory
Layer: 1
Undoes
UndoOperation
Index: 0
Type: 3
WasModified: 0
WasOrder2: 1
Layer: 2
EndUndoOperation
EndUndoes
Redoes
EndRedoes
EndUndoRedoHistory
Fore
SplineSet
236.506835938 739 m 0,0,1
 245.256835938 702 245.256835938 702 264.006835938 600 c 0,2,3
 281.506835938 513 281.506835938 513 292.756835938 455 c 1,4,5
 392.756835938 547 392.756835938 547 484.006835938 625 c 0,6,7
 574.006835938 702 574.006835938 702 662.756835938 774 c 0,8,9
 676.506835938 786 676.506835938 786 693.381835938 787.5 c 128,-1,10
 710.256835938 789 710.256835938 789 720.256835938 779 c 0,11,12
 730.256835938 770 730.256835938 770 727.756835938 755.5 c 128,-1,13
 725.256835938 741 725.256835938 741 711.506835938 729 c 0,14,15
 707.756835938 726 707.756835938 726 671.506835938 696.5 c 128,-1,16
 635.256835938 667 635.256835938 667 591.506835938 630 c 128,-1,17
 547.756835938 593 547.756835938 593 532.756835938 580 c 0,18,19
 389.006835938 457 389.006835938 457 309.006835938 378 c 1,20,21
 335.256835938 268 335.256835938 268 362.756835938 196 c 0,22,23
 411.506835938 73 411.506835938 73 466.506835938 23 c 0,24,25
 476.506835938 14 476.506835938 14 474.006835938 -0.5 c 128,-1,26
 471.506835938 -15 471.506835938 -15 459.006835938 -26 c 0,27,28
 445.256835938 -38 445.256835938 -38 429.006835938 -40 c 128,-1,29
 412.756835938 -42 412.756835938 -42 401.506835938 -33 c 0,30,31
 335.256835938 27 335.256835938 27 285.256835938 158 c 0,32,33
 260.256835938 226 260.256835938 226 239.006835938 307 c 1,34,35
 91.5068359375 149 91.5068359375 149 6.5068359375 -5 c 0,36,37
 -0.9931640625 -19 -0.9931640625 -19 -17.2431640625 -27 c 128,-1,38
 -33.4931640625 -35 -33.4931640625 -35 -48.4931640625 -32 c 128,-1,39
 -63.4931640625 -29 -63.4931640625 -29 -68.4931640625 -16 c 128,-1,40
 -73.4931640625 -3 -73.4931640625 -3 -64.7431640625 11 c 0,41,42
 29.0068359375 179 29.0068359375 179 185.256835938 347 c 0,43,44
 196.506835938 360 196.506835938 360 220.256835938 384 c 1,45,46
 219.006835938 390 219.006835938 390 217.131835938 400 c 128,-1,47
 215.256835938 410 215.256835938 410 214.006835938 416 c 0,48,49
 197.756835938 489 197.756835938 489 182.756835938 571 c 0,50,51
 160.256835938 689 160.256835938 689 156.506835938 710 c 0,52,53
 152.756835938 724 152.756835938 724 162.756835938 737.5 c 128,-1,54
 172.756835938 751 172.756835938 751 189.006835938 757 c 0,55,56
 205.256835938 764 205.256835938 764 219.006835938 758.5 c 128,-1,57
 232.756835938 753 232.756835938 753 236.506835938 739 c 0,0,1
EndSplineSet
EndChar

StartChar: Y
Encoding: 89 89 60
AltUni2: 00ff39.ffffffff.0 0004ae.ffffffff.0 0003a5.ffffffff.0 00ff39.ffffffff.0 0004ae.ffffffff.0 0003a5.ffffffff.0 0003d2.ffffffff.0
Width: 502
GlyphClass: 1
Flags: W
LayerCount: 2
UndoRedoHistory
Layer: 1
Undoes
UndoOperation
Index: 0
Type: 3
WasModified: 0
WasOrder2: 1
Layer: 2
EndUndoOperation
EndUndoes
Redoes
EndRedoes
EndUndoRedoHistory
Fore
SplineSet
211.086914062 745 m 0,0,1
 219.836914062 733 219.836914062 733 236.086914062 673 c 0,2,3
 259.836914062 591 259.836914062 591 268.586914062 563 c 0,4,5
 298.586914062 475 298.586914062 475 329.836914062 431 c 0,6,7
 353.586914062 401 353.586914062 401 369.836914062 399 c 0,8,9
 376.086914062 399 376.086914062 399 378.586914062 401 c 0,10,11
 379.836914062 401 379.836914062 401 381.086914062 402 c 0,12,13
 397.336914062 426 397.336914062 426 508.586914062 571 c 0,14,15
 538.586914062 609 538.586914062 609 574.836914062 657 c 0,16,17
 623.586914062 721 623.586914062 721 638.586914062 739 c 0,18,19
 648.586914062 753 648.586914062 753 665.461914062 758 c 128,-1,20
 682.336914062 763 682.336914062 763 694.836914062 757 c 0,21,22
 708.586914062 751 708.586914062 751 710.461914062 737.5 c 128,-1,23
 712.336914062 724 712.336914062 724 702.336914062 710 c 2,24,-1
 638.586914062 629 l 2,25,26
 612.336914062 595 612.336914062 595 573.586914062 544 c 0,27,28
 558.586914062 524 558.586914062 524 523.586914062 478 c 128,-1,29
 488.586914062 432 488.586914062 432 471.086914062 409 c 1,30,31
 471.086914062 395 471.086914062 395 458.586914062 382 c 0,32,33
 446.086914062 369 446.086914062 369 437.336914062 362 c 0,34,35
 431.086914062 352 431.086914062 352 404.211914062 315.5 c 128,-1,36
 377.336914062 279 377.336914062 279 364.836914062 260 c 0,37,38
 258.586914062 104 258.586914062 104 198.586914062 -14 c 0,39,40
 191.086914062 -28 191.086914062 -28 175.461914062 -36.5 c 128,-1,41
 159.836914062 -45 159.836914062 -45 143.586914062 -42 c 0,42,43
 128.586914062 -39 128.586914062 -39 122.961914062 -26.5 c 128,-1,44
 117.336914062 -14 117.336914062 -14 124.836914062 1 c 0,45,46
 188.586914062 124 188.586914062 124 297.336914062 284 c 0,47,48
 303.586914062 292 303.586914062 292 313.586914062 307 c 128,-1,49
 323.586914062 322 323.586914062 322 328.586914062 329 c 1,50,51
 291.086914062 338 291.086914062 338 257.336914062 382 c 0,52,53
 221.086914062 433 221.086914062 433 189.836914062 527 c 0,54,55
 189.836914062 529 189.836914062 529 156.086914062 641 c 0,56,57
 143.586914062 689 143.586914062 689 136.711914062 700 c 128,-1,58
 129.836914062 711 129.836914062 711 136.086914062 726.5 c 128,-1,59
 142.336914062 742 142.336914062 742 157.336914062 751 c 128,-1,60
 172.336914062 760 172.336914062 760 188.586914062 758 c 128,-1,61
 204.836914062 756 204.836914062 756 211.086914062 745 c 0,0,1
EndSplineSet
EndChar

